<?xml version="1.0" standalone="no"?>
<!DOCTYPE svg PUBLIC "-//W3C//DTD SVG 1.1//EN" "http://www.w3.org/Graphics/SVG/1.1/DTD/svg11.dtd" >
<svg>
<metadata>
Created by FontForge 20090914 at Wed Feb 13 08:54:40 2013
 By www-data
Copyright (c) The Font Bureau, Inc., 2003. All rights reserved.
</metadata>
<defs>
<font id="Belizio-Regular" horiz-adv-x="843" >
  <font-face 
    font-family="Belizio Regular"
    font-weight="400"
    font-stretch="normal"
    units-per-em="1000"
    panose-1="2 0 6 5 5 0 0 2 0 4"
    ascent="795"
    descent="-205"
    x-height="486"
    cap-height="770"
    bbox="-102 -236 1461 991"
    underline-thickness="27"
    underline-position="-107"
    stemh="41"
    stemv="54"
    unicode-range="U+0020-U+FB02"
  />
<missing-glyph horiz-adv-x="500" 
 />
    <glyph glyph-name="fi" unicode="fi" horiz-adv-x="674" 
d="M655 0h-275v50h61c27 0 33 10 33 40v311c0 26 -5 35 -29 35h-227v-343c0 -35 6 -43 35 -43h61v-50h-276v50h64c24 0 30 10 30 37v349h-94v50h60c21 0 34 14 34 36v29c0 136 79 226 227 226c112 0 193 -51 193 -123c0 -39 -22 -62 -56 -62c-35 0 -59 23 -59 50
c0 21 8 44 33 51c-26 23 -49 38 -113 38c-73 0 -138 -43 -138 -118v-127h341v-396c0 -30 6 -40 34 -40h61v-50z" />
    <glyph glyph-name="fl" unicode="fl" horiz-adv-x="674" 
d="M655 0h-275v50h64c23 0 30 9 30 37v506c-43 0 -69 19 -69 49c0 21 14 51 43 54c-14 16 -30 35 -100 35c-71 0 -129 -32 -129 -118v-127h123v-50h-124v-343c0 -35 6 -43 35 -43h61v-50h-276v50h64c24 0 30 10 30 37v349h-94v50h60c21 0 34 14 34 36v29
c0 147 75 226 211 226c55 0 95 -12 124 -32l93 25v-683c0 -27 8 -37 34 -37h61v-50z" />
    <glyph glyph-name="f_f_l" unicode="ffl" horiz-adv-x="1016" 
d="M997 0h-275v50h59c24 0 35 14 35 42v501c-4 -1 -7 -1 -10 -1c-36 0 -59 23 -59 50c0 21 7 44 33 51c0 0 -27 38 -97 38c-58 0 -122 -32 -122 -118v-127h123v-50h-124v-338c0 -35 11 -48 39 -48h57v-50h-276v50h59c25 0 35 15 35 42v344h-256v-338c0 -35 11 -48 39 -48h57
v-50h-276v50h59c25 0 35 15 35 42v344h-94v50h60c21 0 34 14 34 36v29c0 147 75 226 211 226c87 0 148 -33 170 -77c35 50 93 77 172 77c55 0 95 -12 124 -32l93 25v-678c0 -27 13 -42 38 -42h57v-50zM476 592c-38 -4 -67 21 -67 50c0 21 8 44 34 51c0 0 -32 38 -102 38
c-58 0 -122 -32 -122 -118v-127h221c21 0 35 13 35 36c0 41 0 63 1 70z" />
    <glyph glyph-name="f_f_i" unicode="ffi" horiz-adv-x="1016" 
d="M997 0h-275v50h61c27 0 33 10 33 40v301c0 26 -14 45 -39 45h-217v-343c0 -35 6 -43 35 -43h61v-50h-276v50h64c24 0 30 10 30 37v349h-256v-343c0 -35 6 -43 35 -43h61v-50h-276v50h64c24 0 30 10 30 37v349h-94v50h60c21 0 34 14 34 36v29c0 147 75 226 211 226
c90 0 152 -35 173 -82c37 52 100 82 185 82c109 0 193 -51 193 -123c0 -39 -22 -62 -56 -62c-35 0 -59 23 -59 50c0 21 8 44 33 51c-26 29 -45 38 -113 38c-73 0 -138 -43 -138 -118v-127h341v-396c0 -30 6 -40 34 -40h61v-50zM477 592c-40 -4 -68 21 -68 50
c0 21 8 44 34 51c0 0 -32 38 -102 38c-58 0 -122 -32 -122 -118v-127h221c21 0 34 14 34 36c0 45 1 57 3 70z" />
    <glyph glyph-name="f_f" unicode="ff" horiz-adv-x="727" 
d="M789 664c0 -44 -24 -72 -58 -72c-36 0 -57 23 -57 50c0 21 8 44 34 51c0 0 -8 38 -61 38c-58 0 -86 -45 -86 -118v-127h123v-50h-124v-344c0 -35 8 -42 35 -42h85v-50h-300v50h64c24 0 30 9 30 36v350h-256v-344c0 -35 6 -42 35 -42h61v-50h-276v50h64c24 0 30 9 30 36
v350h-94v50h60c21 0 34 14 34 36v29c0 147 75 226 211 226c83 0 141 -29 166 -70c28 45 71 70 140 70c86 0 140 -50 140 -113zM474 522v70c-35 -1 -65 21 -65 50c0 21 8 44 34 51c0 0 -32 38 -102 38c-58 0 -122 -32 -122 -118v-127h221c21 0 34 14 34 36z" />
    <glyph glyph-name=".notdef" horiz-adv-x="500" 
 />
    <glyph glyph-name="space" unicode=" " horiz-adv-x="342" 
 />
    <glyph glyph-name="space" unicode="&#xa0;" horiz-adv-x="342" 
 />
    <glyph glyph-name="exclam" unicode="!" horiz-adv-x="286" 
d="M203 649c0 -70 -15 -142 -21 -209c-7 -79 -13 -187 -13 -251h-48c0 64 -6 171 -14 251c-7 67 -22 139 -22 209c0 79 13 138 59 138c48 0 59 -60 59 -138zM216 56c0 -40 -33 -71 -73 -71c-39 0 -72 31 -72 71s33 72 72 72c40 0 73 -32 73 -72z" />
    <glyph glyph-name="quotedbl" unicode="&#x22;" horiz-adv-x="465" 
d="M390 674c0 -47 -10 -82 -20 -133c-12 -60 -11 -99 -11 -147h-49c0 49 -1 88 -12 147c-10 51 -21 89 -21 133c0 53 15 97 57 97c45 0 56 -45 56 -97zM188 674c0 -47 -10 -82 -20 -133c-12 -60 -11 -99 -11 -147h-50c0 49 -1 88 -11 147c-9 51 -21 89 -21 133
c0 53 14 97 57 97c45 0 56 -45 56 -97z" />
    <glyph glyph-name="numbersign" unicode="#" horiz-adv-x="868" 
d="M826 484h-190l-90 -195h218v-61h-245l-104 -228h-67l103 228h-185l-104 -228h-67l104 228h-155v61h182l89 195h-209v61h237l103 225h67l-103 -225h186l102 225h68l-103 -225h163v-61zM568 484h-185l-89 -195h185z" />
    <glyph glyph-name="dollar" unicode="$" horiz-adv-x="617" 
d="M579 213c0 -132 -106 -204 -250 -212v-115h-53v114c-141 7 -240 72 -240 184c0 46 35 82 81 82c43 0 69 -28 69 -72s-36 -58 -64 -58c14 -51 63 -87 154 -92v301l-56 15c-104 28 -177 86 -177 195c0 129 106 205 233 213v46h53v-46c139 -10 234 -86 234 -177
c0 -59 -24 -89 -72 -89c-45 0 -73 24 -73 71c0 39 36 58 59 58c-13 46 -62 86 -148 93v-301l44 -14c153 -49 206 -93 206 -196zM276 437v287c-86 -8 -153 -59 -153 -147c0 -68 41 -109 153 -140zM499 196c0 67 -43 99 -170 136v-287c108 6 170 56 170 151z" />
    <glyph glyph-name="percent" unicode="%" horiz-adv-x="1043" 
d="M465 541c0 -135 -92 -244 -212 -244c-121 0 -208 110 -208 234c0 141 96 238 212 238c120 0 208 -108 208 -228zM727 770l-352 -770h-57l350 770h59zM1004 238c0 -134 -91 -243 -212 -243c-120 0 -208 109 -208 234c0 141 96 238 214 238c119 0 206 -108 206 -229z
M373 533c0 104 -34 195 -119 195c-86 0 -119 -91 -119 -195c0 -110 33 -195 119 -195c85 0 119 100 119 195zM913 231c0 104 -34 195 -120 195c-85 0 -119 -91 -119 -195c0 -110 34 -195 119 -195c86 0 120 100 120 195z" />
    <glyph glyph-name="ampersand" unicode="&#x26;" horiz-adv-x="879" 
d="M861 198c0 -125 -73 -203 -190 -203c-54 0 -115 20 -170 65c-62 -48 -132 -70 -227 -70c-144 0 -241 114 -241 230c0 112 68 199 192 257c-11 41 -17 82 -17 122c0 112 65 186 161 186c85 0 143 -53 143 -133c0 -76 -84 -133 -188 -188c21 -53 50 -106 84 -159
c26 -41 65 -99 112 -149c70 77 96 157 96 239c0 26 -16 41 -34 41h-55v50h261v-50h-66c-25 0 -40 -11 -44 -49c-11 -101 -53 -198 -118 -271c40 -34 82 -59 124 -59c86 0 124 59 124 142v11h53v-12zM433 653c0 40 -20 78 -69 78c-52 0 -74 -44 -74 -105c0 -35 5 -72 16 -109
c90 45 127 75 127 136zM456 99c-76 72 -165 191 -214 322c-80 -47 -103 -89 -103 -166c0 -121 76 -199 189 -199c48 0 91 17 128 43z" />
    <glyph glyph-name="quotesingle" unicode="'" horiz-adv-x="242" 
d="M180 674c0 -47 -9 -82 -20 -133c-13 -60 -12 -99 -12 -147h-49c0 49 -1 88 -12 147c-10 51 -21 89 -21 133c0 53 15 97 57 97c45 0 57 -45 57 -97z" />
    <glyph glyph-name="parenleft" unicode="(" horiz-adv-x="481" 
d="M405 -79l-21 -31c-214 117 -330 253 -330 456c0 201 140 347 332 442l19 -34c-144 -78 -243 -194 -243 -422s82 -316 243 -411z" />
    <glyph glyph-name="parenright" unicode=")" horiz-adv-x="481" 
d="M427 346c0 -203 -116 -339 -330 -456l-21 31c160 96 242 183 242 411s-99 344 -242 422l19 34c192 -95 332 -241 332 -442z" />
    <glyph glyph-name="asterisk" unicode="*" horiz-adv-x="512" 
d="M499 553l-41 -12l-12 35c-5 15 -14 18 -28 14l-118 -39l75 -105c10 -13 17 -14 32 -3l29 22l25 -36l-139 -100l-24 35l32 24c13 10 13 17 4 30l-77 105l-75 -106c-9 -13 -9 -20 5 -30l31 -23l-26 -34l-138 99l25 35l31 -22c14 -10 23 -7 31 4l75 106l-122 39
c-15 5 -22 2 -27 -14l-14 -36l-41 15l54 162l40 -14l-11 -38c-6 -14 0 -22 14 -27l124 -40v125c0 16 -6 22 -22 22l-38 1v41h172v-41l-39 -1c-16 0 -23 -6 -23 -22v-126l120 39c15 5 19 13 13 28l-11 37l41 14z" />
    <glyph glyph-name="plus" unicode="+" horiz-adv-x="638" 
d="M571 352h-223v-225h-57v225h-224v56h224v218h57v-218h223v-56z" />
    <glyph glyph-name="comma" unicode="," horiz-adv-x="266" 
d="M216 30c0 -89 -74 -170 -158 -170h-11v44h9c51 0 78 30 78 62c0 21 -5 32 -29 41l-10 4c-24 9 -37 29 -37 58c0 39 30 69 68 69c53 0 90 -37 90 -108z" />
    <glyph glyph-name="hyphen" unicode="-" horiz-adv-x="485" 
d="M403 320h-325v74h325v-74z" />
    <glyph glyph-name="hyphen" unicode="&#xad;" horiz-adv-x="485" 
d="M403 320h-325v74h325v-74z" />
    <glyph glyph-name="period" unicode="." horiz-adv-x="266" 
d="M209 64c0 -42 -34 -75 -76 -75s-76 33 -76 75c0 41 34 76 76 76s76 -35 76 -76z" />
    <glyph glyph-name="slash" unicode="/" horiz-adv-x="479" 
d="M456 770l-369 -770h-59l368 770h60z" />
    <glyph glyph-name="zero" unicode="0" horiz-adv-x="608" 
d="M571 387c0 -219 -115 -395 -267 -395s-267 176 -267 395c0 218 115 390 267 390s267 -172 267 -390zM461 387c0 270 -57 345 -157 345s-157 -75 -157 -345c0 -271 57 -346 157 -346s157 75 157 346z" />
    <glyph glyph-name="one" unicode="1" horiz-adv-x="494" 
d="M463 0h-375v50h103c38 0 51 16 51 54v482c-56 -54 -119 -76 -214 -81v40c126 11 215 106 238 225h72v-666c0 -38 14 -54 52 -54h73v-50z" />
    <glyph glyph-name="two" unicode="2" horiz-adv-x="603" 
d="M559 192c0 -137 -61 -202 -151 -202c-38 0 -86 14 -126 55c-30 31 -54 50 -90 50c-50 0 -76 -34 -76 -95h-65v71c0 100 30 184 216 275c5 3 11 5 15 7c118 61 157 118 157 211c0 105 -56 161 -154 161c-108 0 -162 -70 -162 -142c8 4 19 5 28 5c38 0 65 -28 65 -64
c0 -41 -35 -66 -76 -66c-51 0 -88 32 -88 113c0 92 89 204 245 204c149 0 249 -86 249 -207c0 -103 -62 -167 -242 -258c-5 -3 -10 -5 -15 -8c-130 -65 -171 -114 -176 -175c0 -4 -1 -10 -1 -15c18 38 68 60 111 60c52 0 84 -22 123 -50c37 -27 66 -46 94 -46
c44 0 67 34 67 123v38h52v-45z" />
    <glyph glyph-name="three" unicode="3" horiz-adv-x="602" 
d="M534 215c0 -139 -114 -221 -268 -221c-128 0 -216 82 -216 176c0 50 28 89 78 89c34 0 61 -22 61 -62c0 -32 -27 -55 -66 -49c9 -61 56 -103 147 -103s157 42 157 169c0 104 -66 150 -171 150h-43v53h42c98 0 159 56 159 147c0 120 -65 163 -139 163
c-91 0 -131 -48 -136 -100c41 3 66 -16 66 -51s-24 -57 -61 -57c-45 0 -73 36 -73 92c0 78 83 166 213 166c125 0 237 -81 237 -209c0 -99 -72 -154 -159 -174c102 -23 172 -93 172 -179z" />
    <glyph glyph-name="four" unicode="4" horiz-adv-x="617" 
d="M576 0h-352v50h91c38 0 52 16 52 54v121h-320v58l330 487h86v-490h104v-55h-104v-121c0 -38 13 -54 51 -54h62v-50zM367 280v369l-252 -369h252z" />
    <glyph glyph-name="five" unicode="5" horiz-adv-x="579" 
d="M533 280c0 -182 -123 -289 -263 -289c-151 0 -228 98 -228 185c0 59 33 94 85 94c42 0 71 -23 71 -65c0 -39 -27 -63 -70 -65c0 -45 42 -103 145 -103c95 0 155 75 155 235c0 116 -65 193 -170 193c-84 0 -116 -53 -124 -98h-53l22 403s37 2 54 4c9 -18 48 -39 146 -39
c132 0 170 42 190 45c8 1 10 -2 8 -10c-4 -15 -29 -57 -70 -78c-54 -28 -102 -38 -169 -38c-54 0 -116 11 -116 11l-11 -207c31 33 78 59 157 59c146 0 241 -115 241 -237z" />
    <glyph glyph-name="six" unicode="6" horiz-adv-x="579" 
d="M547 234c0 -142 -111 -246 -240 -246c-134 0 -260 124 -260 375c0 271 125 413 278 413c109 0 197 -62 197 -154c0 -49 -31 -80 -77 -80c-43 0 -69 25 -69 67c0 37 32 58 60 58c-10 35 -42 63 -114 63c-104 0 -170 -101 -170 -310v-41c26 41 82 86 163 86
c142 0 232 -96 232 -231zM447 231c0 126 -66 186 -140 186c-78 0 -137 -66 -137 -184c0 -127 64 -199 142 -199c76 0 135 73 135 197z" />
    <glyph glyph-name="seven" unicode="7" horiz-adv-x="593" 
d="M543 666c0 -90 -27 -141 -128 -273c-77 -101 -85 -140 -85 -217c0 -161 -8 -187 -53 -187c-38 0 -54 28 -54 111c0 79 17 136 76 214c8 10 46 62 55 73c109 140 125 180 125 259v20c-29 -50 -64 -80 -114 -80c-105 0 -131 102 -190 102c-42 0 -65 -33 -65 -127v-57h-54
v75c0 133 46 203 128 203c98 0 112 -106 205 -106c58 0 89 48 89 103h65v-113z" />
    <glyph glyph-name="eight" unicode="8" horiz-adv-x="605" 
d="M558 222c0 -143 -118 -231 -273 -231c-137 0 -239 85 -239 205c0 73 37 142 149 186c-93 41 -143 96 -143 190c0 104 98 203 249 203c125 0 234 -78 234 -184c0 -81 -52 -149 -137 -183c129 -49 160 -130 160 -186zM446 581c0 78 -47 146 -152 146
c-92 0 -154 -60 -154 -142c0 -68 65 -101 133 -130c22 -9 50 -19 68 -25c89 39 105 101 105 151zM463 195c0 61 -35 100 -127 134c-30 11 -69 24 -80 24c-21 0 -122 -43 -122 -151c0 -99 56 -164 161 -164c111 0 168 66 168 157z" />
    <glyph glyph-name="nine" unicode="9" horiz-adv-x="589" 
d="M541 406c0 -271 -125 -414 -278 -414c-109 0 -200 60 -200 152c0 50 31 82 79 82c42 0 66 -29 66 -66s-28 -57 -60 -58c11 -36 46 -63 118 -63c104 0 170 101 170 310v35c-36 -60 -101 -85 -163 -85c-142 0 -232 101 -232 236c0 144 108 246 242 246
c136 0 258 -125 258 -375zM418 536c0 126 -64 198 -142 198c-76 0 -135 -73 -135 -196c0 -127 66 -191 140 -191c78 0 137 71 137 189z" />
    <glyph glyph-name="colon" unicode=":" horiz-adv-x="266" 
d="M209 434c0 -42 -34 -75 -76 -75s-76 33 -76 75s34 76 76 76s76 -34 76 -76zM209 65c0 -42 -34 -75 -76 -75s-76 33 -76 75c0 41 34 76 76 76s76 -35 76 -76z" />
    <glyph glyph-name="semicolon" unicode=";" horiz-adv-x="266" 
d="M213 434c0 -42 -34 -75 -76 -75s-76 33 -76 75s34 76 76 76s76 -34 76 -76zM216 30c0 -89 -74 -170 -158 -170h-11v44h9c51 0 78 30 78 62c0 21 -5 32 -29 41l-10 4c-24 9 -37 29 -37 58c0 39 30 69 68 69c53 0 90 -37 90 -108z" />
    <glyph glyph-name="less" unicode="&#x3c;" horiz-adv-x="570" 
d="M461 119l-36 -53l-334 244v60l330 255l31 -45l-296 -233z" />
    <glyph glyph-name="equal" unicode="=" horiz-adv-x="570" 
d="M516 392h-456v54h456v-54zM516 231h-456v53h456v-53z" />
    <glyph glyph-name="greater" unicode="&#x3e;" horiz-adv-x="570" 
d="M460 310l-334 -244l-35 44l306 225l-303 239l38 48l328 -252v-60z" />
    <glyph glyph-name="question" unicode="?" horiz-adv-x="513" 
d="M462 606c0 -82 -35 -130 -117 -202c-90 -79 -102 -106 -102 -153c0 -20 5 -49 5 -49s-41 -4 -54 -4c-4 16 -9 34 -9 57c0 58 21 100 112 188c50 49 70 96 70 164c0 85 -51 129 -120 129c-74 0 -116 -34 -124 -79c48 2 75 -24 75 -60c0 -34 -25 -63 -72 -63
c-45 0 -77 32 -77 84c0 82 82 167 198 167c133 0 215 -72 215 -179zM299 56c0 -40 -32 -71 -72 -71s-72 31 -72 71s32 72 72 72s72 -32 72 -72z" />
    <glyph glyph-name="at" unicode="@" horiz-adv-x="1028" 
d="M978 434c0 -201 -120 -324 -263 -324c-44 0 -88 31 -81 97c-26 -66 -89 -103 -170 -103c-102 0 -189 54 -189 216c0 157 127 273 250 273c64 0 104 -28 127 -64l22 59h73l-63 -329c-17 -87 6 -110 42 -110c109 0 211 94 211 285c0 199 -147 314 -388 314
c-238 0 -445 -161 -445 -417c0 -230 170 -378 416 -378c175 0 267 38 381 131l21 -33c-138 -103 -235 -136 -402 -136c-265 0 -458 159 -458 416c0 281 222 456 487 456c248 0 429 -129 429 -353zM641 485c-24 45 -60 67 -108 67c-80 0 -166 -108 -166 -245
c0 -122 42 -164 110 -164c59 0 110 40 124 120z" />
    <glyph glyph-name="A" unicode="A" horiz-adv-x="877" 
d="M868 0h-342v50h70c57 0 59 15 42 58l-51 131h-345l-49 -126c-21 -53 -16 -63 40 -63h72v-50h-296v50h22c68 0 74 8 102 78l254 642h102l256 -642c27 -68 42 -78 94 -78h29v-50zM566 292l-152 388l-152 -388h304z" />
    <glyph glyph-name="B" unicode="B" horiz-adv-x="779" 
d="M736 206c0 -144 -148 -206 -274 -206h-419v50h73c43 0 47 16 47 59v543c0 42 -4 68 -47 68h-73v50h396c172 0 271 -70 271 -199c0 -95 -70 -158 -160 -178c98 -4 186 -80 186 -187zM594 570c0 99 -59 150 -156 150h-121c-42 0 -47 -16 -47 -59v-245h168
c100 0 156 62 156 154zM610 207c0 95 -58 158 -156 158h-184v-256c0 -43 14 -59 57 -59h116c113 0 167 60 167 157z" />
    <glyph glyph-name="C" unicode="C" horiz-adv-x="798" 
d="M738 285c0 -193 -140 -306 -316 -306c-256 0 -379 199 -379 408c0 190 118 400 384 400c124 0 197 -65 227 -65c17 0 29 14 29 48h48v-290h-55v22c0 122 -114 229 -252 229c-161 0 -256 -110 -256 -344c0 -222 87 -353 256 -353c147 0 255 86 255 250v12h59v-11z" />
    <glyph glyph-name="D" unicode="D" horiz-adv-x="893" 
d="M860 389c0 -229 -163 -389 -398 -389h-419v50h73c43 0 47 26 47 69v545c0 43 -4 56 -47 56h-73v50h419c229 0 398 -160 398 -381zM734 390c0 170 -96 330 -280 330h-130c-45 0 -54 -13 -54 -56v-545c0 -43 5 -69 47 -69h122c223 0 295 134 295 340z" />
    <glyph glyph-name="E" unicode="E" horiz-adv-x="800" 
d="M757 0h-714v50h73c43 0 47 16 47 59v552c0 43 -4 59 -47 59h-73v50h707v-275h-55l-2 78c-2 97 -50 147 -148 147h-228c-42 0 -47 -16 -47 -59v-245h125c52 0 80 34 82 90l3 74h51v-382h-51l-3 96c-2 55 -30 72 -82 72h-125v-257c0 -43 5 -59 47 -59h195
c143 0 182 39 188 187l2 51h55v-288z" />
    <glyph glyph-name="F" unicode="F" horiz-adv-x="775" 
d="M737 481h-55l-2 85c-3 134 -64 154 -166 154h-197c-42 0 -47 -26 -47 -68v-244h112c52 0 87 35 88 90l2 77h51v-383h-51l-2 75c-2 62 -36 90 -88 90h-112v-248c0 -43 5 -59 47 -59h118v-50h-392v50h73c43 0 47 16 47 59v543c0 42 -4 68 -47 68h-73v50h694v-289z" />
    <glyph glyph-name="G" unicode="G" horiz-adv-x="878" 
d="M863 325h-59c-38 0 -48 -19 -48 -57v-271h-47l-32 97c-42 -64 -118 -115 -242 -115c-256 0 -397 201 -397 408c0 190 132 400 389 400c125 0 191 -56 225 -65c19 -5 31 14 31 48h48v-290h-55l-3 58c-6 125 -101 193 -249 193c-147 0 -261 -101 -261 -344
c0 -226 116 -353 276 -353c117 0 211 81 211 197v20c0 53 -12 71 -58 71h-99v53h370v-50z" />
    <glyph glyph-name="H" unicode="H" horiz-adv-x="953" 
d="M910 0h-348v50h74c42 0 47 16 47 59v254h-413v-254c0 -43 5 -59 47 -59h73v-50h-347v50h73c43 0 47 16 47 59v552c0 43 -4 59 -47 59h-73v50h347v-50h-73c-42 0 -47 -16 -47 -59v-239h413v239c0 43 -5 59 -47 59h-74v50h348v-50h-73c-43 0 -48 -16 -48 -59v-552
c0 -43 5 -59 48 -59h73v-50z" />
    <glyph glyph-name="I" unicode="I" horiz-adv-x="434" 
d="M391 0h-348v50h73c43 0 47 16 47 59v552c0 43 -4 59 -47 59h-73v50h348v-50h-74c-42 0 -47 -16 -47 -59v-552c0 -43 5 -59 47 -59h74v-50z" />
    <glyph glyph-name="J" unicode="J" horiz-adv-x="557" 
d="M533 720h-68c-42 0 -47 -16 -47 -59v-463c0 -139 -94 -210 -201 -210c-113 0 -192 73 -192 148c0 44 27 84 76 84c44 0 71 -30 71 -65c0 -31 -17 -47 -41 -54c-4 -1 -5 -2 -5 -6c0 -24 35 -55 92 -55c60 0 94 46 94 144v477c0 43 -5 59 -48 59h-94v50h363v-50z" />
    <glyph glyph-name="K" unicode="K" horiz-adv-x="914" 
d="M895 0h-365v50h74c21 0 33 9 33 18c0 10 -4 19 -15 32l-245 285l-107 -93v-183c0 -43 5 -59 47 -59h74v-50h-348v50h73c43 0 47 16 47 59v552c0 43 -4 59 -47 59h-73v50h348v-50h-74c-42 0 -47 -16 -47 -59v-292l335 302c15 13 22 24 22 33c0 11 -11 16 -29 16h-58v50
h308v-50h-42c-37 0 -54 -5 -97 -43l-258 -226l289 -335c43 -50 76 -66 118 -66h37v-50z" />
    <glyph glyph-name="L" unicode="L" horiz-adv-x="759" 
d="M721 0h-678v50h73c43 0 47 16 47 59v552c0 43 -4 59 -47 59h-73v50h378v-50h-104c-42 0 -47 -16 -47 -59v-552c0 -43 5 -59 47 -59h169c133 0 177 48 181 190l2 73h52v-313z" />
    <glyph glyph-name="M" unicode="M" horiz-adv-x="1138" 
d="M1095 0h-354v50h79c43 0 47 16 47 59v590l-298 -699h-43l-300 697v-578c0 -43 14 -69 57 -69h65v-50h-305v50h63c43 0 57 26 57 69v533c0 42 -14 68 -57 68h-63v50h266l261 -617l258 617h267v-50h-74c-43 0 -47 -16 -47 -59v-552c0 -43 4 -59 47 -59h74v-50z" />
    <glyph glyph-name="N" unicode="N" horiz-adv-x="973" 
d="M930 720h-61c-43 0 -57 -26 -57 -68v-652h-126l-455 673v-554c0 -43 14 -69 57 -69h86v-50h-331v50h62c43 0 57 26 57 69v533c0 42 -14 68 -57 68h-62v50h250l451 -681v563c0 42 -14 68 -57 68h-91v50h334v-50z" />
    <glyph glyph-name="O" unicode="O" horiz-adv-x="873" 
d="M835 392c0 -209 -154 -412 -401 -412c-243 0 -396 198 -396 407c0 212 166 399 400 399c241 0 397 -189 397 -394zM710 387c0 209 -118 344 -278 344c-148 0 -269 -129 -269 -339c0 -216 116 -357 276 -357c164 0 271 142 271 352z" />
    <glyph glyph-name="P" unicode="P" horiz-adv-x="743" 
d="M705 556c0 -144 -115 -226 -295 -226h-140v-211c0 -43 14 -69 57 -69h105v-50h-389v50h63c43 0 57 26 57 69v533c0 42 -14 68 -57 68h-63v50h374c182 0 288 -94 288 -214zM579 551c0 102 -53 169 -174 169h-78c-43 0 -57 -26 -57 -68v-267h116c155 0 193 73 193 166z" />
    <glyph glyph-name="Q" unicode="Q" horiz-adv-x="883" 
d="M865 29c0 -103 -62 -173 -153 -173c-79 0 -160 26 -185 135c-29 -7 -61 -11 -93 -11c-243 0 -396 198 -396 407c0 212 166 400 400 400c241 0 397 -190 397 -395c0 -148 -78 -294 -212 -365c35 -92 61 -108 106 -108c58 0 83 54 83 121v8h53v-19zM710 387
c0 209 -118 344 -278 344c-148 0 -269 -129 -269 -339c0 -86 19 -161 52 -219c19 68 85 116 165 116c107 0 171 -57 219 -195c70 60 111 163 111 293zM509 45c-30 133 -82 185 -146 185c-50 0 -105 -32 -107 -115c48 -51 111 -80 183 -80c25 0 48 3 70 10z" />
    <glyph glyph-name="R" unicode="R" horiz-adv-x="882" 
d="M851 132c0 -98 -45 -150 -126 -150c-68 0 -141 36 -148 132c-2 23 -6 61 -9 85c-12 103 -60 155 -167 155h-131v-235c0 -43 14 -69 57 -69h77v-50h-361v50h63c43 0 57 26 57 69v533c0 42 -14 68 -57 68h-63v50h400c177 0 294 -79 294 -207c0 -110 -97 -168 -195 -193
c103 -15 138 -106 143 -194l2 -38c4 -77 24 -99 57 -99c36 0 57 20 57 84v43h50v-34zM611 559c0 115 -82 161 -202 161h-82c-43 0 -57 -26 -57 -68v-247h144c112 0 197 40 197 154z" />
    <glyph glyph-name="S" unicode="S" horiz-adv-x="704" 
d="M658 218c0 -133 -133 -229 -293 -229c-135 0 -171 56 -222 56c-18 0 -25 -16 -25 -45h-50v294h56v-16c0 -139 94 -234 240 -234c118 0 197 59 197 157c0 73 -49 110 -212 137l-60 10c-142 24 -231 88 -231 212c0 112 92 227 272 227c135 0 171 -56 217 -56
c18 0 27 10 27 40h49v-275h-56v23c0 116 -79 211 -234 211c-95 0 -176 -46 -176 -146c0 -88 57 -116 196 -140l71 -12c140 -24 234 -81 234 -214z" />
    <glyph glyph-name="T" unicode="T" horiz-adv-x="810" 
d="M768 451h-56v146c0 80 -54 122 -134 122h-118v-600c0 -43 14 -69 57 -69h106v-50h-433v50h106c43 0 57 26 57 69v600h-120c-81 0 -135 -42 -135 -122v-146h-55v319h725v-319z" />
    <glyph glyph-name="U" unicode="U" horiz-adv-x="901" 
d="M863 720h-59c-45 0 -48 -15 -48 -58v-378c0 -199 -97 -304 -295 -304c-207 0 -307 104 -307 283v399c0 43 -5 58 -46 58h-74v50h348v-50h-76c-41 0 -46 -15 -46 -58v-397c0 -171 97 -228 212 -228c142 0 215 83 215 232v393c0 43 -6 58 -46 58h-76v50h298v-50z" />
    <glyph glyph-name="V" unicode="V" horiz-adv-x="864" 
d="M858 720h-25c-59 0 -80 -20 -102 -78l-244 -642h-101l-257 642c-23 58 -36 78 -94 78h-29v50l342 -3v-51h-83c-28 0 -46 -9 -29 -54l222 -568l211 563c16 42 4 59 -31 59h-71v51l291 3v-50z" />
    <glyph glyph-name="W" unicode="W" horiz-adv-x="1265" 
d="M1260 720h-25c-52 0 -75 -20 -97 -78l-249 -642h-101l-152 402l-158 -402h-102l-247 642c-22 56 -47 78 -94 78h-29v50l332 -3v-51h-60c-51 0 -59 -9 -42 -54l214 -572l154 394l-73 183c-17 42 -28 49 -75 49h-28v51h323v-51h-59c-52 0 -59 -14 -43 -58l213 -568l216 567
c16 42 12 59 -40 59h-69v51l291 3v-50z" />
    <glyph glyph-name="X" unicode="X" horiz-adv-x="856" 
d="M843 0h-348v50h87c32 0 46 14 19 48l-184 234l-188 -227c-25 -31 -18 -55 20 -55h69v-50h-306v50h26c39 0 76 13 104 46l237 284l-227 290c-26 33 -67 50 -102 50h-27v50l347 -3v-51h-57c-46 0 -51 -21 -25 -54l158 -203l177 212c26 31 14 45 -17 45h-80v51l306 3v-50
h-44c-26 0 -58 -10 -87 -45l-218 -264l238 -307c36 -46 68 -54 95 -54h27v-50z" />
    <glyph glyph-name="Y" unicode="Y" horiz-adv-x="841" 
d="M832 720h-33c-35 0 -59 -7 -79 -40l-238 -396v-165c0 -43 14 -69 57 -69h118v-50h-453v50h114c43 0 57 26 57 69v168l-242 387c-23 37 -51 46 -85 46h-39v50l347 -4v-51h-73c-34 0 -51 -18 -27 -56l194 -310l193 318c16 27 12 48 -26 48h-83v51l298 4v-50z" />
    <glyph glyph-name="Z" unicode="Z" horiz-adv-x="771" 
d="M733 714l-570 -664h319c142 0 187 48 187 190v54h55v-294h-677v59l568 661h-308c-143 0 -187 -47 -187 -190v-27h-55v267h668v-56z" />
    <glyph glyph-name="bracketleft" unicode="[" horiz-adv-x="451" 
d="M348 -149h-242v919h242v-47h-108c-33 0 -46 -20 -46 -71v-682c0 -52 12 -72 46 -72h108v-47z" />
    <glyph glyph-name="backslash" unicode="\" horiz-adv-x="485" 
d="M457 0h-61l-369 770h60z" />
    <glyph glyph-name="bracketright" unicode="]" horiz-adv-x="451" 
d="M345 -149h-241v47h107c34 0 46 20 46 72v682c0 51 -13 71 -46 71h-107v47h241v-919z" />
    <glyph glyph-name="asciicircum" unicode="^" horiz-adv-x="605" 
d="M544 552l-34 -38l-206 192l-206 -192l-34 38l192 218h96z" />
    <glyph glyph-name="underscore" unicode="_" horiz-adv-x="617" 
d="M617 -192h-617v62h617v-62z" />
    <glyph glyph-name="grave" unicode="`" horiz-adv-x="475" 
d="M311 586l-25 -31l-159 102l56 66z" />
    <glyph glyph-name="a" unicode="a" horiz-adv-x="589" 
d="M575 102c0 -60 -29 -114 -98 -114c-68 0 -93 31 -108 81c-40 -59 -92 -81 -159 -81c-101 0 -167 48 -167 139c0 101 99 122 157 132l56 10c84 15 109 29 109 83c0 76 -43 110 -109 110c-69 0 -106 -21 -106 -64c22 0 44 -17 44 -47c0 -28 -14 -56 -60 -56
c-32 0 -65 20 -65 76c0 89 92 137 188 137c101 0 195 -44 195 -147v-258c0 -52 18 -65 37 -65c22 0 42 14 42 65v43h44v-44zM366 194v80c-23 -29 -83 -49 -137 -59c-59 -11 -91 -36 -91 -88s26 -92 94 -92c79 0 134 74 134 159z" />
    <glyph glyph-name="b" unicode="b" horiz-adv-x="609" 
d="M565 246c0 -152 -106 -260 -234 -260c-92 0 -142 50 -165 103l-19 -89l-62 2v676c0 27 -14 45 -38 45h-54v47l179 4v-364c19 39 76 94 170 94c108 0 223 -80 223 -258zM460 256c0 119 -51 200 -141 200c-73 0 -133 -63 -145 -136c-2 -12 -5 -107 -1 -131
c13 -84 55 -154 146 -154c90 0 141 79 141 221z" />
    <glyph glyph-name="c" unicode="c" horiz-adv-x="540" 
d="M512 175c-2 -89 -77 -182 -218 -182c-145 0 -257 112 -257 260c0 152 128 255 255 255c109 0 202 -66 202 -148c0 -48 -25 -83 -70 -83c-38 0 -64 25 -64 58c0 38 33 55 59 52c-15 39 -53 74 -130 74c-95 0 -152 -79 -152 -210c0 -122 59 -210 163 -210
c99 0 154 74 161 136h51v-2z" />
    <glyph glyph-name="d" unicode="d" horiz-adv-x="640" 
d="M621 0l-173 -4v90c-23 -56 -90 -103 -180 -103c-133 0 -230 106 -230 263c0 178 132 257 240 257c85 0 141 -45 166 -85v250c0 38 -16 47 -46 47h-74v51l206 3v-674c0 -31 13 -44 39 -45l52 -1v-49zM443 214c1 18 2 75 0 91c-9 89 -75 150 -153 150
c-91 0 -153 -80 -153 -199c0 -142 62 -224 153 -224c90 0 145 74 153 182z" />
    <glyph glyph-name="e" unicode="e" horiz-adv-x="552" 
d="M517 239h-380v-2c0 -112 63 -194 165 -194c99 0 152 69 159 130h51c0 -77 -80 -180 -216 -180c-140 0 -260 101 -260 255c0 157 112 260 255 260c115 0 226 -81 226 -247v-22zM426 280v2c0 81 -33 177 -141 177c-100 0 -147 -90 -147 -176v-3h288z" />
    <glyph glyph-name="f" unicode="f" horiz-adv-x="385" 
d="M447 655c0 -38 -25 -63 -59 -63s-56 23 -56 50c0 18 6 37 24 48c3 2 10 3 10 7c0 13 -10 34 -61 34c-58 0 -86 -45 -86 -118v-127h123v-50h-124v-343c0 -35 6 -42 35 -43l85 -2v-48h-300v48l64 2c24 1 30 10 30 37v349h-94v50h69c15 0 25 8 25 26v39
c0 124 42 226 175 226c86 0 140 -57 140 -122z" />
    <glyph glyph-name="g" unicode="g" horiz-adv-x="589" 
d="M583 548c0 -35 -24 -57 -61 -57c-29 0 -52 19 -58 36c-9 -9 -12 -26 -12 -45c0 -22 5 -42 15 -60c7 -12 22 -34 22 -79c0 -107 -97 -161 -208 -161c-73 0 -96 13 -103 13c-19 0 -47 -18 -47 -49c0 -77 112 -43 279 -57c119 -10 157 -73 157 -135
c0 -115 -130 -171 -282 -171c-155 0 -252 59 -252 138c0 62 43 92 95 107c-50 19 -76 42 -76 93c0 34 32 69 85 93c-36 20 -75 49 -75 129c0 90 75 160 217 160c58 0 107 -18 138 -39c-4 8 -5 23 -5 35c0 61 42 111 106 111c44 0 65 -27 65 -62zM392 341
c0 52 -16 125 -117 125c-100 0 -116 -73 -116 -125s16 -122 116 -122c101 0 117 70 117 122zM488 -69c0 48 -23 82 -190 82c-45 0 -73 -1 -103 2c-41 -12 -81 -40 -81 -88c0 -69 52 -102 173 -102c145 0 201 52 201 106z" />
    <glyph glyph-name="h" unicode="h" horiz-adv-x="674" 
d="M655 0h-272v50h63c27 0 33 10 33 40v252c0 61 -41 105 -107 105c-92 0 -158 -67 -158 -225v-132c0 -30 16 -40 43 -40h51v-50h-275v50h58c28 0 36 10 36 40v594c0 25 -5 36 -32 36h-62v50l178 5v-385c32 76 112 113 189 113c103 0 165 -54 165 -159v-254
c0 -30 6 -40 33 -40h57v-50z" />
    <glyph glyph-name="i" unicode="i" horiz-adv-x="332" 
d="M236 695c0 -38 -32 -68 -70 -68s-69 30 -69 68s31 70 69 70s70 -32 70 -70zM313 0h-275v50h61c27 0 33 10 33 40v306c0 26 -16 40 -39 40h-55v50l180 3v-399c0 -30 13 -40 40 -40h55v-50z" />
    <glyph glyph-name="j" unicode="j" horiz-adv-x="290" 
d="M222 695c0 -38 -31 -68 -69 -68s-69 30 -69 68s31 70 69 70s69 -32 69 -70zM215 -40c0 -120 -44 -196 -142 -196c-60 0 -105 34 -105 82c0 33 21 65 62 65c38 0 58 -24 58 -52c0 -21 -9 -31 -14 -33c3 -6 10 -11 21 -11c22 0 49 35 49 96c0 64 -26 98 -26 137v343
c0 26 -12 45 -36 45h-58v50l180 3v-365c0 -64 11 -101 11 -164z" />
    <glyph glyph-name="k" unicode="k" horiz-adv-x="673" 
d="M663 0h-270v50h46c27 0 30 25 16 41l-145 166l-71 -57c-20 -16 -25 -32 -25 -54v-57c0 -27 7 -39 33 -39h61v-50h-275v50h63c24 0 31 11 31 39v586c0 26 -14 45 -39 45h-55v50l181 3v-532l202 164c16 13 11 28 -9 28h-74v51l282 2v-50h-37c-37 0 -40 0 -77 -23
c0 0 -136 -111 -137 -111l185 -209c29 -33 65 -43 99 -43h15v-50z" />
    <glyph glyph-name="l" unicode="l" horiz-adv-x="332" 
d="M313 0h-275v50h54c24 0 40 18 40 47v578c0 26 -14 45 -39 45h-55v50l180 4v-677c0 -28 18 -47 43 -47h52v-50z" />
    <glyph glyph-name="m" unicode="m" horiz-adv-x="1016" 
d="M997 0h-272v50h53c28 0 43 19 43 50v242c0 61 -36 105 -102 105c-92 0 -154 -85 -154 -243v-104c0 -31 15 -50 43 -50h47v-50h-272v50h53c28 0 43 19 43 50v242c0 61 -36 105 -102 105c-92 0 -154 -84 -154 -243v-104c0 -31 15 -50 43 -50h51v-50h-274v50h51
c28 0 43 19 43 50v290c0 25 -13 46 -39 46h-55v50h177v-114c30 80 98 131 177 131c90 0 156 -38 167 -126c33 79 98 126 175 126c99 0 168 -45 168 -151v-252c0 -31 15 -50 43 -50h47v-50z" />
    <glyph glyph-name="n" unicode="n" horiz-adv-x="683" 
d="M664 0h-272v50h54c27 0 42 19 42 50v242c0 61 -41 105 -106 105c-92 0 -159 -66 -159 -224v-123c0 -31 15 -50 43 -50h51v-50h-274v50h51c28 0 43 19 43 50v290c0 25 -13 46 -39 46h-55v50l177 4v-94c36 72 110 107 188 107c106 0 167 -53 167 -158v-245
c0 -31 15 -50 42 -50h47v-50z" />
    <glyph glyph-name="o" unicode="o" horiz-adv-x="580" 
d="M544 259c0 -142 -113 -266 -255 -266c-143 0 -253 116 -253 259c0 142 116 256 258 256c143 0 250 -106 250 -249zM445 249c0 157 -82 212 -153 212c-72 0 -156 -49 -156 -205c0 -157 84 -215 156 -215c71 0 153 51 153 208z" />
    <glyph glyph-name="p" unicode="p" horiz-adv-x="640" 
d="M604 243c0 -177 -126 -258 -240 -258c-90 0 -149 46 -169 84v-167c0 -30 15 -49 42 -49h78v-51h-301v51h52c27 0 42 19 42 49v487c0 30 -13 47 -39 47h-55v50h178v-62c26 40 81 79 168 79c143 0 244 -112 244 -260zM503 233c0 142 -64 221 -154 221
c-91 0 -141 -63 -154 -119c-5 -24 -1 -152 2 -165c18 -86 78 -137 152 -137c90 0 154 81 154 200z" />
    <glyph glyph-name="q" unicode="q" horiz-adv-x="613" 
d="M632 -198h-303v50l70 3c26 1 43 16 43 46v178c-19 -39 -80 -94 -171 -94c-124 0 -235 81 -235 258c0 152 116 260 244 260c92 0 141 -39 169 -95l21 84l58 -6v-587c0 -30 15 -46 43 -46h61v-51zM439 163c5 17 6 129 0 155c-20 89 -69 136 -151 136
c-90 0 -153 -79 -153 -221c0 -119 63 -200 153 -200c67 0 127 49 151 130z" />
    <glyph glyph-name="r" unicode="r" horiz-adv-x="534" 
d="M505 385c0 -50 -29 -83 -70 -83s-67 19 -67 55c0 38 31 54 55 52c0 0 -5 47 -64 47c-83 0 -141 -115 -141 -246v-110c0 -31 17 -50 44 -50h80v-50h-304v50h54c24 0 40 18 40 47v293c0 25 -12 46 -39 46h-55v50l178 5v-112c22 68 89 124 155 124c76 0 134 -44 134 -118z
" />
    <glyph glyph-name="s" unicode="s" horiz-adv-x="496" 
d="M460 144c0 -110 -107 -155 -189 -155c-79 0 -135 33 -150 41c-15 0 -20 -12 -20 -30h-42v203h45v-20c0 -85 67 -149 168 -149c66 0 111 40 111 88c0 46 -18 72 -116 94l-48 11c-105 24 -163 53 -163 134c0 78 62 146 181 146c82 0 124 -33 138 -41c17 0 24 15 24 37h38
v-195h-44v23c0 83 -70 133 -152 133c-71 0 -112 -27 -112 -75c0 -46 29 -55 110 -76l72 -19c102 -27 149 -74 149 -150z" />
    <glyph glyph-name="t" unicode="t" horiz-adv-x="461" 
d="M423 164c0 -103 -53 -177 -156 -177c-107 0 -149 64 -149 167v282h-104v50h30c76 0 109 23 113 165h48v-165h177v-50h-178v-290c0 -74 31 -109 86 -109c61 0 88 58 88 127v63h45v-63z" />
    <glyph glyph-name="u" unicode="u" horiz-adv-x="655" 
d="M636 0h-178v114c-31 -81 -103 -131 -182 -131c-98 0 -172 45 -172 151v253c0 37 -21 49 -43 49h-47v50h176v-342c0 -65 41 -105 106 -105c93 0 159 85 159 243v105c0 31 -15 49 -44 49h-50v50h180v-390c0 -25 13 -46 39 -46h56v-50z" />
    <glyph glyph-name="v" unicode="v" horiz-adv-x="590" 
d="M582 436h-27c-37 0 -48 -11 -61 -42l-162 -394h-79l-159 385c-14 34 -32 51 -56 51h-33v50h259v-50h-62c-22 0 -33 -13 -23 -39l130 -327l129 324c10 26 3 42 -24 42h-52v50h220v-50z" />
    <glyph glyph-name="w" unicode="w" horiz-adv-x="865" 
d="M861 436h-16c-38 0 -49 -11 -61 -42l-153 -394h-79l-109 265l-107 -265h-79l-153 385c-14 35 -33 51 -57 51h-42v50h245v-50h-43c-23 0 -34 -14 -24 -39l130 -327l98 270l-18 45c-14 35 -32 51 -56 51h-20v50h237v-50h-52c-23 0 -34 -13 -24 -39l130 -327l120 324
c3 8 3 16 3 22c0 12 -9 20 -27 20h-57v50h214v-50z" />
    <glyph glyph-name="x" unicode="x" horiz-adv-x="610" 
d="M596 0h-268v50h61c24 0 23 24 13 35l-112 128l-114 -131c-14 -16 -2 -32 13 -32h41v-50h-216v50h15c32 0 72 26 97 54l130 147l-128 146c-28 32 -61 39 -89 39h-18v50h269v-50h-46c-24 0 -29 -21 -15 -37l99 -113l105 119c13 15 5 31 -14 31h-41v50h213v-50h-22
c-18 0 -52 -9 -70 -30c0 0 -137 -158 -137 -159l128 -145c34 -38 54 -52 85 -52h21v-50z" />
    <glyph glyph-name="y" unicode="y" horiz-adv-x="588" 
d="M583 436h-24c-41 0 -47 -11 -71 -68l-154 -370c-65 -156 -106 -211 -197 -211c-76 0 -128 45 -128 103c0 38 24 71 70 71c36 0 60 -26 60 -58c0 -21 -15 -34 -27 -43c3 -15 13 -29 33 -29c46 0 79 9 136 169h-20l-157 372c-19 44 -35 64 -63 64h-36v50h254v-50h-53
c-25 0 -34 -15 -24 -38l134 -319l127 315c3 7 4 14 4 19c0 14 -10 23 -26 23h-54v50h216v-50z" />
    <glyph glyph-name="z" unicode="z" horiz-adv-x="495" 
d="M466 0h-433v55l329 381h-190c-47 0 -73 -37 -73 -84v-38h-48v172h414v-49l-336 -387h192c62 0 98 29 98 76v69h47v-195z" />
    <glyph glyph-name="braceleft" unicode="{" horiz-adv-x="427" 
d="M378 -198h-70c-84 0 -165 22 -165 124v277c0 65 -4 86 -54 86h-42v61h42c49 0 54 20 54 76v221c0 102 81 123 165 123h70v-45h-77c-52 0 -64 -13 -64 -75v-167c0 -103 -18 -155 -74 -158l-35 -2v-8l35 -2c55 -3 74 -38 74 -173v-212c0 -62 12 -75 64 -75h77v-51z" />
    <glyph glyph-name="bar" unicode="|" horiz-adv-x="393" 
d="M225 -202h-54v1016h54v-1016z" />
    <glyph glyph-name="braceright" unicode="}" horiz-adv-x="427" 
d="M380 289h-42c-49 0 -54 -21 -54 -86v-277c0 -102 -81 -124 -164 -124h-71v51h77c53 0 64 13 64 75v212c0 135 20 170 74 173l35 2v8l-35 2c-56 3 -74 55 -74 158v167c0 62 -11 75 -64 75h-77v45h71c83 0 164 -21 164 -123v-221c0 -56 6 -76 54 -76h42v-61z" />
    <glyph glyph-name="asciitilde" unicode="~" horiz-adv-x="446" 
d="M390 674c0 -51 -25 -90 -77 -90c-43 0 -154 89 -185 89c-21 0 -26 -24 -26 -45v-42h-50v56c0 51 27 91 78 91c44 0 156 -89 184 -89c21 0 28 25 28 46v41h48v-57z" />
    <glyph glyph-name="exclamdown" unicode="&#xa1;" horiz-adv-x="286" 
d="M216 531c0 -40 -33 -72 -73 -72c-39 0 -72 32 -72 72s33 71 72 71c40 0 73 -31 73 -71zM201 -60c0 -79 -12 -138 -59 -138s-58 60 -58 138c0 70 13 142 20 209c8 79 14 187 14 251h48c0 -64 6 -171 14 -251c7 -67 21 -139 21 -209z" />
    <glyph glyph-name="cent" unicode="&#xa2;" horiz-adv-x="556" 
d="M513 260c0 -65 -75 -168 -194 -180v-89h-50v89c-132 13 -231 120 -231 258c0 143 113 242 231 255v72h50v-72c102 -11 176 -75 176 -147c0 -49 -25 -83 -70 -83c-38 0 -64 25 -64 58c0 38 33 55 59 51c-18 38 -52 74 -127 74c-95 0 -155 -79 -155 -210
c0 -121 59 -210 163 -210c99 0 154 74 161 136h51v-2z" />
    <glyph glyph-name="sterling" unicode="&#xa3;" horiz-adv-x="677" 
d="M637 193c0 -130 -52 -203 -154 -203c-88 0 -132 73 -191 125c-12 -79 -68 -126 -143 -126c-72 0 -118 55 -118 113c0 65 55 114 132 114c23 0 44 -3 64 -8c-9 32 -26 63 -44 93c1 0 -123 0 -123 0v51h93c-36 61 -69 125 -69 204c0 145 122 230 270 230
c149 0 236 -99 236 -206c0 -72 -35 -110 -85 -110c-53 0 -75 26 -75 66c0 42 39 74 91 57c-6 93 -54 142 -160 142s-174 -60 -174 -179c0 -82 26 -144 51 -204h183v-51h-161c12 -28 24 -58 31 -90c2 -10 1 -19 2 -29c79 -41 134 -108 198 -108c66 0 95 31 95 123v40h51v-44z
M237 151c-20 10 -45 15 -74 15c-55 0 -79 -30 -79 -64c0 -40 26 -64 66 -64c61 0 86 42 87 113z" />
    <glyph glyph-name="currency" unicode="&#xa4;" horiz-adv-x="718" 
d="M696 285c0 -214 -151 -306 -290 -306c-151 0 -283 93 -326 273h-69v61h58c-3 23 -4 48 -4 74c0 16 1 32 1 48h-55v61h65c34 153 142 291 334 291c133 0 264 -63 264 -185c0 -58 -38 -82 -75 -82c-52 0 -74 35 -74 69s26 63 61 61c-10 28 -45 86 -176 86
c-120 0 -199 -81 -220 -240h249v-61h-255c-1 -15 -1 -31 -1 -48c0 -27 1 -52 3 -74h253v-61h-244c27 -146 104 -218 213 -218c125 0 229 77 229 250v12h59v-11z" />
    <glyph glyph-name="yen" unicode="&#xa5;" horiz-adv-x="804" 
d="M775 720h-30c-32 0 -52 -6 -71 -40c0 0 -100 -184 -101 -184h190v-61h-223c1 0 -44 -81 -67 -122h271v-61h-284v-133c0 -43 12 -69 51 -69h106v-50h-407v50h103c38 0 51 26 51 69v133h-298v61h285l-69 122h-235v61h200c1 0 -101 178 -101 178c-21 37 -46 46 -76 46h-36
v50h313v-50h-66c-31 0 -45 -18 -24 -56l174 -313l174 321c15 27 11 48 -24 48h-75v50h269v-50z" />
    <glyph glyph-name="brokenbar" unicode="&#xa6;" 
d="M754 294l-234 -29l-100 -210l-99 211l-233 29l171 163l-42 228l205 -111l205 111l-44 -230zM584 350l-82 78l21 115l-100 -54l-103 55l22 -114l-84 -79l114 -14l49 -105l49 104z" />
    <glyph glyph-name="section" unicode="&#xa7;" horiz-adv-x="585" 
d="M518 362c0 -54 -40 -95 -79 -125c21 -25 29 -56 29 -96c0 -90 -80 -150 -182 -150c-108 0 -173 59 -173 120c0 41 31 76 69 76c33 0 64 -15 64 -53c0 -28 -14 -47 -36 -56c4 -17 21 -46 80 -46s87 39 87 92c0 59 -45 82 -153 115c-130 40 -166 74 -166 165
c0 54 40 95 79 125c-21 25 -30 55 -30 96c0 82 88 150 183 150c108 0 173 -60 173 -120c0 -41 -32 -76 -70 -76c-32 0 -63 15 -63 53c0 27 14 46 36 56c-4 17 -21 45 -80 45s-87 -39 -87 -92c0 -59 44 -82 152 -115c131 -40 167 -74 167 -164zM450 340c0 51 -40 73 -122 97
c-77 23 -130 42 -166 68c-20 -21 -37 -50 -37 -79c0 -52 40 -74 123 -97c77 -21 130 -42 165 -69c21 22 37 51 37 80z" />
    <glyph glyph-name="dieresis" unicode="&#xa8;" horiz-adv-x="475" 
d="M386 628c0 -28 -23 -50 -52 -50c-27 0 -50 22 -50 50c0 27 23 50 50 50c29 0 52 -23 52 -50zM188 628c0 -28 -23 -50 -51 -50s-51 22 -51 50c0 27 23 50 51 50s51 -23 51 -50z" />
    <glyph glyph-name="copyright" unicode="&#xa9;" horiz-adv-x="998" 
d="M920 349c0 -231 -188 -418 -418 -418c-231 0 -418 187 -418 418c0 230 187 418 418 418c230 0 418 -188 418 -418zM881 349c0 209 -170 379 -379 379s-379 -170 -379 -379s170 -379 379 -379s379 170 379 379zM704 280c0 -115 -86 -199 -200 -199
c-166 0 -252 137 -252 265c0 123 78 264 250 264c80 0 128 -42 147 -42c11 0 19 10 19 31h32v-189h-36v15c0 79 -74 150 -164 150c-105 0 -169 -76 -169 -229c0 -151 67 -229 175 -229c96 0 160 66 160 162v8h38v-7z" />
    <glyph glyph-name="ordfeminine" unicode="&#xaa;" horiz-adv-x="578" 
d="M526 457c0 -48 -23 -91 -82 -91c-58 0 -80 25 -93 65c-34 -47 -77 -65 -134 -65c-86 0 -143 41 -143 114c0 80 86 96 134 104l48 8c72 12 92 27 92 64c0 61 -36 91 -92 91c-59 0 -91 -15 -91 -49c19 0 37 -14 37 -37s-11 -45 -50 -45c-28 0 -55 15 -55 60
c0 73 78 107 159 107c86 0 167 -37 167 -120v-205c0 -41 15 -51 31 -51c18 0 35 11 35 51v35h37v-36zM465 290h-378v36h378v-36zM349 536v61c-19 -23 -71 -42 -116 -49c-51 -8 -78 -26 -78 -68s23 -76 80 -76c67 0 114 63 114 132z" />
    <glyph glyph-name="guillemotleft" unicode="&#xab;" horiz-adv-x="762" 
d="M712 21l-378 231v49l378 230v-63l-285 -192l285 -191v-64zM425 21l-378 231v49l378 230v-63l-286 -192l286 -191v-64z" />
    <glyph glyph-name="logicalnot" unicode="&#xac;" horiz-adv-x="631" 
d="M559 140h-51l-1 45c-1 23 -10 33 -31 33h-126v-135c0 -18 11 -32 32 -32l47 -1v-50h-228v50l49 1c23 0 32 11 32 32v135h-127c-18 0 -32 -12 -32 -33v-45h-51v221h51v-51c0 -23 11 -33 32 -33h127v127c0 18 -11 31 -32 31l-49 1v50h228v-50l-47 -1c-23 0 -32 -10 -32 -31
v-127h126c18 0 31 12 31 33l1 51h51v-221z" />
    <glyph glyph-name="registered" unicode="&#xae;" horiz-adv-x="998" 
d="M920 349c0 -231 -188 -418 -418 -418c-231 0 -418 187 -418 418c0 230 187 418 418 418c230 0 418 -188 418 -418zM881 349c0 209 -170 379 -379 379s-379 -170 -379 -379s170 -379 379 -379s379 170 379 379zM763 198c0 -58 -28 -90 -76 -90c-44 0 -82 21 -89 83
c-2 16 -2 32 -4 47c-6 59 -34 94 -101 94h-79v-142c0 -26 9 -41 34 -41h47v-30h-217v30h38c26 0 35 15 35 41v321c0 26 -9 41 -35 41h-38v30h240c106 0 176 -49 176 -125c0 -67 -58 -101 -116 -116c61 -9 81 -66 85 -125l1 -15c3 -46 14 -59 34 -59c22 0 34 12 34 51v25h31
v-20zM618 454c0 68 -48 98 -120 98h-50c-25 0 -34 -15 -34 -41v-149h87c67 0 117 24 117 92z" />
    <glyph glyph-name="macron" unicode="&#xaf;" horiz-adv-x="475" 
d="M402 577h-329v72h329v-72z" />
    <glyph glyph-name="macron" unicode="&#x2c9;" horiz-adv-x="475" 
d="M402 577h-329v72h329v-72z" />
    <glyph glyph-name="degree" unicode="&#xb0;" horiz-adv-x="410" 
d="M368 624c0 -89 -74 -162 -163 -162s-162 73 -162 162s73 163 162 163s163 -74 163 -163zM325 624c0 66 -54 121 -120 121c-65 0 -119 -56 -119 -121s54 -120 119 -120s120 55 120 120z" />
    <glyph glyph-name="plusminus" unicode="&#xb1;" horiz-adv-x="1016" 
d="M997 0h-275v50h59c24 0 35 14 35 42v501c-4 -1 -7 -1 -10 -1c-36 0 -59 23 -59 50c0 21 7 44 33 51c0 0 -27 38 -97 38c-58 0 -122 -32 -122 -118v-127h123v-50h-124v-338c0 -35 11 -48 39 -48h57v-50h-276v50h59c25 0 35 15 35 42v344h-256v-338c0 -35 11 -48 39 -48h57
v-50h-276v50h59c25 0 35 15 35 42v344h-94v50h60c21 0 34 14 34 36v29c0 147 75 226 211 226c87 0 148 -33 170 -77c35 50 93 77 172 77c55 0 95 -12 124 -32l93 25v-678c0 -27 13 -42 38 -42h57v-50zM476 592c-38 -4 -67 21 -67 50c0 21 8 44 34 51c0 0 -32 38 -102 38
c-58 0 -122 -32 -122 -118v-127h221c21 0 35 13 35 36c0 41 0 63 1 70z" />
    <glyph glyph-name="twosuperior" unicode="&#xb2;" 
d="M754 294l-234 -29l-100 -210l-99 211l-233 29l171 163l-42 228l205 -111l205 111l-44 -230zM584 350l-82 78l21 115l-100 -54l-103 55l22 -114l-84 -79l114 -14l49 -105l49 104z" />
    <glyph glyph-name="threesuperior" unicode="&#xb3;" 
d="M754 294l-234 -29l-100 -210l-99 211l-233 29l171 163l-42 228l205 -111l205 111l-44 -230zM584 350l-82 78l21 115l-100 -54l-103 55l22 -114l-84 -79l114 -14l49 -105l49 104z" />
    <glyph glyph-name="acute" unicode="&#xb4;" horiz-adv-x="475" 
d="M347 657l-158 -102l-26 31l128 137z" />
    <glyph glyph-name="mu" unicode="&#xb5;" 
d="M754 294l-234 -29l-100 -210l-99 211l-233 29l171 163l-42 228l205 -111l205 111l-44 -230zM584 350l-82 78l21 115l-100 -54l-103 55l22 -114l-84 -79l114 -14l49 -105l49 104z" />
    <glyph glyph-name="mu" unicode="&#x3bc;" 
d="M754 294l-234 -29l-100 -210l-99 211l-233 29l171 163l-42 228l205 -111l205 111l-44 -230zM584 350l-82 78l21 115l-100 -54l-103 55l22 -114l-84 -79l114 -14l49 -105l49 104z" />
    <glyph glyph-name="paragraph" unicode="&#xb6;" horiz-adv-x="703" 
d="M676 720h-55c-33 0 -40 -7 -40 -53v-679h-47v698c0 27 -12 35 -43 35s-43 -9 -43 -35v-698h-45v325h-109c-134 0 -247 85 -247 235c0 151 141 222 293 222h336v-50zM403 363v285c0 64 -12 72 -55 72h-18c-70 0 -131 -49 -131 -166c0 -120 31 -191 139 -191h65z" />
    <glyph glyph-name="periodcentered" unicode="&#xb7;" horiz-adv-x="335" 
d="M252 386c0 -44 -36 -79 -80 -79c-47 0 -83 37 -83 82c0 44 39 77 84 77c42 0 79 -37 79 -80z" />
    <glyph glyph-name="periodcentered" unicode="&#x2219;" horiz-adv-x="335" 
d="M252 386c0 -44 -36 -79 -80 -79c-47 0 -83 37 -83 82c0 44 39 77 84 77c42 0 79 -37 79 -80z" />
    <glyph glyph-name="cedilla" unicode="&#xb8;" horiz-adv-x="475" 
d="M317 -131c0 -33 -30 -63 -77 -63c-24 0 -42 8 -67 21l7 26c16 -9 29 -12 38 -12c21 0 31 15 31 30c0 30 -18 43 -51 51l19 69h31l-11 -40l19 -7c41 -15 61 -38 61 -75z" />
    <glyph glyph-name="onesuperior" unicode="&#xb9;" 
d="M754 294l-234 -29l-100 -210l-99 211l-233 29l171 163l-42 228l205 -111l205 111l-44 -230zM584 350l-82 78l21 115l-100 -54l-103 55l22 -114l-84 -79l114 -14l49 -105l49 104z" />
    <glyph glyph-name="ordmasculine" unicode="&#xba;" horiz-adv-x="568" 
d="M501 581c0 -114 -96 -212 -218 -212c-121 0 -215 93 -215 207s99 205 220 205s213 -86 213 -200zM481 290h-392v36h392v-36zM416 574c0 125 -69 169 -130 169s-133 -39 -133 -164c0 -126 72 -172 133 -172s130 41 130 167z" />
    <glyph glyph-name="guillemotright" unicode="&#xbb;" horiz-adv-x="762" 
d="M712 252l-377 -231v64l286 191l-286 192v63l377 -230v-49zM426 252l-379 -231v64l286 191l-286 192v63l379 -230v-49z" />
    <glyph glyph-name="onequarter" unicode="&#xbc;" 
d="M754 294l-234 -29l-100 -210l-99 211l-233 29l171 163l-42 228l205 -111l205 111l-44 -230zM584 350l-82 78l21 115l-100 -54l-103 55l22 -114l-84 -79l114 -14l49 -105l49 104z" />
    <glyph glyph-name="onehalf" unicode="&#xbd;" 
d="M754 294l-234 -29l-100 -210l-99 211l-233 29l171 163l-42 228l205 -111l205 111l-44 -230zM584 350l-82 78l21 115l-100 -54l-103 55l22 -114l-84 -79l114 -14l49 -105l49 104z" />
    <glyph glyph-name="threequarters" unicode="&#xbe;" 
d="M754 294l-234 -29l-100 -210l-99 211l-233 29l171 163l-42 228l205 -111l205 111l-44 -230zM584 350l-82 78l21 115l-100 -54l-103 55l22 -114l-84 -79l114 -14l49 -105l49 104z" />
    <glyph glyph-name="questiondown" unicode="&#xbf;" horiz-adv-x="513" 
d="M377 531c0 -40 -32 -72 -72 -72s-72 32 -72 72s32 71 72 71s72 -31 72 -71zM483 -31c0 -82 -82 -167 -198 -167c-133 0 -215 72 -215 179c0 82 34 130 117 202c90 79 102 106 102 153c0 20 -5 49 -5 49s41 4 54 4c4 -16 9 -34 9 -57c0 -58 -21 -100 -112 -188
c-50 -49 -70 -96 -70 -164c0 -84 51 -129 120 -129c74 0 116 34 124 79c-48 -2 -75 24 -75 61c0 33 25 62 72 62c45 0 77 -32 77 -84z" />
    <glyph glyph-name="Agrave" unicode="&#xc0;" horiz-adv-x="877" 
d="M868 0h-342v50h70c57 0 59 15 42 58l-51 131h-345l-49 -126c-21 -53 -16 -63 40 -63h72v-50h-296v50h22c68 0 74 8 102 78l254 642h102l256 -642c27 -68 42 -78 94 -78h29v-50zM566 292l-152 388l-152 -388h304zM454 825l-25 -31l-159 102l56 66z" />
    <glyph glyph-name="Aacute" unicode="&#xc1;" horiz-adv-x="877" 
d="M868 0h-342v50h70c57 0 59 15 42 58l-51 131h-345l-49 -126c-21 -53 -16 -63 40 -63h72v-50h-296v50h22c68 0 74 8 102 78l254 642h102l256 -642c27 -68 42 -78 94 -78h29v-50zM566 292l-152 388l-152 -388h304zM594 896l-158 -102l-26 31l128 137z" />
    <glyph glyph-name="Acircumflex" unicode="&#xc2;" horiz-adv-x="877" 
d="M868 0h-342v50h70c57 0 59 15 42 58l-51 131h-345l-49 -126c-21 -53 -16 -63 40 -63h72v-50h-296v50h22c68 0 74 8 102 78l254 642h102l256 -642c27 -68 42 -78 94 -78h29v-50zM566 292l-152 388l-152 -388h304zM593 810l-29 -34l-133 91l-129 -92l-29 35l128 124h60z
" />
    <glyph glyph-name="Atilde" unicode="&#xc3;" horiz-adv-x="877" 
d="M868 0h-342v50h70c57 0 59 15 42 58l-51 131h-345l-49 -126c-21 -53 -16 -63 40 -63h72v-50h-296v50h22c68 0 74 8 102 78l254 642h102l256 -642c27 -68 42 -78 94 -78h29v-50zM566 292l-152 388l-152 -388h304zM640 899l-15 -31c-27 -57 -56 -74 -101 -74
c-36 0 -54 13 -81 32c-20 14 -60 39 -85 39s-46 -18 -61 -44l-10 -17l-30 19l15 31c21 44 54 76 99 76c32 0 54 -13 84 -32c18 -11 57 -39 82 -39c24 0 44 12 60 38l14 23z" />
    <glyph glyph-name="Adieresis" unicode="&#xc4;" horiz-adv-x="877" 
d="M868 0h-342v50h70c57 0 59 15 42 58l-51 131h-345l-49 -126c-21 -53 -16 -63 40 -63h72v-50h-296v50h22c68 0 74 8 102 78l254 642h102l256 -642c27 -68 42 -78 94 -78h29v-50zM566 292l-152 388l-152 -388h304zM585 842c0 -28 -23 -50 -52 -50c-27 0 -50 22 -50 50
c0 27 23 50 50 50c29 0 52 -23 52 -50zM387 842c0 -28 -23 -50 -51 -50s-51 22 -51 50c0 27 23 50 51 50s51 -23 51 -50z" />
    <glyph glyph-name="Aring" unicode="&#xc5;" horiz-adv-x="877" 
d="M868 0h-342v50h70c51 0 59 15 42 58l-51 131h-345l-49 -126c-16 -41 -12 -63 40 -63h72v-50h-296v50h22c55 0 79 20 102 78l245 622c-36 19 -61 58 -61 103c0 66 53 119 119 119s119 -53 119 -119c0 -44 -24 -82 -59 -103l249 -622c22 -56 47 -78 94 -78h29v-50zM514 853
c0 43 -35 78 -78 78s-78 -35 -78 -78s35 -78 78 -78s78 35 78 78zM566 292l-152 388l-152 -388h304z" />
    <glyph glyph-name="AE" unicode="&#xc6;" horiz-adv-x="1176" 
d="M1133 0h-676v50h73c43 0 48 16 48 59v131h-299l-83 -127c-27 -42 -29 -63 22 -63h66v-50h-295v50h21c56 0 85 21 123 78l358 539c22 33 14 53 -26 53h-40v50h702v-275h-55v38c0 142 -48 187 -190 187h-155c-43 0 -48 -16 -48 -59v-245h92c53 0 94 38 94 90v74h52v-382
h-52v77c0 53 -41 91 -94 91h-92v-257c0 -43 5 -59 48 -59h161c143 0 190 45 190 187v51h55v-288zM578 292v401l-265 -401h265z" />
    <glyph glyph-name="Ccedilla" unicode="&#xc7;" horiz-adv-x="798" 
d="M738 285c0 -190 -135 -302 -307 -306l-8 -28l19 -7c41 -15 61 -38 61 -75c0 -33 -30 -63 -77 -63c-24 0 -42 8 -67 21l7 26c16 -9 29 -12 38 -12c21 0 31 15 31 30c0 30 -18 43 -51 51l16 58c-241 11 -357 204 -357 407c0 190 118 400 384 400c124 0 197 -65 227 -65
c17 0 29 14 29 48h48v-290h-55v22c0 122 -114 229 -252 229c-161 0 -256 -110 -256 -344c0 -222 87 -353 256 -353c147 0 255 86 255 250v12h59v-11z" />
    <glyph glyph-name="Egrave" unicode="&#xc8;" horiz-adv-x="800" 
d="M757 0h-714v50h73c43 0 47 16 47 59v552c0 43 -4 59 -47 59h-73v50h707v-275h-55l-2 78c-2 97 -50 147 -148 147h-228c-42 0 -47 -16 -47 -59v-245h125c52 0 80 34 82 90l3 74h51v-382h-51l-3 96c-2 55 -30 72 -82 72h-125v-257c0 -43 5 -59 47 -59h195
c143 0 182 39 188 187l2 51h55v-288zM463 825l-25 -31l-159 102l56 66z" />
    <glyph glyph-name="Eacute" unicode="&#xc9;" horiz-adv-x="800" 
d="M757 0h-714v50h73c43 0 47 16 47 59v552c0 43 -4 59 -47 59h-73v50h707v-275h-55l-2 78c-2 97 -50 147 -148 147h-228c-42 0 -47 -16 -47 -59v-245h125c52 0 80 34 82 90l3 74h51v-382h-51l-3 96c-2 55 -30 72 -82 72h-125v-257c0 -43 5 -59 47 -59h195
c143 0 182 39 188 187l2 51h55v-288zM545 896l-158 -102l-26 31l128 137z" />
    <glyph glyph-name="Ecircumflex" unicode="&#xca;" horiz-adv-x="800" 
d="M757 0h-714v50h73c43 0 47 16 47 59v552c0 43 -4 59 -47 59h-73v50h707v-275h-55l-2 78c-2 97 -50 147 -148 147h-228c-42 0 -47 -16 -47 -59v-245h125c52 0 80 34 82 90l3 74h51v-382h-51l-3 96c-2 55 -30 72 -82 72h-125v-257c0 -43 5 -59 47 -59h195
c143 0 182 39 188 187l2 51h55v-288zM579 828l-29 -34l-133 91l-129 -92l-29 35l128 124h60z" />
    <glyph glyph-name="Edieresis" unicode="&#xcb;" horiz-adv-x="800" 
d="M757 0h-714v50h73c43 0 47 16 47 59v552c0 43 -4 59 -47 59h-73v50h707v-275h-55l-2 78c-2 97 -50 147 -148 147h-228c-42 0 -47 -16 -47 -59v-245h125c52 0 80 34 82 90l3 74h51v-382h-51l-3 96c-2 55 -30 72 -82 72h-125v-257c0 -43 5 -59 47 -59h195
c143 0 182 39 188 187l2 51h55v-288zM587 854c0 -28 -23 -50 -52 -50c-27 0 -50 22 -50 50c0 27 23 50 50 50c29 0 52 -23 52 -50zM389 854c0 -28 -23 -50 -51 -50s-51 22 -51 50c0 27 23 50 51 50s51 -23 51 -50z" />
    <glyph glyph-name="Igrave" unicode="&#xcc;" horiz-adv-x="434" 
d="M391 0h-348v50h73c43 0 47 16 47 59v552c0 43 -4 59 -47 59h-73v50h348v-50h-74c-42 0 -47 -16 -47 -59v-552c0 -43 5 -59 47 -59h74v-50zM254 825l-25 -31l-159 102l56 66z" />
    <glyph glyph-name="Iacute" unicode="&#xcd;" horiz-adv-x="434" 
d="M391 0h-348v50h73c43 0 47 16 47 59v552c0 43 -4 59 -47 59h-73v50h348v-50h-74c-42 0 -47 -16 -47 -59v-552c0 -43 5 -59 47 -59h74v-50zM374 896l-158 -102l-26 31l128 137z" />
    <glyph glyph-name="Icircumflex" unicode="&#xce;" horiz-adv-x="434" 
d="M391 0h-348v50h73c43 0 47 16 47 59v552c0 43 -4 59 -47 59h-73v50h348v-50h-74c-42 0 -47 -16 -47 -59v-552c0 -43 5 -59 47 -59h74v-50zM385 828l-29 -34l-133 91l-129 -92l-29 35l128 124h60z" />
    <glyph glyph-name="Idieresis" unicode="&#xcf;" horiz-adv-x="434" 
d="M391 0h-348v50h73c43 0 47 16 47 59v552c0 43 -4 59 -47 59h-73v50h348v-50h-74c-42 0 -47 -16 -47 -59v-552c0 -43 5 -59 47 -59h74v-50zM367 854c0 -28 -23 -50 -52 -50c-27 0 -50 22 -50 50c0 27 23 50 50 50c29 0 52 -23 52 -50zM169 854c0 -28 -23 -50 -51 -50
s-51 22 -51 50c0 27 23 50 51 50s51 -23 51 -50z" />
    <glyph glyph-name="Eth" unicode="&#xd0;" horiz-adv-x="893" 
d="M860 389c0 -229 -163 -389 -398 -389h-419v50h73c43 0 47 26 47 69v233h-120v75h120v237c0 43 -4 56 -47 56h-73v50h419c229 0 398 -160 398 -381zM734 390c0 170 -96 330 -280 330h-130c-45 0 -54 -13 -54 -56v-237h177v-75h-177v-233c0 -43 5 -69 47 -69h122
c223 0 295 134 295 340z" />
    <glyph glyph-name="Ntilde" unicode="&#xd1;" horiz-adv-x="973" 
d="M930 720h-61c-43 0 -57 -26 -57 -68v-652h-126l-455 673v-554c0 -43 14 -69 57 -69h86v-50h-331v50h62c43 0 57 26 57 69v533c0 42 -14 68 -57 68h-62v50h250l451 -681v563c0 42 -14 68 -57 68h-91v50h334v-50zM694 899l-15 -31c-27 -57 -56 -74 -101 -74
c-36 0 -54 13 -81 32c-20 14 -60 39 -85 39s-46 -18 -61 -44l-10 -17l-30 19l15 31c21 44 54 76 99 76c32 0 54 -13 84 -32c18 -11 57 -39 82 -39c24 0 44 12 60 38l14 23z" />
    <glyph glyph-name="Ograve" unicode="&#xd2;" horiz-adv-x="873" 
d="M835 392c0 -209 -154 -412 -401 -412c-243 0 -396 198 -396 407c0 212 166 399 400 399c241 0 397 -189 397 -394zM710 387c0 209 -118 344 -278 344c-148 0 -269 -129 -269 -339c0 -216 116 -357 276 -357c164 0 271 142 271 352zM490 843l-25 -31l-159 102l56 66z" />
    <glyph glyph-name="Oacute" unicode="&#xd3;" horiz-adv-x="873" 
d="M835 392c0 -209 -154 -412 -401 -412c-243 0 -396 198 -396 407c0 212 166 399 400 399c241 0 397 -189 397 -394zM710 387c0 209 -118 344 -278 344c-148 0 -269 -129 -269 -339c0 -216 116 -357 276 -357c164 0 271 142 271 352zM571 914l-158 -102l-26 31l128 137z
" />
    <glyph glyph-name="Ocircumflex" unicode="&#xd4;" horiz-adv-x="873" 
d="M835 392c0 -209 -154 -412 -401 -412c-243 0 -396 198 -396 407c0 212 166 399 400 399c241 0 397 -189 397 -394zM710 387c0 209 -118 344 -278 344c-148 0 -269 -129 -269 -339c0 -216 116 -357 276 -357c164 0 271 142 271 352zM601 831l-29 -34l-133 91l-129 -92
l-29 35l128 124h60z" />
    <glyph glyph-name="Otilde" unicode="&#xd5;" horiz-adv-x="873" 
d="M835 392c0 -209 -154 -412 -401 -412c-243 0 -396 198 -396 407c0 212 166 399 400 399c241 0 397 -189 397 -394zM710 387c0 209 -118 344 -278 344c-148 0 -269 -129 -269 -339c0 -216 116 -357 276 -357c164 0 271 142 271 352zM625 918l-15 -31
c-27 -57 -56 -74 -101 -74c-36 0 -54 13 -81 32c-20 14 -60 39 -85 39s-46 -18 -61 -44l-10 -17l-30 19l15 31c21 44 54 76 99 76c32 0 54 -13 84 -32c18 -11 57 -39 82 -39c24 0 44 12 60 38l14 23z" />
    <glyph glyph-name="Odieresis" unicode="&#xd6;" horiz-adv-x="873" 
d="M835 392c0 -209 -154 -412 -401 -412c-243 0 -396 198 -396 407c0 212 166 399 400 399c241 0 397 -189 397 -394zM710 387c0 209 -118 344 -278 344c-148 0 -269 -129 -269 -339c0 -216 116 -357 276 -357c164 0 271 142 271 352zM585 854c0 -28 -23 -50 -52 -50
c-27 0 -50 22 -50 50c0 27 23 50 50 50c29 0 52 -23 52 -50zM387 854c0 -28 -23 -50 -51 -50s-51 22 -51 50c0 27 23 50 51 50s51 -23 51 -50z" />
    <glyph glyph-name="multiply" unicode="&#xd7;" 
d="M754 294l-234 -29l-100 -210l-99 211l-233 29l171 163l-42 228l205 -111l205 111l-44 -230zM584 350l-82 78l21 115l-100 -54l-103 55l22 -114l-84 -79l114 -14l49 -105l49 104z" />
    <glyph glyph-name="Oslash" unicode="&#xd8;" horiz-adv-x="873" 
d="M835 392c0 -209 -154 -412 -401 -412c-106 0 -196 38 -262 98l-88 -91l-31 31l88 91c-66 75 -103 175 -103 278c0 212 166 400 400 400c105 0 196 -37 262 -95l99 102l29 -31l-97 -102c66 -72 104 -168 104 -269zM638 627c-49 66 -121 104 -206 104
c-148 0 -269 -129 -269 -339c0 -82 17 -154 47 -211zM710 387c0 79 -17 148 -47 203l-429 -448c49 -68 120 -107 205 -107c164 0 271 142 271 352z" />
    <glyph glyph-name="Ugrave" unicode="&#xd9;" horiz-adv-x="901" 
d="M863 720h-59c-45 0 -48 -15 -48 -58v-378c0 -199 -97 -304 -295 -304c-207 0 -307 104 -307 283v399c0 43 -5 58 -46 58h-74v50h348v-50h-76c-41 0 -46 -15 -46 -58v-397c0 -171 97 -228 212 -228c142 0 215 83 215 232v393c0 43 -6 58 -46 58h-76v50h298v-50zM512 825
l-25 -31l-159 102l56 66z" />
    <glyph glyph-name="Uacute" unicode="&#xda;" horiz-adv-x="901" 
d="M863 720h-59c-45 0 -48 -15 -48 -58v-378c0 -199 -97 -304 -295 -304c-207 0 -307 104 -307 283v399c0 43 -5 58 -46 58h-74v50h348v-50h-76c-41 0 -46 -15 -46 -58v-397c0 -171 97 -228 212 -228c142 0 215 83 215 232v393c0 43 -6 58 -46 58h-76v50h298v-50zM598 896
l-158 -102l-26 31l128 137z" />
    <glyph glyph-name="Ucircumflex" unicode="&#xdb;" horiz-adv-x="901" 
d="M863 720h-59c-45 0 -48 -15 -48 -58v-378c0 -199 -97 -304 -295 -304c-207 0 -307 104 -307 283v399c0 43 -5 58 -46 58h-74v50h348v-50h-76c-41 0 -46 -15 -46 -58v-397c0 -171 97 -228 212 -228c142 0 215 83 215 232v393c0 43 -6 58 -46 58h-76v50h298v-50zM633 828
l-29 -34l-133 91l-129 -92l-29 35l128 124h60z" />
    <glyph glyph-name="Udieresis" unicode="&#xdc;" horiz-adv-x="901" 
d="M863 720h-59c-45 0 -48 -15 -48 -58v-378c0 -199 -97 -304 -295 -304c-207 0 -307 104 -307 283v399c0 43 -5 58 -46 58h-74v50h348v-50h-76c-41 0 -46 -15 -46 -58v-397c0 -171 97 -228 212 -228c142 0 215 83 215 232v393c0 43 -6 58 -46 58h-76v50h298v-50zM614 854
c0 -28 -23 -50 -52 -50c-27 0 -50 22 -50 50c0 27 23 50 50 50c29 0 52 -23 52 -50zM416 854c0 -28 -23 -50 -51 -50s-51 22 -51 50c0 27 23 50 51 50s51 -23 51 -50z" />
    <glyph glyph-name="Yacute" unicode="&#xdd;" horiz-adv-x="841" 
d="M832 720h-33c-35 0 -59 -7 -79 -40l-238 -396v-165c0 -43 14 -69 57 -69h118v-50h-453v50h114c43 0 57 26 57 69v168l-242 387c-23 37 -51 46 -85 46h-39v50l347 -4v-51h-73c-34 0 -51 -18 -27 -56l194 -310l193 318c16 27 12 48 -26 48h-83v51l298 4v-50zM594 925
l-158 -102l-26 31l128 137z" />
    <glyph glyph-name="Thorn" unicode="&#xde;" horiz-adv-x="743" 
d="M705 413c0 -143 -115 -233 -295 -233h-140v-61c0 -43 14 -69 57 -69h105v-50h-389v50h63c43 0 57 26 57 69v533c0 42 -14 68 -57 68h-63v50h347v-50h-63c-43 0 -57 -26 -57 -68v-16h147c182 0 288 -102 288 -223zM579 408c0 102 -53 177 -174 177h-78
c-43 0 -57 -25 -57 -68v-282h116c155 0 193 80 193 173z" />
    <glyph glyph-name="germandbls" unicode="&#xdf;" horiz-adv-x="719" 
d="M683 142c0 -105 -106 -153 -189 -153c-79 0 -121 41 -149 41c-14 0 -21 -12 -21 -30h-42v203h46c5 -91 66 -166 167 -166c66 0 111 38 111 86c0 46 -21 67 -116 86l-54 11c-105 21 -163 60 -163 141c0 78 69 150 176 150c35 0 65 -6 83 -11c12 18 22 46 22 84
c0 96 -63 157 -184 157c-84 0 -152 -56 -152 -163v-578h-180v50h64c24 0 30 9 30 36v350h-94v50h60c21 0 34 14 34 36v29c0 140 102 236 239 236c147 0 230 -84 230 -210c0 -67 0 -94 20 -107v-83h-43c-17 45 -59 78 -126 78c-63 0 -106 -28 -106 -76c0 -51 14 -61 110 -83
l78 -18c102 -24 149 -72 149 -146z" />
    <glyph glyph-name="agrave" unicode="&#xe0;" horiz-adv-x="589" 
d="M575 102c0 -60 -29 -114 -98 -114c-68 0 -93 31 -108 81c-40 -59 -92 -81 -159 -81c-101 0 -167 48 -167 139c0 101 99 122 157 132l56 10c84 15 109 29 109 83c0 76 -43 110 -109 110c-69 0 -106 -21 -106 -64c22 0 44 -17 44 -47c0 -28 -14 -56 -60 -56
c-32 0 -65 20 -65 76c0 89 92 137 188 137c101 0 195 -44 195 -147v-258c0 -52 18 -65 37 -65c22 0 42 14 42 65v43h44v-44zM366 194v80c-23 -29 -83 -49 -137 -59c-59 -11 -91 -36 -91 -88s26 -92 94 -92c79 0 134 74 134 159zM317 577l-25 -31l-159 102l56 66z" />
    <glyph glyph-name="aacute" unicode="&#xe1;" horiz-adv-x="589" 
d="M575 102c0 -60 -29 -114 -98 -114c-68 0 -93 31 -108 81c-40 -59 -92 -81 -159 -81c-101 0 -167 48 -167 139c0 101 99 122 157 132l56 10c84 15 109 29 109 83c0 76 -43 110 -109 110c-69 0 -106 -21 -106 -64c22 0 44 -17 44 -47c0 -28 -14 -56 -60 -56
c-32 0 -65 20 -65 76c0 89 92 137 188 137c101 0 195 -44 195 -147v-258c0 -52 18 -65 37 -65c22 0 42 14 42 65v43h44v-44zM366 194v80c-23 -29 -83 -49 -137 -59c-59 -11 -91 -36 -91 -88s26 -92 94 -92c79 0 134 74 134 159zM395 648l-158 -102l-26 31l128 137z" />
    <glyph glyph-name="acircumflex" unicode="&#xe2;" horiz-adv-x="589" 
d="M575 102c0 -60 -29 -114 -98 -114c-68 0 -93 31 -108 81c-40 -59 -92 -81 -159 -81c-101 0 -167 48 -167 139c0 101 99 122 157 132l56 10c84 15 109 29 109 83c0 76 -43 110 -109 110c-69 0 -106 -21 -106 -64c22 0 44 -17 44 -47c0 -28 -14 -56 -60 -56
c-32 0 -65 20 -65 76c0 89 92 137 188 137c101 0 195 -44 195 -147v-258c0 -52 18 -65 37 -65c22 0 42 14 42 65v43h44v-44zM366 194v80c-23 -29 -83 -49 -137 -59c-59 -11 -91 -36 -91 -88s26 -92 94 -92c79 0 134 74 134 159zM427 566l-29 -34l-133 91l-129 -92l-29 35
l128 124h60z" />
    <glyph glyph-name="atilde" unicode="&#xe3;" horiz-adv-x="589" 
d="M575 102c0 -60 -29 -114 -98 -114c-68 0 -93 31 -108 81c-40 -59 -92 -81 -159 -81c-101 0 -167 48 -167 139c0 101 99 122 157 132l56 10c84 15 109 29 109 83c0 76 -43 110 -109 110c-69 0 -106 -21 -106 -64c22 0 44 -17 44 -47c0 -28 -14 -56 -60 -56
c-32 0 -65 20 -65 76c0 89 92 137 188 137c101 0 195 -44 195 -147v-258c0 -52 18 -65 37 -65c22 0 42 14 42 65v43h44v-44zM366 194v80c-23 -29 -83 -49 -137 -59c-59 -11 -91 -36 -91 -88s26 -92 94 -92c79 0 134 74 134 159zM458 646l-15 -31c-27 -57 -56 -74 -101 -74
c-36 0 -54 13 -81 32c-20 14 -60 39 -85 39s-46 -18 -61 -44l-10 -17l-30 19l15 31c21 44 54 76 99 76c32 0 54 -13 84 -32c18 -11 57 -39 82 -39c24 0 44 12 60 38l14 23z" />
    <glyph glyph-name="adieresis" unicode="&#xe4;" horiz-adv-x="589" 
d="M575 102c0 -60 -29 -114 -98 -114c-68 0 -93 31 -108 81c-40 -59 -92 -81 -159 -81c-101 0 -167 48 -167 139c0 101 99 122 157 132l56 10c84 15 109 29 109 83c0 76 -43 110 -109 110c-69 0 -106 -21 -106 -64c22 0 44 -17 44 -47c0 -28 -14 -56 -60 -56
c-32 0 -65 20 -65 76c0 89 92 137 188 137c101 0 195 -44 195 -147v-258c0 -52 18 -65 37 -65c22 0 42 14 42 65v43h44v-44zM366 194v80c-23 -29 -83 -49 -137 -59c-59 -11 -91 -36 -91 -88s26 -92 94 -92c79 0 134 74 134 159zM413 588c0 -28 -23 -50 -52 -50
c-27 0 -50 22 -50 50c0 27 23 50 50 50c29 0 52 -23 52 -50zM215 588c0 -28 -23 -50 -51 -50s-51 22 -51 50c0 27 23 50 51 50s51 -23 51 -50z" />
    <glyph glyph-name="aring" unicode="&#xe5;" horiz-adv-x="589" 
d="M575 102c0 -60 -29 -114 -98 -114c-68 0 -93 31 -108 81c-40 -59 -92 -81 -159 -81c-101 0 -167 48 -167 139c0 101 99 122 157 132l56 10c84 15 109 29 109 83c0 76 -43 110 -109 110c-69 0 -106 -21 -106 -64c22 0 44 -17 44 -47c0 -28 -14 -56 -60 -56
c-32 0 -65 20 -65 76c0 89 92 137 188 137c101 0 195 -44 195 -147v-258c0 -52 18 -65 37 -65c22 0 42 14 42 65v43h44v-44zM366 194v80c-23 -29 -83 -49 -137 -59c-59 -11 -91 -36 -91 -88s26 -92 94 -92c79 0 134 74 134 159zM379 651c0 -66 -53 -119 -119 -119
s-119 53 -119 119s53 119 119 119s119 -53 119 -119zM338 651c0 43 -35 78 -78 78s-78 -35 -78 -78s35 -78 78 -78s78 35 78 78z" />
    <glyph glyph-name="ae" unicode="&#xe6;" horiz-adv-x="848" 
d="M812 244h-369v-4c0 -112 60 -197 161 -197c96 0 141 34 154 130h49c-14 -116 -75 -180 -209 -180c-95 0 -170 56 -194 116c-32 -69 -104 -118 -194 -118c-103 0 -167 38 -167 129c0 83 67 130 157 143l56 8c83 12 109 34 109 77c0 84 -40 116 -119 116
c-63 0 -99 -22 -99 -61c22 0 45 -21 45 -47c0 -28 -12 -56 -58 -56c-32 0 -65 18 -65 76c0 88 92 133 179 133s135 -38 159 -92c38 53 115 91 186 91c115 0 219 -77 219 -242v-22zM728 285v7c0 80 -33 167 -141 167c-100 0 -143 -84 -143 -169v-5h284zM366 175v91
c-33 -25 -81 -37 -140 -47c-76 -13 -98 -61 -98 -106c0 -44 23 -75 99 -75c79 0 139 60 139 137z" />
    <glyph glyph-name="ccedilla" unicode="&#xe7;" horiz-adv-x="540" 
d="M512 175c-2 -89 -76 -181 -216 -182l-9 -34l19 -7c41 -15 61 -38 61 -75c0 -33 -30 -63 -77 -63c-24 0 -42 8 -67 21l7 26c16 -9 29 -12 38 -12c21 0 31 15 31 30c0 30 -18 43 -51 51l18 64c-131 14 -229 121 -229 259c0 152 128 255 255 255c109 0 202 -66 202 -148
c0 -48 -25 -83 -70 -83c-38 0 -64 25 -64 58c0 38 33 55 59 52c-15 39 -53 74 -130 74c-95 0 -152 -79 -152 -210c0 -122 59 -210 163 -210c99 0 154 74 161 136h51v-2z" />
    <glyph glyph-name="egrave" unicode="&#xe8;" horiz-adv-x="552" 
d="M517 239h-380v-2c0 -112 63 -194 165 -194c99 0 152 69 159 130h51c0 -77 -80 -180 -216 -180c-140 0 -260 101 -260 255c0 157 112 260 255 260c115 0 226 -81 226 -247v-22zM426 280v2c0 81 -33 177 -141 177c-100 0 -147 -90 -147 -176v-3h288zM351 577l-25 -31
l-159 102l56 66z" />
    <glyph glyph-name="eacute" unicode="&#xe9;" horiz-adv-x="552" 
d="M517 239h-380v-2c0 -112 63 -194 165 -194c99 0 152 69 159 130h51c0 -77 -80 -180 -216 -180c-140 0 -260 101 -260 255c0 157 112 260 255 260c115 0 226 -81 226 -247v-22zM426 280v2c0 81 -33 177 -141 177c-100 0 -147 -90 -147 -176v-3h288zM429 648l-158 -102
l-26 31l128 137z" />
    <glyph glyph-name="ecircumflex" unicode="&#xea;" horiz-adv-x="552" 
d="M517 239h-380v-2c0 -112 63 -194 165 -194c99 0 152 69 159 130h51c0 -77 -80 -180 -216 -180c-140 0 -260 101 -260 255c0 157 112 260 255 260c115 0 226 -81 226 -247v-22zM426 280v2c0 81 -33 177 -141 177c-100 0 -147 -90 -147 -176v-3h288zM445 566l-29 -34
l-133 91l-129 -92l-29 35l128 124h60z" />
    <glyph glyph-name="edieresis" unicode="&#xeb;" horiz-adv-x="552" 
d="M517 239h-380v-2c0 -112 63 -194 165 -194c99 0 152 69 159 130h51c0 -77 -80 -180 -216 -180c-140 0 -260 101 -260 255c0 157 112 260 255 260c115 0 226 -81 226 -247v-22zM426 280v2c0 81 -33 177 -141 177c-100 0 -147 -90 -147 -176v-3h288zM431 588
c0 -28 -23 -50 -52 -50c-27 0 -50 22 -50 50c0 27 23 50 50 50c29 0 52 -23 52 -50zM233 588c0 -28 -23 -50 -51 -50s-51 22 -51 50c0 27 23 50 51 50s51 -23 51 -50z" />
    <glyph glyph-name="igrave" unicode="&#xec;" horiz-adv-x="332" 
d="M313 0h-275v50h61c27 0 33 10 33 40v306c0 26 -16 40 -39 40h-55v50l180 3v-399c0 -30 13 -40 40 -40h55v-50zM200 577l-25 -31l-159 102l56 66z" />
    <glyph glyph-name="iacute" unicode="&#xed;" horiz-adv-x="332" 
d="M313 0h-275v50h61c27 0 33 10 33 40v306c0 26 -16 40 -39 40h-55v50l180 3v-399c0 -30 13 -40 40 -40h55v-50zM311 648l-158 -102l-26 31l128 137z" />
    <glyph glyph-name="icircumflex" unicode="&#xee;" horiz-adv-x="332" 
d="M313 0h-275v50h61c27 0 33 10 33 40v306c0 26 -16 40 -39 40h-55v50l180 3v-399c0 -30 13 -40 40 -40h55v-50zM319 566l-29 -34l-133 91l-129 -92l-29 35l128 124h60z" />
    <glyph glyph-name="idieresis" unicode="&#xef;" horiz-adv-x="332" 
d="M313 0h-275v50h61c27 0 33 10 33 40v306c0 26 -16 40 -39 40h-55v50l180 3v-399c0 -30 13 -40 40 -40h55v-50zM299 588c0 -28 -23 -50 -52 -50c-27 0 -50 22 -50 50c0 27 23 50 50 50c29 0 52 -23 52 -50zM101 588c0 -28 -23 -50 -51 -50s-51 22 -51 50c0 27 23 50 51 50
s51 -23 51 -50z" />
    <glyph glyph-name="eth" unicode="&#xf0;" horiz-adv-x="589" 
d="M283 -7c-160 0 -245 116 -245 259c0 142 116 256 255 256c65 0 115 -23 152 -70c-9 91 -29 159 -60 206l-89 -60l-30 42l85 57c-27 25 -60 37 -99 37c-55 0 -87 -15 -105 -25l-24 46c28 19 60 36 139 36c51 0 104 -16 149 -54l72 49l30 -42l-65 -44
c59 -70 99 -186 99 -360c0 -238 -127 -333 -264 -333zM294 41c71 0 153 51 153 208s-82 212 -153 212c-72 0 -156 -49 -156 -205c0 -157 84 -215 156 -215z" />
    <glyph glyph-name="ntilde" unicode="&#xf1;" horiz-adv-x="683" 
d="M664 0h-272v50h54c27 0 42 19 42 50v242c0 61 -41 105 -106 105c-92 0 -159 -66 -159 -224v-123c0 -31 15 -50 43 -50h51v-50h-274v50h51c28 0 43 19 43 50v290c0 25 -13 46 -39 46h-55v50l177 4v-94c36 72 110 107 188 107c106 0 167 -53 167 -158v-245
c0 -31 15 -50 42 -50h47v-50zM539 646l-15 -31c-27 -57 -56 -74 -101 -74c-36 0 -54 13 -81 32c-20 14 -60 39 -85 39s-46 -18 -61 -44l-10 -17l-30 19l15 31c21 44 54 76 99 76c32 0 54 -13 84 -32c18 -11 57 -39 82 -39c24 0 44 12 60 38l14 23z" />
    <glyph glyph-name="ograve" unicode="&#xf2;" horiz-adv-x="580" 
d="M544 259c0 -142 -113 -266 -255 -266c-143 0 -253 116 -253 259c0 142 116 256 258 256c143 0 250 -106 250 -249zM445 249c0 157 -82 212 -153 212c-72 0 -156 -49 -156 -205c0 -157 84 -215 156 -215c71 0 153 51 153 208zM339 567l-25 -31l-159 102l56 66z" />
    <glyph glyph-name="oacute" unicode="&#xf3;" horiz-adv-x="580" 
d="M544 259c0 -142 -113 -266 -255 -266c-143 0 -253 116 -253 259c0 142 116 256 258 256c143 0 250 -106 250 -249zM445 249c0 157 -82 212 -153 212c-72 0 -156 -49 -156 -205c0 -157 84 -215 156 -215c71 0 153 51 153 208zM419 648l-158 -102l-26 31l128 137z" />
    <glyph glyph-name="ocircumflex" unicode="&#xf4;" horiz-adv-x="580" 
d="M544 259c0 -142 -113 -266 -255 -266c-143 0 -253 116 -253 259c0 142 116 256 258 256c143 0 250 -106 250 -249zM445 249c0 157 -82 212 -153 212c-72 0 -156 -49 -156 -205c0 -157 84 -215 156 -215c71 0 153 51 153 208zM456 566l-29 -34l-133 91l-129 -92l-29 35
l128 124h60z" />
    <glyph glyph-name="otilde" unicode="&#xf5;" horiz-adv-x="580" 
d="M544 259c0 -142 -113 -266 -255 -266c-143 0 -253 116 -253 259c0 142 116 256 258 256c143 0 250 -106 250 -249zM445 249c0 157 -82 212 -153 212c-72 0 -156 -49 -156 -205c0 -157 84 -215 156 -215c71 0 153 51 153 208zM478 646l-15 -31c-27 -57 -56 -74 -101 -74
c-36 0 -54 13 -81 32c-20 14 -60 39 -85 39s-46 -18 -61 -44l-10 -17l-30 19l15 31c21 44 54 76 99 76c32 0 54 -13 84 -32c18 -11 57 -39 82 -39c24 0 44 12 60 38l14 23z" />
    <glyph glyph-name="odieresis" unicode="&#xf6;" horiz-adv-x="580" 
d="M544 259c0 -142 -113 -266 -255 -266c-143 0 -253 116 -253 259c0 142 116 256 258 256c143 0 250 -106 250 -249zM445 249c0 157 -82 212 -153 212c-72 0 -156 -49 -156 -205c0 -157 84 -215 156 -215c71 0 153 51 153 208zM443 588c0 -28 -23 -50 -52 -50
c-27 0 -50 22 -50 50c0 27 23 50 50 50c29 0 52 -23 52 -50zM245 588c0 -28 -23 -50 -51 -50s-51 22 -51 50c0 27 23 50 51 50s51 -23 51 -50z" />
    <glyph glyph-name="divide" unicode="&#xf7;" horiz-adv-x="638" 
d="M383 554c0 -35 -30 -64 -65 -64s-64 29 -64 64s29 64 64 64s65 -29 65 -64zM571 352h-504v56h504v-56zM383 206c0 -35 -30 -64 -65 -64s-64 29 -64 64s29 65 64 65s65 -30 65 -65z" />
    <glyph glyph-name="oslash" unicode="&#xf8;" horiz-adv-x="580" 
d="M547 489l-62 -64c37 -44 59 -101 59 -166c0 -142 -113 -266 -255 -266c-62 0 -117 22 -161 58l-51 -54l-27 26l52 54c-41 46 -66 107 -66 175c0 142 116 256 258 256c64 0 121 -22 165 -58c29 32 62 65 62 65zM408 396c-31 47 -76 65 -116 65c-72 0 -156 -49 -156 -205
c0 -50 8 -90 22 -121c0 0 250 262 250 261zM445 249c0 46 -7 83 -19 113l-249 -260c31 -43 75 -61 115 -61c71 0 153 51 153 208z" />
    <glyph glyph-name="ugrave" unicode="&#xf9;" horiz-adv-x="655" 
d="M638 0h-178v114c-31 -81 -103 -131 -182 -131c-98 0 -172 45 -172 151v253c0 37 -21 49 -43 49h-47v50h176v-342c0 -65 41 -105 106 -105c93 0 159 85 159 243v105c0 31 -15 49 -44 49h-50v50h180v-390c0 -25 13 -46 39 -46h56v-50zM325 577l-25 -31l-159 102l56 66z" />
    <glyph glyph-name="uacute" unicode="&#xfa;" horiz-adv-x="655" 
d="M636 0h-178v114c-31 -81 -103 -131 -182 -131c-98 0 -172 45 -172 151v253c0 37 -21 49 -43 49h-47v50h176v-342c0 -65 41 -105 106 -105c93 0 159 85 159 243v105c0 31 -15 49 -44 49h-50v50h180v-390c0 -25 13 -46 39 -46h56v-50zM434 648l-158 -102l-26 31l128 137z
" />
    <glyph glyph-name="ucircumflex" unicode="&#xfb;" horiz-adv-x="655" 
d="M636 0h-178v114c-31 -81 -103 -131 -182 -131c-98 0 -172 45 -172 151v253c0 37 -21 49 -43 49h-47v50h176v-342c0 -65 41 -105 106 -105c93 0 159 85 159 243v105c0 31 -15 49 -44 49h-50v50h180v-390c0 -25 13 -46 39 -46h56v-50zM469 566l-29 -34l-133 91l-129 -92
l-29 35l128 124h60z" />
    <glyph glyph-name="udieresis" unicode="&#xfc;" horiz-adv-x="655" 
d="M636 0h-178v114c-31 -81 -103 -131 -182 -131c-98 0 -172 45 -172 151v253c0 37 -21 49 -43 49h-47v50h176v-342c0 -65 41 -105 106 -105c93 0 159 85 159 243v105c0 31 -15 49 -44 49h-50v50h180v-390c0 -25 13 -46 39 -46h56v-50zM455 588c0 -28 -23 -50 -52 -50
c-27 0 -50 22 -50 50c0 27 23 50 50 50c29 0 52 -23 52 -50zM257 588c0 -28 -23 -50 -51 -50s-51 22 -51 50c0 27 23 50 51 50s51 -23 51 -50z" />
    <glyph glyph-name="yacute" unicode="&#xfd;" horiz-adv-x="588" 
d="M583 436h-24c-41 0 -47 -11 -71 -68l-154 -370c-65 -156 -106 -211 -197 -211c-76 0 -128 45 -128 103c0 38 24 71 70 71c36 0 60 -26 60 -58c0 -21 -15 -34 -27 -43c3 -15 13 -29 33 -29c46 0 79 9 136 169h-20l-157 372c-19 44 -35 64 -63 64h-36v50h254v-50h-53
c-25 0 -34 -15 -24 -38l134 -319l127 315c3 7 4 14 4 19c0 14 -10 23 -26 23h-54v50h216v-50zM454 657l-158 -102l-26 31l128 137z" />
    <glyph glyph-name="thorn" unicode="&#xfe;" horiz-adv-x="640" 
d="M604 243c0 -177 -126 -258 -240 -258c-90 0 -149 46 -169 84v-167c0 -30 15 -49 42 -49h78v-51h-301v51h52c27 0 42 19 42 49v772c0 29 -13 46 -39 46h-55v50h178v-346c26 40 81 79 168 79c143 0 244 -112 244 -260zM503 233c0 142 -64 221 -154 221
c-91 0 -141 -63 -154 -119c-5 -24 -1 -152 2 -165c18 -86 78 -137 152 -137c90 0 154 81 154 200z" />
    <glyph glyph-name="ydieresis" unicode="&#xff;" horiz-adv-x="588" 
d="M583 436h-24c-41 0 -47 -11 -71 -68l-154 -370c-65 -156 -106 -211 -197 -211c-76 0 -128 45 -128 103c0 38 24 71 70 71c36 0 60 -26 60 -58c0 -21 -15 -34 -27 -43c3 -15 13 -29 33 -29c46 0 79 9 136 169h-20l-157 372c-19 44 -35 64 -63 64h-36v50h254v-50h-53
c-25 0 -34 -15 -24 -38l134 -319l127 315c3 7 4 14 4 19c0 14 -10 23 -26 23h-54v50h216v-50zM456 588c0 -28 -23 -50 -52 -50c-27 0 -50 22 -50 50c0 27 23 50 50 50c29 0 52 -23 52 -50zM258 588c0 -28 -23 -50 -51 -50s-51 22 -51 50c0 27 23 50 51 50s51 -23 51 -50z
" />
    <glyph glyph-name="dotlessi" unicode="&#x131;" horiz-adv-x="332" 
d="M313 0h-275v50h61c27 0 33 10 33 40v306c0 26 -16 40 -39 40h-55v50l180 3v-399c0 -30 13 -40 40 -40h55v-50z" />
    <glyph glyph-name="Lslash" unicode="&#x141;" horiz-adv-x="759" 
d="M721 0h-678v50h73c43 0 47 16 47 59v200l-119 -48v72l119 48v280c0 43 -4 59 -47 59h-73v50h378v-50h-104c-42 0 -47 -16 -47 -59v-238l159 63v-72l-159 -63v-242c0 -43 5 -59 47 -59h169c133 0 177 48 181 190l2 73h52v-313z" />
    <glyph glyph-name="lslash" unicode="&#x142;" horiz-adv-x="332" 
d="M313 0h-275v50h54c24 0 40 18 40 47v188l-82 -31v72l82 31v318c0 26 -14 45 -39 45h-55v50h180v-380l78 30v-72l-78 -30v-221c0 -28 18 -47 43 -47h52v-50z" />
    <glyph glyph-name="OE" unicode="&#x152;" horiz-adv-x="1247" 
d="M1205 0h-505c-66 0 -77 -2 -133 -6c-31 -2 -67 -4 -133 -4c-243 0 -396 188 -396 397c0 212 166 400 400 400c54 0 69 -1 112 -6c58 -6 68 -11 138 -11h510v-275h-55v38c0 142 -48 187 -190 187h-146c-42 0 -57 -26 -57 -68v-236h93c52 0 94 38 94 90v74h51v-382h-51v77
c0 53 -42 91 -94 91h-93v-247c0 -43 15 -69 57 -69h152c143 0 190 45 190 187v51h56v-288zM649 238v304c0 124 -14 169 -106 183c-27 4 -65 6 -111 6c-148 0 -273 -129 -273 -339c0 -216 120 -347 280 -347c188 0 210 32 210 193z" />
    <glyph glyph-name="oe" unicode="&#x153;" horiz-adv-x="951" 
d="M903 239h-367v-2c0 -112 56 -194 157 -194c99 0 148 69 154 130h52c-8 -86 -77 -180 -211 -180c-90 0 -167 41 -199 109c-44 -70 -115 -109 -198 -109c-143 0 -253 116 -253 259c0 142 116 256 258 256c91 0 165 -43 198 -105c29 65 101 105 191 105
c115 0 218 -81 218 -247v-22zM819 280v2c0 81 -31 177 -140 177c-100 0 -142 -90 -142 -176v-3h282zM446 249c0 157 -81 212 -152 212c-72 0 -156 -49 -156 -205c0 -157 84 -215 156 -215c71 0 152 51 152 208z" />
    <glyph glyph-name="Scaron" unicode="&#x160;" horiz-adv-x="704" 
d="M658 218c0 -133 -133 -229 -293 -229c-135 0 -171 56 -222 56c-18 0 -25 -16 -25 -45h-50v294h56v-16c0 -139 94 -234 240 -234c118 0 197 59 197 157c0 73 -49 110 -212 137l-60 10c-142 24 -231 88 -231 212c0 112 92 227 272 227c135 0 171 -56 217 -56
c18 0 27 10 27 40h49v-275h-56v23c0 116 -79 211 -234 211c-95 0 -176 -46 -176 -146c0 -88 57 -116 196 -140l71 -12c140 -24 234 -81 234 -214zM490 930l-128 -124h-60l-132 124l29 34l133 -91l129 92z" />
    <glyph glyph-name="scaron" unicode="&#x161;" horiz-adv-x="496" 
d="M460 144c0 -110 -107 -155 -189 -155c-79 0 -135 33 -150 41c-15 0 -20 -12 -20 -30h-42v203h45v-20c0 -85 67 -149 168 -149c66 0 111 40 111 88c0 46 -18 72 -116 94l-48 11c-105 24 -163 53 -163 134c0 78 62 146 181 146c82 0 124 -33 138 -41c17 0 24 15 24 37h38
v-195h-44v23c0 83 -70 133 -152 133c-71 0 -112 -27 -112 -75c0 -46 29 -55 110 -76l72 -19c102 -27 149 -74 149 -150zM395 662l-128 -124h-60l-132 124l29 34l133 -91l129 92z" />
    <glyph glyph-name="Ydieresis" unicode="&#x178;" horiz-adv-x="841" 
d="M832 720h-33c-35 0 -59 -7 -79 -40l-238 -396v-165c0 -43 14 -69 57 -69h118v-50h-453v50h114c43 0 57 26 57 69v168l-242 387c-23 37 -51 46 -85 46h-39v50l347 -4v-51h-73c-34 0 -51 -18 -27 -56l194 -310l193 318c16 27 12 48 -26 48h-83v51l298 4v-50zM593 854
c0 -28 -23 -50 -52 -50c-27 0 -50 22 -50 50c0 27 23 50 50 50c29 0 52 -23 52 -50zM395 854c0 -28 -23 -50 -51 -50s-51 22 -51 50c0 27 23 50 51 50s51 -23 51 -50z" />
    <glyph glyph-name="Zcaron" unicode="&#x17d;" horiz-adv-x="771" 
d="M733 714l-570 -664h319c142 0 187 48 187 190v54h55v-294h-677v59l568 661h-308c-143 0 -187 -47 -187 -190v-27h-55v267h668v-56zM560 930l-128 -124h-60l-132 124l29 34l133 -91l129 92z" />
    <glyph glyph-name="zcaron" unicode="&#x17e;" horiz-adv-x="495" 
d="M466 0h-433v55l329 381h-190c-47 0 -73 -37 -73 -84v-38h-48v172h414v-49l-336 -387h192c62 0 98 29 98 76v69h47v-195zM414 662l-128 -124h-60l-132 124l29 34l133 -91l129 92z" />
    <glyph glyph-name="florin" unicode="&#x192;" horiz-adv-x="457" 
d="M455 654c0 -39 -22 -62 -56 -62c-35 0 -59 23 -59 50c0 21 8 44 33 51c0 0 -7 38 -60 38c-58 0 -86 -45 -86 -118v-127h123v-50h-124v-476c0 -101 -47 -196 -145 -196v50c22 0 59 20 59 68v554h-94v50h94v65c0 124 41 226 174 226c87 0 141 -59 141 -123z" />
    <glyph glyph-name="circumflex" unicode="&#x2c6;" horiz-adv-x="475" 
d="M399 576l-29 -34l-133 91l-129 -92l-29 35l128 124h60z" />
    <glyph glyph-name="caron" unicode="&#x2c7;" horiz-adv-x="475" 
d="M395 658l-128 -124h-60l-132 124l29 34l133 -91l129 92z" />
    <glyph glyph-name="breve" unicode="&#x2d8;" horiz-adv-x="475" 
d="M438 691c-1 -7 -41 -158 -198 -158c-160 0 -197 151 -198 158h82c1 -4 26 -93 113 -93c91 0 117 89 117 93h84z" />
    <glyph glyph-name="dotaccent" unicode="&#x2d9;" horiz-adv-x="475" 
d="M302 622c0 -36 -28 -64 -65 -64c-35 0 -64 28 -64 64c0 35 29 65 64 65c37 0 65 -30 65 -65z" />
    <glyph glyph-name="ring" unicode="&#x2da;" horiz-adv-x="475" 
d="M347 645c0 -66 -53 -119 -119 -119s-119 53 -119 119s53 119 119 119s119 -53 119 -119zM306 645c0 43 -35 78 -78 78s-78 -35 -78 -78s35 -78 78 -78s78 35 78 78z" />
    <glyph glyph-name="ogonek" unicode="&#x2db;" horiz-adv-x="475" 
d="M295 -167c-25 -23 -58 -36 -96 -36c-72 0 -106 29 -106 81c0 68 108 122 108 122h55s-95 -46 -95 -120c0 -28 19 -43 46 -43c31 0 47 8 68 24z" />
    <glyph glyph-name="tilde" unicode="&#x2dc;" horiz-adv-x="475" 
d="M449 646l-15 -31c-27 -57 -56 -74 -101 -74c-36 0 -54 13 -81 32c-20 14 -60 39 -85 39s-46 -18 -61 -44l-10 -17l-30 19l15 31c21 44 54 76 99 76c32 0 54 -13 84 -32c18 -11 57 -39 82 -39c24 0 44 12 60 38l14 23z" />
    <glyph glyph-name="hungarumlaut" unicode="&#x2dd;" horiz-adv-x="475" 
d="M445 657l-152 -103l-32 36l129 130zM252 657l-152 -103l-32 36l130 130z" />
    <glyph glyph-name="Delta" unicode="&#x394;" 
d="M754 294l-234 -29l-100 -210l-99 211l-233 29l171 163l-42 228l205 -111l205 111l-44 -230zM584 350l-82 78l21 115l-100 -54l-103 55l22 -114l-84 -79l114 -14l49 -105l49 104z" />
    <glyph glyph-name="Delta" unicode="&#x2206;" 
d="M754 294l-234 -29l-100 -210l-99 211l-233 29l171 163l-42 228l205 -111l205 111l-44 -230zM584 350l-82 78l21 115l-100 -54l-103 55l22 -114l-84 -79l114 -14l49 -105l49 104z" />
    <glyph glyph-name="Omega" unicode="&#x3a9;" horiz-adv-x="638" 
d="M571 352h-504v56h504v-56z" />
    <glyph glyph-name="Omega" unicode="&#x2126;" horiz-adv-x="638" 
d="M571 352h-504v56h504v-56z" />
    <glyph glyph-name="pi" unicode="&#x3c0;" horiz-adv-x="998" 
d="M920 349c0 -231 -188 -418 -418 -418c-231 0 -418 187 -418 418c0 230 187 418 418 418c230 0 418 -188 418 -418zM881 349c0 209 -170 379 -379 379s-379 -170 -379 -379s170 -389 379 -389s379 180 379 389zM714 452c0 -85 -69 -135 -176 -135h-85v-126
c0 -26 9 -41 34 -41h64v-30h-234v30h38c26 0 34 15 34 41v319c0 26 -8 41 -34 41h-38v30h224c110 0 173 -56 173 -129zM638 448c0 62 -31 102 -104 102h-47c-25 0 -34 -15 -34 -41v-160h69c95 0 116 44 116 99z" />
    <glyph glyph-name="endash" unicode="&#x2013;" horiz-adv-x="722" 
d="M616 282h-504v65h504v-65z" />
    <glyph glyph-name="emdash" unicode="&#x2014;" horiz-adv-x="927" 
d="M927 282h-927v65h927v-65z" />
    <glyph glyph-name="quoteleft" unicode="&#x2018;" horiz-adv-x="276" 
d="M223 727c-59 0 -86 -31 -86 -62c0 -21 12 -31 28 -41c30 -19 48 -33 48 -63c0 -39 -30 -68 -68 -68c-53 0 -90 32 -90 103c0 93 63 174 168 174v-43z" />
    <glyph glyph-name="quoteright" unicode="&#x2019;" horiz-adv-x="276" 
d="M221 676c0 -94 -63 -174 -168 -174v43c64 0 87 30 87 62c0 21 -12 32 -29 41c-27 14 -47 33 -47 63c0 39 30 68 68 68c52 0 89 -32 89 -103z" />
    <glyph glyph-name="quotesinglbase" unicode="&#x201a;" horiz-adv-x="276" 
d="M221 41c0 -94 -69 -175 -168 -175v44c61 0 87 30 87 62c0 20 -12 31 -29 40c-27 15 -47 34 -47 63c0 39 30 68 68 68c52 0 89 -32 89 -102z" />
    <glyph glyph-name="quotedblleft" unicode="&#x201c;" horiz-adv-x="487" 
d="M434 727c-56 0 -86 -31 -86 -62c0 -21 11 -32 28 -41c28 -14 48 -33 48 -63c0 -39 -31 -68 -69 -68c-52 0 -89 32 -89 103c0 94 64 174 168 174v-43zM220 727c-56 0 -86 -31 -86 -62c0 -21 12 -31 28 -41c30 -19 48 -33 48 -63c0 -39 -30 -68 -68 -68
c-53 0 -90 32 -90 103c0 93 63 174 168 174v-43z" />
    <glyph glyph-name="quotedblright" unicode="&#x201d;" horiz-adv-x="487" 
d="M435 676c0 -93 -66 -174 -168 -174v43c57 0 86 25 86 62c0 21 -12 31 -28 41c-30 19 -48 33 -48 63c0 39 31 68 69 68c52 0 89 -32 89 -103zM221 676c0 -94 -69 -174 -168 -174v43c58 0 87 26 87 62c0 21 -12 32 -29 41c-27 14 -47 33 -47 63c0 39 30 68 68 68
c52 0 89 -32 89 -103z" />
    <glyph glyph-name="quotedblbase" unicode="&#x201e;" horiz-adv-x="487" 
d="M435 41c0 -93 -66 -175 -168 -175v44c63 0 86 30 86 62c0 20 -12 30 -28 40c-30 19 -48 34 -48 63c0 39 31 68 69 68c52 0 89 -32 89 -102zM221 41c0 -94 -69 -175 -168 -175v44c61 0 87 30 87 62c0 20 -12 31 -29 40c-27 15 -47 34 -47 63c0 39 30 68 68 68
c52 0 89 -32 89 -102z" />
    <glyph glyph-name="dagger" unicode="&#x2020;" horiz-adv-x="622" 
d="M531 482l-183 7l12 -489h-91l12 489l-185 -7v81l184 -7l-9 215h87l-9 -215l182 7v-81z" />
    <glyph glyph-name="daggerdbl" unicode="&#x2021;" horiz-adv-x="622" 
d="M533 208l-184 9l9 -217h-87l9 217l-182 -9v82l184 -9l5 107l-5 102l-186 -8v81l184 -8l-9 216h87l-9 -216l182 8v-81l-184 8l-5 -102l5 -107l186 9v-82z" />
    <glyph glyph-name="bullet" unicode="&#x2022;" horiz-adv-x="550" 
d="M470 308c0 -108 -88 -195 -195 -195c-108 0 -195 87 -195 195s87 195 195 195c107 0 195 -87 195 -195z" />
    <glyph glyph-name="ellipsis" unicode="&#x2026;" horiz-adv-x="798" 
d="M741 55c0 -42 -34 -75 -76 -75s-76 33 -76 75s34 76 76 76s76 -34 76 -76zM475 55c0 -42 -34 -75 -76 -75s-76 33 -76 75s34 76 76 76s76 -34 76 -76zM209 55c0 -42 -34 -75 -76 -75s-76 33 -76 75s34 76 76 76s76 -34 76 -76z" />
    <glyph glyph-name="perthousand" unicode="&#x2030;" horiz-adv-x="1506" 
d="M465 541c0 -135 -92 -244 -212 -244c-121 0 -208 110 -208 234c0 141 96 238 212 238c120 0 208 -108 208 -228zM727 770l-352 -770h-57l350 770h59zM1461 238c0 -134 -91 -243 -212 -243c-120 0 -208 109 -208 234c0 141 96 238 214 238c119 0 206 -108 206 -229z
M1004 238c0 -134 -91 -243 -212 -243c-120 0 -208 109 -208 234c0 141 96 238 214 238c119 0 206 -108 206 -229zM373 533c0 104 -34 195 -119 195c-86 0 -119 -91 -119 -195c0 -110 33 -195 119 -195c85 0 119 100 119 195zM1370 231c0 104 -34 195 -120 195
c-85 0 -119 -91 -119 -195c0 -110 34 -195 119 -195c86 0 120 100 120 195zM913 231c0 104 -34 195 -120 195c-85 0 -119 -91 -119 -195c0 -110 34 -195 119 -195c86 0 120 100 120 195z" />
    <glyph glyph-name="guilsinglleft" unicode="&#x2039;" horiz-adv-x="473" 
d="M425 21l-378 231v49l378 230v-63l-286 -192l286 -191v-64z" />
    <glyph glyph-name="guilsinglright" unicode="&#x203a;" horiz-adv-x="473" 
d="M426 252l-379 -231v64l286 191l-286 192v63l379 -230v-49z" />
    <glyph glyph-name="fraction" unicode="&#x2044;" horiz-adv-x="407" 
d="M506 788l-549 -846h-59l548 846h60z" />
    <glyph glyph-name="fraction" unicode="&#x2215;" horiz-adv-x="407" 
d="M506 788l-549 -846h-59l548 846h60z" />
    <glyph glyph-name="Euro" unicode="&#x20ac;" horiz-adv-x="718" 
d="M696 285c0 -214 -151 -306 -290 -306c-151 0 -283 93 -326 273h-69v61h58c-3 23 -4 48 -4 74c0 16 1 32 1 48h-55v61h65c34 153 142 291 334 291c133 0 264 -63 264 -185c0 -58 -38 -82 -75 -82c-52 0 -74 35 -74 69s26 63 61 61c-10 28 -45 86 -176 86
c-120 0 -199 -81 -220 -240h249v-61h-255c-1 -15 -1 -31 -1 -48c0 -27 1 -52 3 -74h253v-61h-244c27 -146 104 -218 213 -218c125 0 229 77 229 250v12h59v-11z" />
    <glyph glyph-name="trademark" unicode="&#x2122;" horiz-adv-x="1091" 
d="M1043 351h-195v38h38c24 0 32 14 32 38v305l-165 -381h-22l-166 380v-304c0 -24 8 -38 32 -38h35v-38h-167v38h35c22 0 31 14 31 38v269c0 24 -9 38 -31 38h-35v37h146l143 -335l143 335h146v-37h-35c-24 0 -31 -14 -31 -38v-269c0 -24 7 -38 31 -38h35v-38zM446 596h-30
v70c0 45 -30 67 -74 67h-66v-306c0 -24 9 -38 32 -38h59v-38h-239v38h59c24 0 31 14 31 38v306h-66c-45 0 -74 -22 -74 -67v-70h-31v175h399v-175z" />
    <glyph glyph-name="partialdiff" unicode="&#x2202;" 
d="M754 294l-234 -29l-100 -210l-99 211l-233 29l171 163l-42 228l205 -111l205 111l-44 -230zM584 350l-82 78l21 115l-100 -54l-103 55l22 -114l-84 -79l114 -14l49 -105l49 104z" />
    <glyph glyph-name="product" unicode="&#x220f;" 
d="M754 294l-234 -29l-100 -210l-99 211l-233 29l171 163l-42 228l205 -111l205 111l-44 -230zM584 350l-82 78l21 115l-100 -54l-103 55l22 -114l-84 -79l114 -14l49 -105l49 104z" />
    <glyph glyph-name="summation" unicode="&#x2211;" 
d="M754 294l-234 -29l-100 -210l-99 211l-233 29l171 163l-42 228l205 -111l205 111l-44 -230zM584 350l-82 78l21 115l-100 -54l-103 55l22 -114l-84 -79l114 -14l49 -105l49 104z" />
    <glyph glyph-name="minus" unicode="&#x2212;" 
d="M754 294l-234 -29l-100 -210l-99 211l-233 29l171 163l-42 228l205 -111l205 111l-44 -230zM584 350l-82 78l21 115l-100 -54l-103 55l22 -114l-84 -79l114 -14l49 -105l49 104z" />
    <glyph glyph-name="radical" unicode="&#x221a;" horiz-adv-x="678" 
d="M724 652c-245 -165 -424 -435 -494 -728h-22c-66 230 -128 299 -255 402l63 85c108 -113 168 -231 202 -382c53 260 206 550 393 743z" />
    <glyph glyph-name="infinity" unicode="&#x221e;" horiz-adv-x="1016" 
d="M997 0h-275v50h61c27 0 33 10 33 40v301c0 26 -14 45 -39 45h-217v-343c0 -35 6 -43 35 -43h61v-50h-276v50h64c24 0 30 10 30 37v349h-256v-343c0 -35 6 -43 35 -43h61v-50h-276v50h64c24 0 30 10 30 37v349h-94v50h60c21 0 34 14 34 36v29c0 147 75 226 211 226
c90 0 152 -35 173 -82c37 52 100 82 185 82c109 0 193 -51 193 -123c0 -39 -22 -62 -56 -62c-35 0 -59 23 -59 50c0 21 8 44 33 51c-26 29 -45 38 -113 38c-73 0 -138 -43 -138 -118v-127h341v-396c0 -30 6 -40 34 -40h61v-50zM477 592c-40 -4 -68 21 -68 50
c0 21 8 44 34 51c0 0 -32 38 -102 38c-58 0 -122 -32 -122 -118v-127h221c21 0 34 14 34 36c0 45 1 57 3 70z" />
    <glyph glyph-name="integral" unicode="&#x222b;" 
d="M754 294l-234 -29l-100 -210l-99 211l-233 29l171 163l-42 228l205 -111l205 111l-44 -230zM584 350l-82 78l21 115l-100 -54l-103 55l22 -114l-84 -79l114 -14l49 -105l49 104z" />
    <glyph glyph-name="approxequal" unicode="&#x2248;" horiz-adv-x="638" 
d="M515 219l-40 -40l-156 156l-157 -156l-40 40l156 156l-156 156l41 41l155 -156l156 156l41 -41l-156 -156z" />
    <glyph glyph-name="notequal" unicode="&#x2260;" horiz-adv-x="727" 
d="M789 664c0 -44 -24 -72 -58 -72c-36 0 -57 23 -57 50c0 21 8 44 34 51c0 0 -8 38 -61 38c-58 0 -86 -45 -86 -118v-127h123v-50h-124v-344c0 -35 8 -42 35 -42h85v-50h-300v50h64c24 0 30 9 30 36v350h-256v-344c0 -35 6 -42 35 -42h61v-50h-276v50h64c24 0 30 9 30 36
v350h-94v50h60c21 0 34 14 34 36v29c0 147 75 226 211 226c83 0 141 -29 166 -70c28 45 71 70 140 70c86 0 140 -50 140 -113zM474 522v70c-35 -1 -65 21 -65 50c0 21 8 44 34 51c0 0 -32 38 -102 38c-58 0 -122 -32 -122 -118v-127h221c21 0 34 14 34 36z" />
    <glyph glyph-name="lessequal" unicode="&#x2264;" 
d="M754 294l-234 -29l-100 -210l-99 211l-233 29l171 163l-42 228l205 -111l205 111l-44 -230zM584 350l-82 78l21 115l-100 -54l-103 55l22 -114l-84 -79l114 -14l49 -105l49 104z" />
    <glyph glyph-name="greaterequal" unicode="&#x2265;" 
d="M754 294l-234 -29l-100 -210l-99 211l-233 29l171 163l-42 228l205 -111l205 111l-44 -230zM584 350l-82 78l21 115l-100 -54l-103 55l22 -114l-84 -79l114 -14l49 -105l49 104z" />
    <glyph glyph-name="lozenge" unicode="&#x25ca;" 
d="M754 294l-234 -29l-100 -210l-99 211l-233 29l171 163l-42 228l205 -111l205 111l-44 -230zM584 350l-82 78l21 115l-100 -54l-103 55l22 -114l-84 -79l114 -14l49 -105l49 104z" />
    <glyph glyph-name="apple" unicode="&#xf8ff;" 
d="M754 294l-234 -29l-100 -210l-99 211l-233 29l171 163l-42 228l205 -111l205 111l-44 -230zM584 350l-82 78l21 115l-100 -54l-103 55l22 -114l-84 -79l114 -14l49 -105l49 104z" />
    <glyph glyph-name="NUL" horiz-adv-x="0" 
 />
    </font>
</defs>
</svg>
