<?xml version="1.0" standalone="no"?>
<!DOCTYPE svg PUBLIC "-//W3C//DTD SVG 1.1//EN" "http://www.w3.org/Graphics/SVG/1.1/DTD/svg11.dtd" >
<svg xmlns="http://www.w3.org/2000/svg">
<metadata></metadata>
<defs>
<font id="zurich_btroman" horiz-adv-x="1133" >
<font-face units-per-em="2048" ascent="1638" descent="-410" />
<missing-glyph horiz-adv-x="567" />
<glyph horiz-adv-x="2048" />
<glyph horiz-adv-x="2048" />
<glyph unicode="&#xd;" horiz-adv-x="567" />
<glyph unicode=" "  horiz-adv-x="567" />
<glyph unicode="&#x09;" horiz-adv-x="567" />
<glyph unicode="&#xa0;" horiz-adv-x="567" />
<glyph unicode="!" horiz-adv-x="758" d="M270 1475h219l-34 -1131h-150zM276 0v207h205v-207h-205z" />
<glyph unicode="&#x22;" horiz-adv-x="614" d="M90 881v555h139v-555h-139zM385 881v555h139v-555h-139z" />
<glyph unicode="#" horiz-adv-x="1575" d="M88 449l53 147h310l92 262h-330l51 146h332l162 454h166l-162 -454h256l164 454h164l-160 -454h301l-51 -146h-303l-93 -262h322l-51 -147h-322l-162 -453h-165l161 453h-258l-162 -453h-165l159 453h-309zM616 594h261l92 264h-260z" />
<glyph unicode="$" d="M63 406v20l191 -1q5 -126 67 -189.5t195 -75.5v487l-188 58q-127 38 -189.5 119.5t-62.5 209.5q0 167 119.5 274t320.5 117v170h100l1 -168q190 -3 299.5 -96t109.5 -250v-16h-182q-5 91 -62.5 143.5t-165.5 63.5v-453l103 -28q187 -51 268.5 -136t81.5 -227 q0 -190 -118 -301.5t-335 -126.5v-199h-100v199q-223 0 -338 102.5t-115 303.5zM268 1047q0 -66 36.5 -106t127.5 -71l84 -26v427q-109 -2 -178.5 -65.5t-69.5 -158.5zM616 625l1 -465q124 9 196 74.5t72 168.5q0 76 -45 127.5t-127 71.5z" />
<glyph unicode="%" horiz-adv-x="2015" d="M176 1073q0 182 84 279.5t240 97.5q153 0 236 -93t83 -265q0 -190 -85 -291t-245 -101q-150 0 -231.5 97.5t-81.5 275.5zM340 1077q0 -121 39.5 -185.5t114.5 -64.5q77 0 119 68.5t42 194.5q0 115 -40 177t-115 62q-77 0 -118.5 -65t-41.5 -187zM522 -25l842 1475h129 l-842 -1475h-129zM1194 348q0 182 84 279.5t240 97.5q154 0 237.5 -93.5t83.5 -264.5q0 -189 -86 -290.5t-246 -101.5q-150 0 -231.5 97.5t-81.5 275.5zM1360 352q0 -121 39.5 -185.5t113.5 -64.5q78 0 120 68.5t42 194.5q0 114 -41 176.5t-116 62.5q-77 0 -117.5 -64.5 t-40.5 -187.5z" />
<glyph unicode="&#x26;" horiz-adv-x="1241" d="M90 387q0 154 75 251t208 114q-109 27 -171.5 115.5t-62.5 215.5q0 187 120.5 290.5t338.5 103.5h164v-168h-148q-143 0 -207.5 -56.5t-64.5 -179.5q0 -120 67.5 -181t200.5 -61h183v224h200v-224h181v-165h-181v-666h-448q-114 0 -171 10.5t-102 34.5 q-85 44 -133.5 134.5t-48.5 207.5zM301 420q0 -140 63 -196t238 -56h191v498h-181q-167 0 -239 -58t-72 -188z" />
<glyph unicode="'" horiz-adv-x="317" d="M90 881v555h139v-555h-139z" />
<glyph unicode="(" horiz-adv-x="645" d="M164 618q0 179 50 383t169 496h139q-104 -335 -141 -521t-37 -341q0 -167 44.5 -380t150.5 -542h-142q-144 377 -188.5 561.5t-44.5 343.5z" />
<glyph unicode=")" horiz-adv-x="645" d="M106 1497h142q145 -379 189 -561.5t44 -341.5q0 -177 -50.5 -381t-170.5 -500h-137q104 335 141 521t37 341q0 167 -44.5 380t-150.5 542z" />
<glyph unicode="*" horiz-adv-x="1081" d="M135 1028v154l338 -37l-209 274l131 78l146 -313l133 313l133 -78l-199 -274l338 37v-154l-338 37l199 -281l-133 -79l-133 321l-146 -321l-131 79l209 281z" />
<glyph unicode="+" horiz-adv-x="1706" d="M254 541v139h528v541h142v-541h528v-139h-528v-541h-142v541h-528z" />
<glyph unicode="," horiz-adv-x="567" d="M98 -254l135 504h236l-229 -504h-142z" />
<glyph unicode="-" horiz-adv-x="678" d="M96 428v172h486v-172h-486z" />
<glyph unicode="." horiz-adv-x="567" d="M172 0v252h223v-252h-223z" />
<glyph unicode="/" horiz-adv-x="616" d="M-33 -147l535 1644h123l-535 -1644h-123z" />
<glyph unicode="0" d="M94 705q0 223 26 347t85 212q65 94 154.5 141t203.5 47q128 0 227 -58.5t160 -168.5q47 -86 67.5 -205t20.5 -336q0 -355 -116.5 -531t-352.5 -176q-244 0 -359.5 177t-115.5 551zM293 707q0 -295 66 -431.5t208 -136.5q140 0 205.5 141t65.5 443q0 289 -67 428t-206 139 q-138 0 -205 -143.5t-67 -439.5z" />
<glyph unicode="1" d="M256 999v211q105 50 181.5 103t133.5 114h197v-1427h-197v1194q-71 -60 -149.5 -108.5t-165.5 -86.5z" />
<glyph unicode="2" d="M121 0v205q397 360 545.5 546t148.5 310q0 101 -64 163t-167 62q-107 0 -165.5 -63t-58.5 -181h-217q6 195 118 302.5t308 107.5q203 0 324 -106.5t121 -286.5q0 -127 -62 -241.5t-262 -313.5l-336 -336h658v-168h-891z" />
<glyph unicode="3" d="M84 378h215q9 -118 70.5 -175.5t181.5 -57.5q134 0 212.5 67.5t78.5 180.5q0 129 -91.5 199t-261.5 70q-8 0 -24 -1.5t-25 -1.5l1 156q191 5 282.5 66t91.5 184q0 101 -65 160t-177 59q-115 0 -184.5 -57.5t-73.5 -155.5h-204q3 175 124.5 277t329.5 102 q209 0 332 -105.5t123 -281.5q0 -115 -65 -196.5t-193 -127.5q133 -27 207.5 -119t74.5 -229q0 -187 -137 -301.5t-366 -114.5q-218 0 -336.5 105t-120.5 298z" />
<glyph unicode="4" d="M51 307v250l611 870h227v-950h192v-170h-192v-307h-191v307h-647zM207 477h491v744z" />
<glyph unicode="5" d="M111 348h217q18 -101 78 -151t163 -50q127 0 198 88t71 246q0 142 -72 218.5t-205 76.5q-98 0 -161.5 -50t-80.5 -142h-184l33 843h786v-161h-614l-18 -455q68 67 136 96t156 29q190 0 309 -128t119 -333q0 -221 -141 -360.5t-369 -139.5q-187 0 -300.5 100.5 t-120.5 272.5z" />
<glyph unicode="6" d="M86 670q0 385 130.5 583.5t383.5 198.5q176 0 289 -96.5t122 -255.5h-204q-12 94 -69 147t-144 53q-151 0 -226 -136t-77 -414q51 88 136 135t194 47q185 0 303 -125t118 -326q0 -229 -128.5 -365t-340.5 -136q-244 0 -365.5 171.5t-121.5 518.5zM307 457 q0 -143 76 -230.5t197 -87.5q123 0 197.5 86.5t74.5 233.5q0 142 -74 228.5t-192 86.5q-122 0 -200.5 -88t-78.5 -229z" />
<glyph unicode="7" d="M96 1251v176h914v-192l-498 -1235h-242l551 1251h-725z" />
<glyph unicode="8" d="M80 397q0 137 78 226t233 129q-135 32 -212 120t-77 211q0 159 131 263t332 104q204 0 335.5 -103.5t131.5 -263.5q0 -127 -75 -215.5t-207 -115.5q143 -31 224 -127.5t81 -235.5q0 -185 -134 -299.5t-354 -114.5q-225 0 -356 114t-131 308zM289 397q0 -114 76 -186 t198 -72q127 0 205 72t78 188q0 120 -75.5 193.5t-201.5 73.5t-203 -75t-77 -194zM305 1071q0 -98 73 -164.5t187 -66.5q123 0 194.5 62.5t71.5 168.5q0 103 -72.5 165t-195.5 62q-110 0 -184 -65t-74 -162z" />
<glyph unicode="9" d="M84 958q0 222 130 357t337 135q246 0 367.5 -171t121.5 -515q0 -388 -128.5 -587.5t-379.5 -199.5q-180 0 -292 95.5t-121 254.5l207 1q12 -92 68 -144.5t143 -52.5q152 0 226.5 136.5t74.5 416.5q-53 -91 -138.5 -138.5t-195.5 -47.5q-186 0 -303 126.5t-117 333.5z M274 969q0 -141 74.5 -226.5t194.5 -85.5t198 88t78 228q0 143 -74 231t-192 88q-128 0 -203.5 -87t-75.5 -236z" />
<glyph unicode=":" horiz-adv-x="758" d="M268 0v252h221v-252h-221zM268 776v252h221v-252h-221z" />
<glyph unicode=";" horiz-adv-x="758" d="M141 -254l135 504h236l-229 -504h-142zM268 776v252h224v-252h-224z" />
<glyph unicode="&#x3c;" horiz-adv-x="1706" d="M264 547v129l1178 483v-153l-969 -396l969 -393v-154z" />
<glyph unicode="=" horiz-adv-x="1706" d="M254 342v139h1198v-139h-1198zM254 739v140h1198v-140h-1198z" />
<glyph unicode="&#x3e;" horiz-adv-x="1706" d="M264 63v154l971 393l-971 396v153l1178 -483v-129z" />
<glyph unicode="?" horiz-adv-x="1006" d="M131 1266v186q74 24 143.5 35.5t135.5 11.5q216 0 347.5 -101.5t131.5 -267.5q0 -182 -269 -437l-10 -9q-14 -14 -38 -35q-58 -53 -58 -135v-174h-170v199q0 102 55 157l2 2l24 24q251 257 251 382q0 100 -74 160.5t-199 60.5q-67 0 -135.5 -15t-136.5 -44zM326 0v213 h213v-213h-213z" />
<glyph unicode="@" horiz-adv-x="2048" d="M106 522q0 165 52 313t151 269q146 178 351.5 270t455.5 92q163 0 310 -45t253 -127q130 -100 197.5 -231t67.5 -283q0 -175 -63.5 -315t-184.5 -236q-68 -54 -149.5 -83t-166.5 -29q-99 0 -149.5 39.5t-50.5 117.5v19q-55 -89 -129 -131.5t-172 -42.5q-153 0 -233.5 85 t-80.5 247q0 235 138 394t339 159q85 0 145.5 -37.5t96.5 -112.5l57 115h132l-146 -576q-4 -16 -6 -31t-2 -28q0 -46 25.5 -70t74.5 -24q48 0 102.5 26.5t106.5 75.5q80 76 125 186.5t45 233.5q0 259 -190.5 420t-499.5 161q-133 0 -246 -28t-211 -86q-191 -114 -296 -299.5 t-105 -409.5q0 -177 61.5 -308t192.5 -230q100 -77 236.5 -118.5t287.5 -41.5q169 0 328.5 49t292.5 141l55 -82q-148 -111 -314.5 -167t-349.5 -56q-190 0 -348 47t-280 140q-154 118 -230 274t-76 354zM725 446q0 -105 48.5 -162t137.5 -57q97 0 174.5 69t104.5 179 l59 236q-17 88 -68.5 136t-129.5 48q-138 0 -232 -130t-94 -319z" />
<glyph unicode="A" horiz-adv-x="1460" d="M14 0l627 1475h211l592 -1475h-230l-147 381h-684l-164 -381h-205zM449 549h557l-271 727z" />
<glyph unicode="B" horiz-adv-x="1313" d="M170 0v1475h502q111 0 176.5 -10.5t116.5 -32.5q96 -46 149 -132.5t53 -199.5q0 -122 -61.5 -205.5t-177.5 -120.5q136 -38 207 -136t71 -247q0 -207 -117 -299t-391 -92h-528zM367 164h303q174 0 250.5 61t76.5 197q0 132 -81.5 197t-245.5 65h-303v-520zM367 848h284 q165 0 235 53t70 174q0 119 -75.5 177.5t-229.5 58.5h-284v-463z" />
<glyph unicode="C" horiz-adv-x="1356" d="M115 729q0 367 165 567.5t468 200.5q237 0 374 -109t142 -300h-209q-10 113 -99.5 183t-226.5 70q-190 0 -296.5 -159.5t-106.5 -446.5q0 -282 105 -436t298 -154q140 0 224.5 67t95.5 185h219q-4 -194 -149 -308t-390 -114q-299 0 -456.5 193.5t-157.5 560.5z" />
<glyph unicode="D" horiz-adv-x="1470" d="M170 0v1475h414q217 0 326 -29.5t196 -97.5q124 -98 190 -260.5t66 -370.5q0 -168 -47.5 -309.5t-134.5 -233.5q-91 -94 -210.5 -134t-332.5 -40h-467zM367 176h315q237 0 355 135t118 406q0 287 -131.5 441.5t-376.5 154.5h-280v-1137z" />
<glyph unicode="E" horiz-adv-x="1237" d="M170 0v1475h915v-175h-718v-448h688v-174h-688v-502h735v-176h-932z" />
<glyph unicode="F" horiz-adv-x="1126" d="M170 0v1475h858v-177h-661v-452h626v-176h-626v-670h-197z" />
<glyph unicode="G" horiz-adv-x="1524" d="M113 721q0 362 193 569t530 207q236 0 374 -104t144 -285h-215q-4 103 -96.5 170.5t-233.5 67.5q-229 0 -358 -163.5t-129 -453.5q0 -282 136.5 -437t385.5 -155q62 0 134.5 13t166.5 40v439h-307v166h516v-727q-145 -48 -273 -71.5t-245 -23.5q-339 0 -531 199t-192 549 z" />
<glyph unicode="H" horiz-adv-x="1462" d="M170 0v1475h201v-629h725v629h196v-1475h-196v670h-725v-670h-201z" />
<glyph unicode="I" horiz-adv-x="539" d="M170 0v1475h197v-1475h-197z" />
<glyph unicode="J" horiz-adv-x="1081" d="M45 356q0 8 1 22t1 21h195q0 -5 -1 -16t-1 -16q0 -107 57 -163.5t164 -56.5q141 0 201.5 79.5t60.5 273.5v975h197v-1010q0 -243 -113 -366.5t-336 -123.5q-203 0 -314.5 99.5t-111.5 281.5z" />
<glyph unicode="K" horiz-adv-x="1331" d="M170 0v1475h197v-633l606 633h264l-641 -656l719 -819h-283l-665 780v-780h-197z" />
<glyph unicode="L" horiz-adv-x="1096" d="M170 0v1475h195v-1299h671v-176h-866z" />
<glyph unicode="M" horiz-adv-x="1862" d="M172 0v1475h336l438 -1203l418 1203h326v-1475h-193v1319l-471 -1319h-170l-487 1305v-1305h-197z" />
<glyph unicode="N" horiz-adv-x="1503" d="M172 0v1475h281l698 -1203v1203h178v-1475h-242l-733 1251v-1251h-182z" />
<glyph unicode="O" horiz-adv-x="1579" d="M117 733q0 367 175.5 565.5t498.5 198.5t497 -197.5t174 -566.5q0 -363 -175 -560.5t-496 -197.5q-320 0 -497 199t-177 559zM328 743q0 -287 119.5 -442.5t340.5 -155.5q224 0 342.5 152.5t118.5 441.5t-119 442.5t-342 153.5q-222 0 -341 -153t-119 -439z" />
<glyph unicode="P" horiz-adv-x="1235" d="M170 0v1475h514q242 0 361.5 -101t119.5 -305q0 -218 -139.5 -320t-437.5 -102h-221v-647h-197zM367 829h284q164 0 234.5 55.5t70.5 180.5q0 129 -69.5 184.5t-235.5 55.5h-284v-476z" />
<glyph unicode="Q" horiz-adv-x="1579" d="M117 739q0 364 175.5 562t498.5 198q318 0 494.5 -194t176.5 -545q0 -197 -55 -341.5t-166 -240.5h307v-178h-514q-39 0 -115.5 -7t-113.5 -7q-330 0 -509 196t-179 557zM328 750q0 -286 119 -438t341 -152q224 0 342.5 151t118.5 437q0 285 -119 437t-342 152 q-221 0 -340.5 -152t-119.5 -435z" />
<glyph unicode="R" horiz-adv-x="1327" d="M170 0v1475h520q244 0 367 -97t123 -288q0 -132 -71.5 -223.5t-199.5 -125.5q97 -22 142.5 -68.5t68.5 -151.5q7 -33 30.5 -211.5t61.5 -309.5h-211q-31 125 -51.5 299t-36.5 217q-30 85 -93.5 117.5t-205.5 32.5h-247v-666h-197zM367 846h288q170 0 242 52t72 171 q0 120 -64.5 169.5t-249.5 49.5h-288v-442z" />
<glyph unicode="S" horiz-adv-x="1343" d="M115 412v20h210q5 -144 87.5 -213t253.5 -69q166 0 262 68.5t96 187.5q0 169 -344 255l-60 15q-19 5 -58 15q-195 48 -271 93q-75 45 -117.5 123.5t-42.5 173.5q0 192 149 304t408 112q229 0 360.5 -97.5t131.5 -266.5v-23h-199q-5 108 -85.5 166.5t-225.5 58.5 q-151 0 -240.5 -65.5t-89.5 -175.5q0 -145 331 -228q47 -12 72 -18q296 -76 391 -167.5t95 -256.5q0 -211 -147.5 -330t-409.5 -119q-284 0 -420.5 107t-136.5 330z" />
<glyph unicode="T" horiz-adv-x="1235" d="M29 1298v177h1177v-177h-491v-1298h-197v1298h-489z" />
<glyph unicode="U" horiz-adv-x="1491" d="M152 567v908h202v-871q0 -233 94 -341.5t293 -108.5q214 0 310 112.5t96 368.5v840h190v-963q0 -252 -162 -393.5t-452 -141.5q-283 0 -427 149t-144 441z" />
<glyph unicode="V" horiz-adv-x="1346" d="M33 1475h221l410 -1246l438 1246h213l-551 -1475h-217z" />
<glyph unicode="W" horiz-adv-x="2001" d="M33 1475h194l318 -1180l356 1180h223l324 -1207l332 1207h188l-426 -1475h-207l-334 1255l-374 -1255h-193z" />
<glyph unicode="X" horiz-adv-x="1434" d="M45 0l561 774l-491 701h231l391 -568l389 568h232l-512 -701l543 -774h-238l-430 639l-445 -639h-231z" />
<glyph unicode="Y" horiz-adv-x="1346" d="M18 1475h244l426 -719l414 719h225l-551 -893v-582h-196v582z" />
<glyph unicode="Z" horiz-adv-x="1233" d="M74 0v209l846 1089h-811v177h1024v-211l-838 -1082h864v-182h-1085z" />
<glyph unicode="[" horiz-adv-x="645" d="M213 -311v1786h348v-111h-188v-1565h188v-110h-348z" />
<glyph unicode="\" horiz-adv-x="616" d="M-33 1497h123l533 -1644h-121z" />
<glyph unicode="]" horiz-adv-x="645" d="M84 -201h186v1565h-186v111h348v-1786h-348v110z" />
<glyph unicode="^" horiz-adv-x="2048" d="M420 901l510 557h186l510 -557h-180l-422 420l-424 -420h-180z" />
<glyph unicode="_" horiz-adv-x="1024" d="M0 -340h1024v-143h-1024v143z" />
<glyph unicode="`" horiz-adv-x="1024" d="M250 1511h201l204 -348h-120z" />
<glyph unicode="a" horiz-adv-x="1087" d="M84 285q0 163 130 258.5t355 95.5h179v125q0 83 -51.5 125.5t-151.5 42.5q-95 0 -150.5 -47t-58.5 -129h-182v16q0 136 97.5 208.5t280.5 72.5q213 0 309.5 -75.5t96.5 -244.5v-635q0 -13 2.5 -39.5t7.5 -58.5h-170q-10 32 -20 156v6q-39 -91 -123.5 -139t-206.5 -48 q-156 0 -250 85t-94 225zM279 303q0 -75 55 -124.5t139 -49.5q133 0 204 71.5t71 207.5v102h-160q-147 0 -228 -54.5t-81 -152.5z" />
<glyph unicode="b" horiz-adv-x="1233" d="M145 0q7 51 10 101t3 104v1270h188v-603q78 89 162.5 130.5t185.5 41.5q208 0 322 -138.5t114 -393.5q0 -250 -119.5 -393.5t-328.5 -143.5q-109 0 -193.5 42t-142.5 124l-8 -141h-193zM346 496q0 -181 81.5 -288.5t215.5 -107.5q133 0 213 114.5t80 311.5 q0 181 -81 287.5t-216 106.5q-133 0 -213 -114.5t-80 -309.5z" />
<glyph unicode="c" horiz-adv-x="1057" d="M98 492q0 265 124.5 413t346.5 148q173 0 276 -93.5t103 -250.5v-4h-184q0 92 -60 153.5t-149 61.5q-121 0 -190.5 -102.5t-69.5 -280.5q0 -207 64.5 -312.5t191.5 -105.5q99 0 159 61.5t62 165.5h184q-12 -180 -115 -275.5t-286 -95.5q-219 0 -338 134.5t-119 382.5z " />
<glyph unicode="d" horiz-adv-x="1233" d="M100 506q0 253 119.5 395.5t331.5 142.5q105 0 190.5 -43.5t145.5 -128.5v603h188v-1270q0 -54 3 -104t9 -101h-192l-8 152q-72 -94 -149.5 -135.5t-180.5 -41.5q-212 0 -334.5 142t-122.5 389zM297 526q0 -196 80.5 -311t212.5 -115q135 0 216 106.5t81 287.5 q0 196 -80 311t-213 115q-135 0 -216 -106.5t-81 -287.5z" />
<glyph unicode="e" horiz-adv-x="1128" d="M102 494q0 271 122.5 415t350.5 144q209 0 329 -119.5t120 -325.5q0 -50 -1 -76t-3 -49h-729v-20v-41q0 -146 75 -225.5t212 -79.5q113 0 179.5 57.5t68.5 155.5h179q-1 -160 -114.5 -257.5t-300.5 -97.5q-240 0 -364 132t-124 387zM301 616h530v23q0 128 -70.5 206.5 t-182.5 78.5q-123 0 -200 -85t-77 -223z" />
<glyph unicode="f" horiz-adv-x="631" d="M-8 889v139h188v164q0 155 71 231t214 76q36 0 78.5 -4.5t93.5 -14.5v-151q-57 14 -82.5 18.5t-46.5 4.5q-67 0 -102 -42.5t-35 -121.5v-160h237v-139h-237v-889h-191v889h-188z" />
<glyph unicode="g" horiz-adv-x="1214" d="M102 549q0 230 119 366t320 136q120 0 201.5 -37.5t127.5 -112.5l7 127h178q-4 -44 -6 -86t-2 -96v-813q0 -230 -114.5 -335.5t-363.5 -105.5q-216 0 -315 82.5t-100 261.5h204q2 -103 60 -156.5t170 -53.5q137 0 202.5 67.5t65.5 208.5v193q-30 -61 -119 -104.5 t-186 -43.5q-217 0 -333 129t-116 373zM301 528q0 -167 79 -264.5t212 -97.5q130 0 208.5 105.5t78.5 287.5q0 166 -79.5 264.5t-211.5 98.5q-131 0 -209 -106t-78 -288z" />
<glyph unicode="h" horiz-adv-x="1204" d="M166 0v1475h190v-617q35 83 122 132.5t200 49.5q102 0 186.5 -37t132.5 -102q27 -36 38.5 -88t11.5 -176v-637h-189v649q0 130 -55.5 191t-173.5 61q-120 0 -196.5 -65t-76.5 -168v-668h-190z" />
<glyph unicode="i" horiz-adv-x="512" d="M145 1266v209h222v-209h-222zM162 0v1028h190v-1028h-190z" />
<glyph unicode="j" horiz-adv-x="512" d="M-27 -256q114 0 149.5 30t35.5 154v1100h190v-1139q0 -152 -66 -222t-208 -70q-19 0 -72 5q-19 2 -29 3v139zM143 1266v209h219v-209h-219z" />
<glyph unicode="k" horiz-adv-x="1008" d="M156 0v1475h190v-867l389 422h232l-428 -444l458 -586h-233l-418 551v-551h-190z" />
<glyph unicode="l" horiz-adv-x="512" d="M162 0v1475h190v-1475h-190z" />
<glyph unicode="m" horiz-adv-x="1868" d="M158 1028h192l6 -174q40 85 124 135.5t188 50.5t187.5 -44t150.5 -136q79 97 159 138.5t185 41.5q108 0 197 -45t128 -120q18 -35 25.5 -90t7.5 -156v-629h-184v655q0 120 -56.5 180t-169.5 60q-115 0 -188.5 -72t-73.5 -186v-637h-192v621q0 142 -55 209t-171 67 q-123 0 -192.5 -72.5t-69.5 -203.5v-621h-190v815q0 28 -2 85.5t-6 127.5z" />
<glyph unicode="n" horiz-adv-x="1204" d="M158 1028h192l6 -168q35 83 121.5 131.5t200.5 48.5q102 0 186.5 -37t132.5 -102q27 -36 38.5 -87t11.5 -175v-639h-189v649q0 130 -55.5 191t-173.5 61q-120 0 -196.5 -65t-76.5 -168v-668h-190v817q0 57 -2 109.5t-6 101.5z" />
<glyph unicode="o" horiz-adv-x="1233" d="M106 494q0 258 137.5 407.5t374.5 149.5q240 0 373 -139.5t133 -389.5q0 -259 -137.5 -403t-386.5 -144q-229 0 -361.5 139t-132.5 380zM301 504q0 -184 82 -284.5t231 -100.5t233.5 106.5t84.5 294.5t-82 291.5t-232 103.5q-146 0 -231.5 -110.5t-85.5 -300.5z" />
<glyph unicode="p" horiz-adv-x="1233" d="M145 1028h193l8 -154q58 90 140.5 134.5t191.5 44.5q213 0 332.5 -141.5t119.5 -393.5q0 -259 -115.5 -396.5t-332.5 -137.5q-104 0 -190 44.5t-146 129.5v-547h-188v1214q0 52 -3 101.5t-10 101.5zM346 535q0 -196 80.5 -311t212.5 -115q135 0 216 107t81 288 q0 196 -79.5 310t-213.5 114t-215.5 -106.5t-81.5 -286.5z" />
<glyph unicode="q" horiz-adv-x="1233" d="M100 518q0 252 120.5 393.5t334.5 141.5q108 0 190 -44.5t140 -134.5l8 154h192q-5 -45 -7.5 -89.5t-2.5 -113.5v-1214h-190v547q-60 -85 -146 -129.5t-188 -44.5q-218 0 -334.5 138t-116.5 396zM297 504q0 -181 81 -288t216 -107q132 0 211.5 114.5t79.5 311.5 q0 180 -81.5 286.5t-215.5 106.5q-133 0 -212 -113.5t-79 -310.5z" />
<glyph unicode="r" horiz-adv-x="758" d="M150 1028h190l4 -197q28 98 100.5 147.5t188.5 49.5q21 0 40.5 -1.5t37.5 -5.5v-177q-31 6 -57 9t-46 3q-127 0 -195.5 -72t-68.5 -206v-578h-188v866q0 51 -1.5 88t-4.5 74z" />
<glyph unicode="s" horiz-adv-x="1006" d="M84 285v24h190v-4q0 -84 59.5 -135t158.5 -51q96 0 155.5 45t59.5 117q0 53 -30 86t-94 49l-218 51q-138 32 -205.5 99t-67.5 169q0 141 114.5 228.5t301.5 87.5q173 0 273 -72.5t100 -198.5q0 -12 -0.5 -18.5t-1.5 -11.5h-189v8q0 74 -52.5 117t-143.5 43 q-89 0 -147 -43t-58 -107q0 -50 35 -80.5t116 -52.5l234 -64q121 -32 179 -100t58 -176q0 -146 -111 -233t-300 -87q-215 0 -315.5 75t-100.5 235z" />
<glyph unicode="t" horiz-adv-x="649" d="M20 893v135h175v211l188 64v-275h229v-135h-229v-631q0 -80 26.5 -105.5t104.5 -25.5q20 0 43 3.5t51 10.5v-143q-46 -12 -83 -18.5t-66 -6.5q-145 0 -204.5 50t-59.5 168v698h-175z" />
<glyph unicode="u" horiz-adv-x="1204" d="M158 383v645h188v-657q0 -130 56 -191t173 -61q120 0 196.5 66t76.5 169v674h190v-825q0 -61 2 -110.5t7 -92.5h-193l-6 162q-35 -83 -122.5 -132.5t-201.5 -49.5q-100 0 -184 37.5t-133 103.5q-27 36 -38 87t-11 175z" />
<glyph unicode="v" horiz-adv-x="1112" d="M33 1028h192l328 -815l332 815h188l-434 -1028h-186z" />
<glyph unicode="w" horiz-adv-x="1659" d="M23 1028h186l256 -825l258 825h231l234 -825l262 825h184l-356 -1028h-199l-248 864l-270 -864h-201z" />
<glyph unicode="x" horiz-adv-x="1118" d="M27 0l395 541l-369 487h242l270 -385l283 385h219l-391 -496l393 -532h-244l-293 414l-288 -414h-217z" />
<glyph unicode="y" horiz-adv-x="1112" d="M33 1028h192l328 -815l332 815h188l-602 -1417h-176l158 389z" />
<glyph unicode="z" horiz-adv-x="899" d="M66 0v190l548 697h-514v141h723v-166l-563 -717h561v-145h-755z" />
<glyph unicode="{" horiz-adv-x="1024" d="M168 457v149q8 0 23 -1t22 -1q130 0 184 60.5t54 207.5v246q0 148 22.5 210.5t77.5 96.5q45 28 108.5 40t169.5 12h37v-150h-41q-120 0 -161 -44.5t-41 -184.5v-242q0 -160 -44.5 -228t-156.5 -98q113 -28 157 -96t44 -229v-242q0 -141 41.5 -185t162.5 -44h39v-148h-43 q-108 0 -169 11.5t-103 37.5q-55 34 -77.5 97t-22.5 211v245q0 149 -54.5 210t-185.5 61q-7 0 -21.5 -1t-21.5 -1z" />
<glyph unicode="|" horiz-adv-x="1024" d="M438 -483v2048h150v-2048h-150z" />
<glyph unicode="}" horiz-adv-x="1024" d="M160 -266h39q120 0 162 45t42 186v240q0 160 44.5 228t156.5 97q-112 30 -156.5 98t-44.5 228v242q0 140 -42 184.5t-162 44.5h-39v150h37q107 0 171 -12.5t107 -39.5q55 -34 77.5 -96.5t22.5 -210.5v-246q0 -147 54 -207.5t184 -60.5q7 0 22 1t23 1v-149q-7 0 -22 1 t-21 1q-132 0 -186 -60.5t-54 -210.5v-245q0 -148 -22.5 -211t-77.5 -97q-42 -26 -103 -37.5t-169 -11.5h-43v148z" />
<glyph unicode="~" horiz-adv-x="1706" d="M178 451v155q106 72 202 108t185 36q62 0 127.5 -13.5t163.5 -48.5q16 -5 47 -17q159 -57 240 -57q88 0 179.5 37t207.5 119v-156q-104 -72 -199 -106.5t-190 -34.5q-93 0 -256 58q-22 8 -34 12q-5 2 -15 5q-176 60 -273 60q-84 0 -175 -37t-210 -120z" />
<glyph unicode="&#xa0;" />
<glyph unicode="&#xa1;" horiz-adv-x="758" d="M270 0l33 1130h150l36 -1130h-219zM276 1268v207h205v-207h-205z" />
<glyph unicode="&#xa2;" d="M137 522q0 260 122 411.5t329 151.5q29 0 99 -9q14 -2 22 -3l71 252l103 -29l-76 -256q92 -46 135 -118.5t45 -183.5h-184q-2 46 -12 77.5t-31 54.5l-205 -716q5 0 20 -1t25 -1q92 0 150.5 62t61.5 163h183q-7 -171 -115.5 -274t-277.5 -103q-14 0 -34.5 2.5t-51.5 7.5 l-78 -276l-102 30l78 269q-135 49 -206 174.5t-71 314.5zM334 569q0 -148 30 -238t95 -141l208 745q-19 8 -39 11.5t-40 3.5q-116 0 -185 -102t-69 -279z" />
<glyph unicode="&#xa3;" d="M70 0v156h145v534h-145v139h145v175q0 229 107.5 337.5t332.5 108.5q214 0 326 -84t114 -246l-200 1q-5 94 -64 144t-165 50q-113 0 -180.5 -64t-67.5 -172v-250h280v-139h-280v-534h639v-156h-987z" />
<glyph unicode="&#xa4;" horiz-adv-x="1241" d="M80 428l207 205q-41 51 -62.5 116t-21.5 136q0 70 21 133t63 119l-207 206l82 80l205 -204q57 43 120 64.5t134 21.5t134.5 -21.5t121.5 -64.5l204 204l82 -80l-205 -206q41 -55 61.5 -118t20.5 -134q0 -73 -20 -135.5t-62 -116.5l205 -205l-82 -82l-204 205 q-59 -44 -122 -65t-132 -21q-72 0 -135.5 21.5t-120.5 64.5l-205 -205zM319 887q0 -126 89 -215.5t215 -89.5q125 0 214 89.5t89 215.5q0 125 -89 214t-214 89q-126 0 -215 -89t-89 -214z" />
<glyph unicode="&#xa5;" horiz-adv-x="1239" d="M-33 1427h226l438 -712l424 712h211l-279 -440h227v-96h-290l-131 -207h421v-94h-483l-14 -27v-563h-191v563l-16 27h-485v94h424l-134 207h-290v96h229z" />
<glyph unicode="&#xa6;" horiz-adv-x="1024" d="M438 -350v758h150v-758h-150zM438 674v758h150v-758h-150z" />
<glyph unicode="&#xa7;" horiz-adv-x="1081" d="M186 707q0 92 57.5 162.5t166.5 113.5q-94 31 -143.5 91t-49.5 143q0 130 98 205t271 75q47 0 105 -9t134 -28v-155q-65 27 -126 41t-111 14q-80 0 -124 -36.5t-44 -100.5q0 -95 181 -151l30 -9q139 -44 194.5 -102t55.5 -154q0 -85 -56 -156.5t-153 -109.5 q109 -26 166 -92.5t57 -167.5q0 -142 -111 -224t-305 -82q-58 0 -122 11t-136 32v175q77 -35 140.5 -51.5t117.5 -16.5q100 0 156.5 42.5t56.5 117.5q0 96 -174 150l-30 9q-193 62 -247.5 116.5t-54.5 146.5zM358 760q0 -56 60 -108t119 -52q51 0 114.5 61.5t63.5 118.5 t-66.5 106.5t-128.5 49.5q-44 0 -103 -60.5t-59 -115.5z" />
<glyph unicode="&#xa8;" horiz-adv-x="1024" d="M256 1223v209h182v-209h-182zM586 1223v209h182v-209h-182z" />
<glyph unicode="&#xa9;" horiz-adv-x="1706" d="M117 727q0 147 56 281.5t163 242.5q104 104 236 158.5t280 54.5q152 0 285.5 -54.5t238.5 -160.5q104 -103 159.5 -238.5t55.5 -283.5q0 -149 -54.5 -281.5t-158.5 -234.5q-110 -107 -245.5 -164t-280.5 -57t-278.5 56t-239.5 163q-106 105 -161.5 238.5t-55.5 279.5z M213 727q0 -126 49 -242t141 -209q92 -91 207.5 -139.5t243.5 -48.5q125 0 242 49t213 142q90 88 137 202.5t47 245.5q0 130 -47.5 246.5t-136.5 206.5q-93 92 -209 140t-246 48q-129 0 -243.5 -47t-204.5 -137q-93 -93 -143 -211.5t-50 -245.5zM463 733q0 200 109 322.5 t286 122.5q142 0 236.5 -75t105.5 -196h-147q-13 77 -66 118.5t-139 41.5q-105 0 -165 -90.5t-60 -249.5q0 -157 62 -244.5t173 -87.5q82 0 136.5 47t68.5 129h145q-9 -130 -107.5 -211t-248.5 -81q-182 0 -285.5 120t-103.5 334z" />
<glyph unicode="&#xaa;" horiz-adv-x="815" d="M63 952q0 115 98 181.5t267 66.5h133v88q0 59 -38 89t-113 30q-72 0 -113.5 -33t-44.5 -91l-137 -1v12q0 96 73 146.5t211 50.5q160 0 233 -53t73 -170v-445q0 -18 1.5 -34.5t3.5 -34.5h-126q-8 20 -13 96q-1 10 -2 16q-29 -63 -92 -96t-155 -33q-118 0 -188.5 59 t-70.5 156zM209 967q0 -54 41 -88.5t104 -34.5q101 0 154 50t53 144v72h-121q-110 0 -170.5 -38t-60.5 -105z" />
<glyph unicode="&#xab;" horiz-adv-x="1001" d="M115 522l213 393h164l-183 -393l193 -409h-162zM500 522l213 393h164l-183 -393l195 -409h-162z" />
<glyph unicode="&#xac;" horiz-adv-x="1706" d="M254 721v139h1198v-502h-137v363h-1061z" />
<glyph unicode="&#xad;" horiz-adv-x="678" d="M96 428v172h486v-172h-486z" />
<glyph unicode="&#xae;" horiz-adv-x="1706" d="M117 727q0 146 57.5 282.5t165.5 245.5q101 103 231.5 156t280.5 53q151 0 286 -56t240 -163q103 -104 158 -238t55 -280q0 -151 -55 -283.5t-160 -234.5q-109 -106 -244.5 -162.5t-279.5 -56.5q-147 0 -280.5 56.5t-239.5 164.5q-105 106 -160 238.5t-55 277.5zM213 727 q0 -125 48.5 -240.5t139.5 -207.5q90 -92 206.5 -141.5t240.5 -49.5q130 0 246.5 48t212.5 140q90 88 138 202.5t48 242.5q0 134 -46.5 251t-135.5 206q-92 93 -208.5 141.5t-248.5 48.5q-130 0 -245 -47t-201 -135q-94 -95 -144.5 -214t-50.5 -245zM557 324v835h315 q174 0 261.5 -57.5t87.5 -171.5q0 -89 -50 -148t-141 -77l187 -381h-177l-170 356h-155v-356h-158zM715 780h133q113 0 162 31.5t49 101.5q0 76 -51 110t-164 34h-129v-277z" />
<glyph unicode="&#xaf;" horiz-adv-x="1024" d="M242 1257v140h540v-140h-540z" />
<glyph unicode="&#xb0;" horiz-adv-x="674" d="M49 1167q0 120 84.5 204.5t204.5 84.5q118 0 202.5 -84.5t84.5 -204.5q0 -119 -84 -202.5t-205 -83.5t-204 83t-83 203zM143 1169q0 -81 57 -138.5t138 -57.5t136.5 57.5t55.5 138.5t-55.5 137t-136.5 56t-138 -56t-57 -137z" />
<glyph unicode="&#xb1;" horiz-adv-x="1706" d="M254 29v141h1198v-141h-1198zM254 713v139h528v340h142v-340h528v-139h-528v-340h-142v340h-528z" />
<glyph unicode="&#xb2;" horiz-adv-x="748" d="M80 571v123q261 215 360 327.5t99 186.5q0 60 -43 97.5t-111 37.5q-71 0 -109 -38t-38 -109h-143q4 117 77.5 181.5t202.5 64.5q135 0 215 -63.5t80 -172.5q0 -75 -41.5 -143t-173.5 -189l-222 -202h435v-101h-588z" />
<glyph unicode="&#xb3;" horiz-adv-x="748" d="M56 799h141q6 -72 46.5 -106t121.5 -34q88 0 139 40t51 108q0 77 -60.5 119.5t-170.5 42.5q-7 0 -17.5 -1t-15.5 -1v94q127 3 187.5 39t60.5 110q0 61 -43.5 96t-116.5 35q-77 0 -122.5 -34t-47.5 -92h-135q2 105 81.5 166t217.5 61t219.5 -63.5t81.5 -170.5 q0 -68 -43 -116.5t-127 -75.5q87 -17 136.5 -72.5t49.5 -136.5q0 -112 -91 -181t-243 -69q-143 0 -221 63t-79 179z" />
<glyph unicode="&#xb4;" horiz-adv-x="1024" d="M369 1163l204 348h201l-285 -348h-120z" />
<glyph unicode="&#xb5;" horiz-adv-x="1151" d="M-113 -428l318 1499h180l-129 -600q-7 -32 -10.5 -64.5t-3.5 -68.5q0 -99 52 -153t148 -54q132 0 208.5 92.5t123.5 311.5l115 536h178l-156 -732q-1 -6 -4 -20q-18 -87 -18 -112q0 -37 16.5 -52.5t55.5 -15.5q12 0 18.5 0.5t13.5 1.5l-31 -143q-24 -5 -50 -7.5t-58 -2.5 q-63 0 -97 29t-52 100q-45 -66 -112.5 -98.5t-158.5 -32.5q-82 0 -143 27.5t-113 88.5l-110 -530h-181z" />
<glyph unicode="&#xb6;" horiz-adv-x="1024" d="M66 1130q0 157 107.5 253t285.5 96h499v-86h-120v-1393h-111v1393h-176v-1393h-113v782q-170 8 -271 102.5t-101 245.5z" />
<glyph unicode="&#xb7;" horiz-adv-x="567" d="M143 715q0 58 40.5 98.5t99.5 40.5q58 0 99.5 -41t41.5 -98q0 -58 -42 -100t-99 -42q-59 0 -99.5 41t-40.5 101z" />
<glyph unicode="&#xb8;" horiz-adv-x="1024" d="M256 -326q76 -18 140.5 -28.5t105.5 -10.5q62 0 91.5 20.5t29.5 61.5q0 43 -32.5 64.5t-94.5 21.5q-20 0 -33.5 -0.5t-26.5 -0.5v198h76v-102h29q109 0 166 -46t57 -135q0 -91 -64.5 -139.5t-185.5 -48.5q-48 0 -114 11.5t-144 33.5v100z" />
<glyph unicode="&#xb9;" horiz-adv-x="748" d="M170 1171v127q73 33 122.5 63.5t84.5 65.5h131v-856h-131v717q-50 -38 -101.5 -67t-105.5 -50z" />
<glyph unicode="&#xba;" horiz-adv-x="926" d="M80 1100q0 180 103 284.5t282 104.5t279 -97t100 -272q0 -182 -103.5 -282.5t-289.5 -100.5q-173 0 -272 97t-99 266zM225 1106q0 -128 62 -198t174 -70q111 0 174 74t63 206q0 133 -61 205t-172 72t-175.5 -78t-64.5 -211z" />
<glyph unicode="&#xbb;" horiz-adv-x="1001" d="M113 113l194 409l-182 393h164l213 -393l-228 -409h-161zM500 113l192 409l-182 393h164l213 -393l-228 -409h-159z" />
<glyph unicode="&#xbc;" horiz-adv-x="1769" d="M162 1188v119q67 29 114.5 58t83.5 62h123v-798h-123v667q-45 -32 -94.5 -59t-103.5 -49zM373 -25l899 1475h125l-899 -1475h-125zM1090 172v139l383 488h143v-533h123v-94h-123v-172h-119v172h-407zM1188 266h309v418z" />
<glyph unicode="&#xbd;" horiz-adv-x="1769" d="M162 1188v119q67 29 114.5 58t83.5 62h123v-798h-123v667q-45 -32 -94.5 -59t-103.5 -49zM373 -25l899 1475h125l-899 -1475h-125zM1133 0v115q247 198 342.5 303.5t95.5 175.5q0 57 -40.5 92t-105.5 35q-67 0 -104 -36t-37 -101h-137q5 110 74.5 169.5t193.5 59.5 q128 0 204.5 -59.5t76.5 -159.5q0 -71 -39 -135t-166 -176l-211 -189h414v-94h-561z" />
<glyph unicode="&#xbe;" horiz-adv-x="1769" d="M53 842h135q7 -68 45 -99.5t113 -31.5q86 0 135 37.5t49 101.5q0 71 -57.5 110t-163.5 39q-5 0 -16 -1t-17 -1l1 88q122 4 179.5 37.5t57.5 102.5q0 56 -41.5 89.5t-112.5 33.5t-115.5 -33t-46.5 -86h-128q1 97 77.5 154t208.5 57t209.5 -58.5t77.5 -156.5 q0 -65 -41 -110.5t-123 -72.5q85 -15 131.5 -66t46.5 -128q0 -105 -86 -169.5t-231 -64.5q-137 0 -212 59.5t-75 168.5zM371 -25l899 1475h125l-899 -1475h-125zM1087 172v139l383 488h144v-533h123v-94h-123v-172h-119v172h-408zM1186 266h309v418z" />
<glyph unicode="&#xbf;" horiz-adv-x="1006" d="M115 344q0 180 267 432l28 27q9 9 26 24q56 51 56 134v174h170v-199q0 -66 -8 -93t-50 -69l-29 -30q-245 -250 -245 -373q0 -101 74 -162.5t198 -61.5q65 0 133.5 15.5t138.5 46.5v-189q-70 -22 -140.5 -33.5t-139.5 -11.5q-216 0 -347.5 102t-131.5 267zM467 1262v213 h213v-213h-213z" />
<glyph unicode="&#xc0;" horiz-adv-x="1460" d="M14 0l627 1475h211l592 -1475h-230l-147 381h-684l-164 -381h-205zM449 549h557l-271 727zM477 1957h201l204 -348h-120z" />
<glyph unicode="&#xc1;" horiz-adv-x="1460" d="M14 0l627 1475h211l592 -1475h-230l-147 381h-684l-164 -381h-205zM449 549h557l-271 727zM596 1609l204 348h201l-285 -348h-120z" />
<glyph unicode="&#xc2;" horiz-adv-x="1460" d="M14 0l627 1475h211l592 -1475h-230l-147 381h-684l-164 -381h-205zM444 1609l197 348h196l197 -348h-123l-172 230l-174 -230h-121zM449 549h557l-271 727z" />
<glyph unicode="&#xc3;" horiz-adv-x="1460" d="M14 0l627 1475h211l592 -1475h-230l-147 381h-684l-164 -381h-205zM446 1656q18 99 68 152t125 53q17 0 32 -2t27 -6l99 -29q19 -5 32 -7.5t21 -2.5q33 0 56.5 18.5t37.5 55.5h88q-20 -102 -70.5 -155.5t-126.5 -53.5q-14 0 -30.5 2.5t-34.5 7.5l-97 27q-13 4 -25.5 6 t-23.5 2q-31 0 -53.5 -17t-36.5 -51h-88zM449 549h557l-271 727z" />
<glyph unicode="&#xc4;" horiz-adv-x="1460" d="M14 0l627 1475h211l592 -1475h-230l-147 381h-684l-164 -381h-205zM449 549h557l-271 727zM483 1669v209h182v-209h-182zM813 1669v209h182v-209h-182z" />
<glyph unicode="&#xc5;" horiz-adv-x="1460" d="M14 0l627 1456h211l592 -1456h-230l-147 381h-684l-164 -381h-205zM449 549h557l-271 727zM518 1743q0 95 67 162t163 67q94 0 160.5 -67t66.5 -162t-66 -161t-161 -66q-96 0 -163 66t-67 161zM633 1745q0 -49 33.5 -83t81.5 -34q46 0 81 35t35 82q0 45 -35.5 81 t-80.5 36q-48 0 -81.5 -34.5t-33.5 -82.5z" />
<glyph unicode="&#xc6;" horiz-adv-x="2015" d="M-20 0l831 1475h1049v-179h-740l76 -450h635v-176h-604l86 -492h571v-178h-745l-64 399h-661l-219 -399h-215zM514 575h533l-121 748z" />
<glyph unicode="&#xc7;" horiz-adv-x="1356" d="M115 729q0 367 165 567.5t468 200.5q237 0 374 -109t142 -300h-209q-10 113 -99.5 183t-226.5 70q-190 0 -296.5 -159.5t-106.5 -446.5q0 -282 105 -436t298 -154q140 0 224.5 67t95.5 185h219q-4 -194 -149 -308t-390 -114q-299 0 -456.5 193.5t-157.5 560.5zM463 -326 q76 -18 140.5 -28.5t105.5 -10.5q62 0 91.5 20.5t29.5 61.5q0 43 -32.5 64.5t-94.5 21.5q-20 0 -33.5 -0.5t-26.5 -0.5v198h76v-102h29q109 0 166 -46t57 -135q0 -91 -64.5 -139.5t-185.5 -48.5q-48 0 -114 11.5t-144 33.5v100z" />
<glyph unicode="&#xc8;" horiz-adv-x="1237" d="M170 0v1475h915v-175h-718v-448h688v-174h-688v-502h735v-176h-932zM363 1957h201l204 -348h-120z" />
<glyph unicode="&#xc9;" horiz-adv-x="1237" d="M170 0v1475h915v-175h-718v-448h688v-174h-688v-502h735v-176h-932zM482 1609l204 348h201l-285 -348h-120z" />
<glyph unicode="&#xca;" horiz-adv-x="1237" d="M170 0v1475h915v-175h-718v-448h688v-174h-688v-502h735v-176h-932zM330 1609l197 348h196l197 -348h-123l-172 230l-174 -230h-121z" />
<glyph unicode="&#xcb;" horiz-adv-x="1237" d="M170 0v1475h915v-175h-718v-448h688v-174h-688v-502h735v-176h-932zM369 1669v209h182v-209h-182zM699 1669v209h182v-209h-182z" />
<glyph unicode="&#xcc;" horiz-adv-x="539" d="M8 1957h201l204 -348h-120zM170 0v1475h197v-1475h-197z" />
<glyph unicode="&#xcd;" horiz-adv-x="539" d="M127 1609l204 348h201l-285 -348h-120zM170 0v1475h197v-1475h-197z" />
<glyph unicode="&#xce;" horiz-adv-x="539" d="M-25 1609l197 348h196l197 -348h-123l-172 230l-174 -230h-121zM170 0v1475h197v-1475h-197z" />
<glyph unicode="&#xcf;" horiz-adv-x="539" d="M14 1669v209h182v-209h-182zM170 0v1475h197v-1475h-197zM344 1669v209h182v-209h-182z" />
<glyph unicode="&#xd0;" horiz-adv-x="1481" d="M0 680v156h186v643h412q208 0 320.5 -30t201.5 -99q125 -98 191.5 -261t66.5 -370q0 -170 -47.5 -311.5t-134.5 -233.5q-89 -94 -208.5 -134t-336.5 -40h-465v680h-186zM381 176h315q237 0 355 135t118 406q0 287 -131.5 441.5t-375.5 154.5h-281v-477h344v-156h-344 v-504z" />
<glyph unicode="&#xd1;" horiz-adv-x="1503" d="M172 0v1475h281l698 -1203v1203h178v-1475h-242l-733 1251v-1251h-182zM471 1656q18 99 68 152t125 53q17 0 32 -2t27 -6l99 -29q19 -5 32 -7.5t21 -2.5q33 0 56.5 18.5t37.5 55.5h88q-20 -102 -70.5 -155.5t-126.5 -53.5q-14 0 -30.5 2.5t-34.5 7.5l-97 27 q-13 4 -25.5 6t-23.5 2q-31 0 -53.5 -17t-36.5 -51h-88z" />
<glyph unicode="&#xd2;" horiz-adv-x="1579" d="M117 733q0 367 175.5 565.5t498.5 198.5t497 -197.5t174 -566.5q0 -363 -175 -560.5t-496 -197.5q-320 0 -497 199t-177 559zM328 743q0 -287 119.5 -442.5t340.5 -155.5q224 0 342.5 152.5t118.5 441.5t-119 442.5t-342 153.5q-222 0 -341 -153t-119 -439zM529 1957h201 l204 -348h-120z" />
<glyph unicode="&#xd3;" horiz-adv-x="1579" d="M117 733q0 367 175.5 565.5t498.5 198.5t497 -197.5t174 -566.5q0 -363 -175 -560.5t-496 -197.5q-320 0 -497 199t-177 559zM328 743q0 -287 119.5 -442.5t340.5 -155.5q224 0 342.5 152.5t118.5 441.5t-119 442.5t-342 153.5q-222 0 -341 -153t-119 -439zM648 1609 l204 348h201l-285 -348h-120z" />
<glyph unicode="&#xd4;" horiz-adv-x="1579" d="M117 733q0 367 175.5 565.5t498.5 198.5t497 -197.5t174 -566.5q0 -363 -175 -560.5t-496 -197.5q-320 0 -497 199t-177 559zM328 743q0 -287 119.5 -442.5t340.5 -155.5q224 0 342.5 152.5t118.5 441.5t-119 442.5t-342 153.5q-222 0 -341 -153t-119 -439zM496 1609 l197 348h196l197 -348h-123l-172 230l-174 -230h-121z" />
<glyph unicode="&#xd5;" horiz-adv-x="1579" d="M117 733q0 367 175.5 565.5t498.5 198.5t497 -197.5t174 -566.5q0 -363 -175 -560.5t-496 -197.5q-320 0 -497 199t-177 559zM328 743q0 -287 119.5 -442.5t340.5 -155.5q224 0 342.5 152.5t118.5 441.5t-119 442.5t-342 153.5q-222 0 -341 -153t-119 -439zM498 1656 q18 99 68 152t125 53q17 0 32 -2t27 -6l99 -29q19 -5 32 -7.5t21 -2.5q33 0 56.5 18.5t37.5 55.5h88q-20 -102 -70.5 -155.5t-126.5 -53.5q-14 0 -30.5 2.5t-34.5 7.5l-97 27q-13 4 -25.5 6t-23.5 2q-31 0 -53.5 -17t-36.5 -51h-88z" />
<glyph unicode="&#xd6;" horiz-adv-x="1579" d="M117 733q0 367 175.5 565.5t498.5 198.5t497 -197.5t174 -566.5q0 -363 -175 -560.5t-496 -197.5q-320 0 -497 199t-177 559zM328 743q0 -287 119.5 -442.5t340.5 -155.5q224 0 342.5 152.5t118.5 441.5t-119 442.5t-342 153.5q-222 0 -341 -153t-119 -439zM535 1669v209 h182v-209h-182zM865 1669v209h182v-209h-182z" />
<glyph unicode="&#xd7;" horiz-adv-x="1706" d="M293 141l469 469l-469 469l98 99l469 -469l469 469l98 -99l-469 -469l469 -469l-98 -96l-469 467l-469 -467z" />
<glyph unicode="&#xd8;" horiz-adv-x="1579" d="M117 733q0 367 175.5 565.5t498.5 198.5q111 0 197.5 -21t160.5 -65l139 217l92 -57l-145 -223q114 -95 170.5 -247.5t56.5 -367.5q0 -363 -175 -560.5t-496 -197.5q-111 0 -201 24t-174 75l-166 -256l-88 57l170 260q-109 101 -162 249t-53 349zM332 743q0 -135 27 -242 t81 -190l613 949q-62 38 -126 56.5t-134 18.5q-223 0 -342 -153t-119 -439zM518 231q60 -45 125 -65.5t150 -20.5q227 0 344.5 154.5t117.5 452.5q0 158 -30.5 266t-91.5 168z" />
<glyph unicode="&#xd9;" horiz-adv-x="1491" d="M152 567v908h202v-871q0 -233 94 -341.5t293 -108.5q214 0 310 112.5t96 368.5v840h190v-963q0 -252 -162 -393.5t-452 -141.5q-283 0 -427 149t-144 441zM483 1957h201l204 -348h-120z" />
<glyph unicode="&#xda;" horiz-adv-x="1491" d="M152 567v908h202v-871q0 -233 94 -341.5t293 -108.5q214 0 310 112.5t96 368.5v840h190v-963q0 -252 -162 -393.5t-452 -141.5q-283 0 -427 149t-144 441zM602 1609l204 348h201l-285 -348h-120z" />
<glyph unicode="&#xdb;" horiz-adv-x="1491" d="M152 567v908h202v-871q0 -233 94 -341.5t293 -108.5q214 0 310 112.5t96 368.5v840h190v-963q0 -252 -162 -393.5t-452 -141.5q-283 0 -427 149t-144 441zM450 1609l197 348h196l197 -348h-123l-172 230l-174 -230h-121z" />
<glyph unicode="&#xdc;" horiz-adv-x="1491" d="M152 567v908h202v-871q0 -233 94 -341.5t293 -108.5q214 0 310 112.5t96 368.5v840h190v-963q0 -252 -162 -393.5t-452 -141.5q-283 0 -427 149t-144 441zM489 1669v209h182v-209h-182zM819 1669v209h182v-209h-182z" />
<glyph unicode="&#xdd;" horiz-adv-x="1346" d="M18 1475h244l426 -719l414 719h225l-551 -893v-582h-196v582zM531 1609l204 348h201l-285 -348h-120z" />
<glyph unicode="&#xde;" horiz-adv-x="1235" d="M170 0v1475h197v-299h317q242 0 361.5 -101t119.5 -305q0 -218 -139.5 -320t-437.5 -102h-221v-348h-197zM367 530h284q164 0 234.5 55.5t70.5 180.5q0 129 -69.5 184.5t-235.5 55.5h-284v-476z" />
<glyph unicode="&#xdf;" horiz-adv-x="1319" d="M156 0v1063q0 229 109.5 332.5t348.5 103.5q202 0 318.5 -81.5t116.5 -221.5q0 -60 -25 -108t-76 -87q-18 -14 -50 -37q-101 -75 -101 -133q0 -69 124 -140q48 -27 74 -44q113 -74 162 -150.5t49 -177.5q0 -148 -112 -242.5t-291 -94.5q-154 0 -237 79t-89 232h190 q4 -83 45.5 -126.5t116.5 -43.5q90 0 143.5 51t53.5 135q0 61 -42 113.5t-136 105.5q-151 88 -196.5 145.5t-45.5 131.5q0 56 25.5 99t101.5 102q76 56 102.5 96t26.5 88q0 78 -68 129t-176 51q-139 0 -205.5 -73.5t-66.5 -229.5v-1067h-190z" />
<glyph unicode="&#xe0;" horiz-adv-x="1087" d="M84 285q0 163 130 258.5t355 95.5h179v125q0 83 -51.5 125.5t-151.5 42.5q-95 0 -150.5 -47t-58.5 -129h-182v16q0 136 97.5 208.5t280.5 72.5q213 0 309.5 -75.5t96.5 -244.5v-635q0 -13 2.5 -39.5t7.5 -58.5h-170q-10 32 -20 156v6q-39 -91 -123.5 -139t-206.5 -48 q-156 0 -250 85t-94 225zM279 303q0 -75 55 -124.5t139 -49.5q133 0 204 71.5t71 207.5v102h-160q-147 0 -228 -54.5t-81 -152.5zM283 1511h201l204 -348h-120z" />
<glyph unicode="&#xe1;" horiz-adv-x="1087" d="M84 285q0 163 130 258.5t355 95.5h179v125q0 83 -51.5 125.5t-151.5 42.5q-95 0 -150.5 -47t-58.5 -129h-182v16q0 136 97.5 208.5t280.5 72.5q213 0 309.5 -75.5t96.5 -244.5v-635q0 -13 2.5 -39.5t7.5 -58.5h-170q-10 32 -20 156v6q-39 -91 -123.5 -139t-206.5 -48 q-156 0 -250 85t-94 225zM279 303q0 -75 55 -124.5t139 -49.5q133 0 204 71.5t71 207.5v102h-160q-147 0 -228 -54.5t-81 -152.5zM402 1163l204 348h201l-285 -348h-120z" />
<glyph unicode="&#xe2;" horiz-adv-x="1087" d="M84 285q0 163 130 258.5t355 95.5h179v125q0 83 -51.5 125.5t-151.5 42.5q-95 0 -150.5 -47t-58.5 -129h-182v16q0 136 97.5 208.5t280.5 72.5q213 0 309.5 -75.5t96.5 -244.5v-635q0 -13 2.5 -39.5t7.5 -58.5h-170q-10 32 -20 156v6q-39 -91 -123.5 -139t-206.5 -48 q-156 0 -250 85t-94 225zM250 1163l197 348h196l197 -348h-123l-172 230l-174 -230h-121zM279 303q0 -75 55 -124.5t139 -49.5q133 0 204 71.5t71 207.5v102h-160q-147 0 -228 -54.5t-81 -152.5z" />
<glyph unicode="&#xe3;" horiz-adv-x="1087" d="M84 285q0 163 130 258.5t355 95.5h179v125q0 83 -51.5 125.5t-151.5 42.5q-95 0 -150.5 -47t-58.5 -129h-182v16q0 136 97.5 208.5t280.5 72.5q213 0 309.5 -75.5t96.5 -244.5v-635q0 -13 2.5 -39.5t7.5 -58.5h-170q-10 32 -20 156v6q-39 -91 -123.5 -139t-206.5 -48 q-156 0 -250 85t-94 225zM252 1210q18 99 68 152t125 53q17 0 32 -2t27 -6l99 -29q19 -5 32 -7.5t21 -2.5q33 0 56.5 18.5t37.5 55.5h88q-20 -102 -70.5 -155.5t-126.5 -53.5q-14 0 -30.5 2.5t-34.5 7.5l-97 27q-13 4 -25.5 6t-23.5 2q-31 0 -53.5 -17t-36.5 -51h-88z M279 303q0 -75 55 -124.5t139 -49.5q133 0 204 71.5t71 207.5v102h-160q-147 0 -228 -54.5t-81 -152.5z" />
<glyph unicode="&#xe4;" horiz-adv-x="1087" d="M84 285q0 163 130 258.5t355 95.5h179v125q0 83 -51.5 125.5t-151.5 42.5q-95 0 -150.5 -47t-58.5 -129h-182v16q0 136 97.5 208.5t280.5 72.5q213 0 309.5 -75.5t96.5 -244.5v-635q0 -13 2.5 -39.5t7.5 -58.5h-170q-10 32 -20 156v6q-39 -91 -123.5 -139t-206.5 -48 q-156 0 -250 85t-94 225zM279 303q0 -75 55 -124.5t139 -49.5q133 0 204 71.5t71 207.5v102h-160q-147 0 -228 -54.5t-81 -152.5zM289 1223v209h182v-209h-182zM619 1223v209h182v-209h-182z" />
<glyph unicode="&#xe5;" horiz-adv-x="1087" d="M84 285q0 163 130 258.5t355 95.5h179v125q0 83 -51.5 125.5t-151.5 42.5q-95 0 -150.5 -47t-58.5 -129h-182v16q0 136 97.5 208.5t280.5 72.5q213 0 309.5 -75.5t96.5 -244.5v-635q0 -13 2.5 -39.5t7.5 -58.5h-170q-10 32 -20 156v6q-39 -91 -123.5 -139t-206.5 -48 q-156 0 -250 85t-94 225zM279 303q0 -75 55 -124.5t139 -49.5q133 0 204 71.5t71 207.5v102h-160q-147 0 -228 -54.5t-81 -152.5zM340 1350q0 96 65.5 162.5t159.5 66.5q95 0 162.5 -67t67.5 -162t-67 -161.5t-163 -66.5q-95 0 -160 66t-65 162zM453 1350q0 -49 33 -82 t81 -33q47 0 81 34t34 81q0 45 -35 80.5t-80 35.5q-47 0 -80.5 -34t-33.5 -82z" />
<glyph unicode="&#xe6;" horiz-adv-x="1839" d="M90 303q0 161 116 237t363 76h236v9q0 156 -60 227.5t-190 71.5q-96 0 -155.5 -44t-59.5 -114v-4h-193q8 139 110 215t284 76q144 0 233 -43t135 -136q65 94 150 137.5t205 43.5q218 0 341.5 -119t123.5 -328q-1 -31 -2.5 -62t-4.5 -63h-727q0 -8 -1 -30.5t-1 -36.5 q0 -141 77 -220t212 -79q113 0 178.5 57t67.5 155h182q-3 -165 -118 -259.5t-314 -94.5q-133 0 -224.5 48.5t-158.5 152.5q-78 -105 -177 -153t-241 -48q-180 0 -283.5 88t-103.5 240zM281 299q0 -82 61 -132t162 -50q131 0 212.5 79t86.5 214l2 73h-236q-147 0 -217.5 -45 t-70.5 -139zM995 616h541v23q0 128 -70.5 206.5t-183.5 78.5q-121 0 -197 -81.5t-90 -226.5z" />
<glyph unicode="&#xe7;" horiz-adv-x="1057" d="M98 492q0 265 124.5 413t346.5 148q173 0 276 -93.5t103 -250.5v-4h-184q0 92 -60 153.5t-149 61.5q-121 0 -190.5 -102.5t-69.5 -280.5q0 -207 64.5 -312.5t191.5 -105.5q99 0 159 61.5t62 165.5h184q-12 -180 -115 -275.5t-286 -95.5q-219 0 -338 134.5t-119 382.5z M283 -326q76 -18 140.5 -28.5t105.5 -10.5q62 0 91.5 20.5t29.5 61.5q0 43 -32.5 64.5t-94.5 21.5q-20 0 -33.5 -0.5t-26.5 -0.5v198h76v-102h29q109 0 166 -46t57 -135q0 -91 -64.5 -139.5t-185.5 -48.5q-48 0 -114 11.5t-144 33.5v100z" />
<glyph unicode="&#xe8;" horiz-adv-x="1128" d="M102 494q0 271 122.5 415t350.5 144q209 0 329 -119.5t120 -325.5q0 -50 -1 -76t-3 -49h-729v-20v-41q0 -146 75 -225.5t212 -79.5q113 0 179.5 57.5t68.5 155.5h179q-1 -160 -114.5 -257.5t-300.5 -97.5q-240 0 -364 132t-124 387zM301 616h530v23q0 128 -70.5 206.5 t-182.5 78.5q-123 0 -200 -85t-77 -223zM303 1511h201l204 -348h-120z" />
<glyph unicode="&#xe9;" horiz-adv-x="1128" d="M102 494q0 271 122.5 415t350.5 144q209 0 329 -119.5t120 -325.5q0 -50 -1 -76t-3 -49h-729v-20v-41q0 -146 75 -225.5t212 -79.5q113 0 179.5 57.5t68.5 155.5h179q-1 -160 -114.5 -257.5t-300.5 -97.5q-240 0 -364 132t-124 387zM301 616h530v23q0 128 -70.5 206.5 t-182.5 78.5q-123 0 -200 -85t-77 -223zM422 1163l204 348h201l-285 -348h-120z" />
<glyph unicode="&#xea;" horiz-adv-x="1128" d="M102 494q0 271 122.5 415t350.5 144q209 0 329 -119.5t120 -325.5q0 -50 -1 -76t-3 -49h-729v-20v-41q0 -146 75 -225.5t212 -79.5q113 0 179.5 57.5t68.5 155.5h179q-1 -160 -114.5 -257.5t-300.5 -97.5q-240 0 -364 132t-124 387zM270 1163l197 348h196l197 -348h-123 l-172 230l-174 -230h-121zM301 616h530v23q0 128 -70.5 206.5t-182.5 78.5q-123 0 -200 -85t-77 -223z" />
<glyph unicode="&#xeb;" horiz-adv-x="1128" d="M102 494q0 271 122.5 415t350.5 144q209 0 329 -119.5t120 -325.5q0 -50 -1 -76t-3 -49h-729v-20v-41q0 -146 75 -225.5t212 -79.5q113 0 179.5 57.5t68.5 155.5h179q-1 -160 -114.5 -257.5t-300.5 -97.5q-240 0 -364 132t-124 387zM301 616h530v23q0 128 -70.5 206.5 t-182.5 78.5q-123 0 -200 -85t-77 -223zM309 1223v209h182v-209h-182zM639 1223v209h182v-209h-182z" />
<glyph unicode="&#xec;" horiz-adv-x="512" d="M-6 1511h201l204 -348h-120zM162 0v1028h190v-1028h-190z" />
<glyph unicode="&#xed;" horiz-adv-x="512" d="M113 1163l204 348h201l-285 -348h-120zM162 0v1028h190v-1028h-190z" />
<glyph unicode="&#xee;" horiz-adv-x="512" d="M-39 1163l197 348h196l197 -348h-123l-172 230l-174 -230h-121zM162 0v1028h190v-1028h-190z" />
<glyph unicode="&#xef;" horiz-adv-x="512" d="M0 1223v209h182v-209h-182zM162 0v1028h190v-1028h-190zM330 1223v209h182v-209h-182z" />
<glyph unicode="&#xf0;" horiz-adv-x="1233" d="M106 440q0 226 135 365t353 139q70 0 136 -18.5t134 -57.5q-45 78 -103 148.5t-132 138.5l-305 -127l-52 96l258 109q-71 47 -119.5 76t-93.5 53l93 113q67 -31 142 -74.5t157 -100.5l288 121l52 -96l-242 -102q157 -142 240 -326.5t83 -390.5q0 -254 -134 -392.5 t-382 -138.5q-240 0 -374 123t-134 342zM301 455q0 -159 80.5 -248.5t224.5 -89.5q155 0 240.5 92t85.5 258q0 165 -82 255.5t-232 90.5q-147 0 -232 -96t-85 -262z" />
<glyph unicode="&#xf1;" horiz-adv-x="1204" d="M158 1028h192l6 -168q35 83 121.5 131.5t200.5 48.5q102 0 186.5 -37t132.5 -102q27 -36 38.5 -87t11.5 -175v-639h-189v649q0 130 -55.5 191t-173.5 61q-120 0 -196.5 -65t-76.5 -168v-668h-190v817q0 57 -2 109.5t-6 101.5zM309 1210q18 99 68 152t125 53q17 0 32 -2 t27 -6l99 -29q19 -5 32 -7.5t21 -2.5q33 0 56.5 18.5t37.5 55.5h88q-20 -102 -70.5 -155.5t-126.5 -53.5q-14 0 -30.5 2.5t-34.5 7.5l-97 27q-13 4 -25.5 6t-23.5 2q-31 0 -53.5 -17t-36.5 -51h-88z" />
<glyph unicode="&#xf2;" horiz-adv-x="1233" d="M106 494q0 258 137.5 407.5t374.5 149.5q240 0 373 -139.5t133 -389.5q0 -259 -137.5 -403t-386.5 -144q-229 0 -361.5 139t-132.5 380zM301 504q0 -184 82 -284.5t231 -100.5t233.5 106.5t84.5 294.5t-82 291.5t-232 103.5q-146 0 -231.5 -110.5t-85.5 -300.5zM354 1511 h201l204 -348h-120z" />
<glyph unicode="&#xf3;" horiz-adv-x="1233" d="M106 494q0 258 137.5 407.5t374.5 149.5q240 0 373 -139.5t133 -389.5q0 -259 -137.5 -403t-386.5 -144q-229 0 -361.5 139t-132.5 380zM301 504q0 -184 82 -284.5t231 -100.5t233.5 106.5t84.5 294.5t-82 291.5t-232 103.5q-146 0 -231.5 -110.5t-85.5 -300.5zM473 1163 l204 348h201l-285 -348h-120z" />
<glyph unicode="&#xf4;" horiz-adv-x="1233" d="M106 494q0 258 137.5 407.5t374.5 149.5q240 0 373 -139.5t133 -389.5q0 -259 -137.5 -403t-386.5 -144q-229 0 -361.5 139t-132.5 380zM301 504q0 -184 82 -284.5t231 -100.5t233.5 106.5t84.5 294.5t-82 291.5t-232 103.5q-146 0 -231.5 -110.5t-85.5 -300.5zM321 1163 l197 348h196l197 -348h-123l-172 230l-174 -230h-121z" />
<glyph unicode="&#xf5;" horiz-adv-x="1233" d="M106 494q0 258 137.5 407.5t374.5 149.5q240 0 373 -139.5t133 -389.5q0 -259 -137.5 -403t-386.5 -144q-229 0 -361.5 139t-132.5 380zM301 504q0 -184 82 -284.5t231 -100.5t233.5 106.5t84.5 294.5t-82 291.5t-232 103.5q-146 0 -231.5 -110.5t-85.5 -300.5zM323 1210 q18 99 68 152t125 53q17 0 32 -2t27 -6l99 -29q19 -5 32 -7.5t21 -2.5q33 0 56.5 18.5t37.5 55.5h88q-20 -102 -70.5 -155.5t-126.5 -53.5q-14 0 -30.5 2.5t-34.5 7.5l-97 27q-13 4 -25.5 6t-23.5 2q-31 0 -53.5 -17t-36.5 -51h-88z" />
<glyph unicode="&#xf6;" horiz-adv-x="1233" d="M106 494q0 258 137.5 407.5t374.5 149.5q240 0 373 -139.5t133 -389.5q0 -259 -137.5 -403t-386.5 -144q-229 0 -361.5 139t-132.5 380zM301 504q0 -184 82 -284.5t231 -100.5t233.5 106.5t84.5 294.5t-82 291.5t-232 103.5q-146 0 -231.5 -110.5t-85.5 -300.5zM360 1223 v209h182v-209h-182zM690 1223v209h182v-209h-182z" />
<glyph unicode="&#xf7;" horiz-adv-x="1706" d="M254 541v139h1198v-139h-1198zM729 242q0 51 37 88t88 37t88 -37t37 -88q0 -52 -36.5 -88.5t-88.5 -36.5q-53 0 -89 36t-36 89zM729 979q0 52 37 89.5t88 37.5t88 -37.5t37 -89.5q0 -51 -36.5 -88t-88.5 -37t-88.5 36.5t-36.5 88.5z" />
<glyph unicode="&#xf8;" horiz-adv-x="1233" d="M106 494q0 255 137 407t367 152q76 0 135 -13t113 -41l113 195l94 -47l-115 -199q85 -62 129.5 -171t44.5 -257q0 -256 -137.5 -400.5t-382.5 -144.5q-52 0 -104.5 8t-108.5 23l-129 -217l-98 55l127 207q-92 83 -138.5 193.5t-46.5 249.5zM301 508q0 -92 21.5 -169 t62.5 -130l397 663q-41 23 -80.5 33t-83.5 10q-145 0 -231 -110t-86 -297zM474 145q29 -13 61 -19.5t67 -6.5q162 0 245 106t83 314q0 75 -17.5 138.5t-52.5 117.5z" />
<glyph unicode="&#xf9;" horiz-adv-x="1204" d="M158 383v645h188v-657q0 -130 56 -191t173 -61q120 0 196.5 66t76.5 169v674h190v-825q0 -61 2 -110.5t7 -92.5h-193l-6 162q-35 -83 -122.5 -132.5t-201.5 -49.5q-100 0 -184 37.5t-133 103.5q-27 36 -38 87t-11 175zM336 1511h201l204 -348h-120z" />
<glyph unicode="&#xfa;" horiz-adv-x="1204" d="M158 383v645h188v-657q0 -130 56 -191t173 -61q120 0 196.5 66t76.5 169v674h190v-825q0 -61 2 -110.5t7 -92.5h-193l-6 162q-35 -83 -122.5 -132.5t-201.5 -49.5q-100 0 -184 37.5t-133 103.5q-27 36 -38 87t-11 175zM455 1163l204 348h201l-285 -348h-120z" />
<glyph unicode="&#xfb;" horiz-adv-x="1204" d="M158 383v645h188v-657q0 -130 56 -191t173 -61q120 0 196.5 66t76.5 169v674h190v-825q0 -61 2 -110.5t7 -92.5h-193l-6 162q-35 -83 -122.5 -132.5t-201.5 -49.5q-100 0 -184 37.5t-133 103.5q-27 36 -38 87t-11 175zM303 1163l197 348h196l197 -348h-123l-172 230 l-174 -230h-121z" />
<glyph unicode="&#xfc;" horiz-adv-x="1204" d="M158 383v645h188v-657q0 -130 56 -191t173 -61q120 0 196.5 66t76.5 169v674h190v-825q0 -61 2 -110.5t7 -92.5h-193l-6 162q-35 -83 -122.5 -132.5t-201.5 -49.5q-100 0 -184 37.5t-133 103.5q-27 36 -38 87t-11 175zM342 1223v209h182v-209h-182zM672 1223v209h182 v-209h-182z" />
<glyph unicode="&#xfd;" horiz-adv-x="1112" d="M33 1028h192l328 -815l332 815h188l-602 -1417h-176l158 389zM414 1163l204 348h201l-285 -348h-120z" />
<glyph unicode="&#xfe;" horiz-adv-x="1233" d="M158 -389v1864h188v-601q58 90 141 134.5t191 44.5q213 0 332.5 -141.5t119.5 -393.5q0 -259 -115.5 -396.5t-332.5 -137.5q-104 0 -190 44.5t-146 129.5v-547h-188zM346 535q0 -197 80 -311.5t213 -114.5q135 0 216 107t81 288q0 196 -79.5 310t-213.5 114 t-215.5 -106.5t-81.5 -286.5z" />
<glyph unicode="&#xff;" horiz-adv-x="1112" d="M33 1028h192l328 -815l332 815h188l-602 -1417h-176l158 389zM301 1223v209h182v-209h-182zM631 1223v209h182v-209h-182z" />
<glyph unicode="&#x152;" horiz-adv-x="2038" d="M115 745q0 369 180.5 556.5t535.5 187.5q51 0 155 -6t157 -6h792v-174h-692v-453h653v-176h-653v-500h692v-174h-768q-52 0 -169.5 -6t-182.5 -6q-353 0 -526.5 188t-173.5 569zM317 741q0 -284 131.5 -431.5t382.5 -147.5q38 0 89 3t118 9v1126q-68 8 -119 11.5t-81 3.5 q-262 0 -391.5 -142.5t-129.5 -431.5z" />
<glyph unicode="&#x153;" horiz-adv-x="1919" d="M102 494q0 263 132 411t368 148q129 0 225 -43t174 -136q72 92 161.5 135.5t207.5 43.5q209 0 330 -119.5t121 -325.5q0 -50 -1 -76t-3 -49h-730v-84q0 -130 78 -207t209 -77q113 0 179.5 57.5t68.5 156.5h180q-1 -159 -115 -256.5t-301 -97.5q-137 0 -232 41.5 t-163 130.5q-82 -89 -179.5 -130.5t-227.5 -41.5q-227 0 -354.5 137.5t-127.5 381.5zM295 504q0 -186 80.5 -287.5t226.5 -101.5q144 0 226.5 107.5t82.5 295.5q0 191 -81.5 298.5t-225.5 107.5q-141 0 -225 -114.5t-84 -305.5zM1094 618h532v23q0 128 -70.5 205.5 t-183.5 77.5q-123 0 -200.5 -84.5t-77.5 -221.5z" />
<glyph unicode="&#x178;" horiz-adv-x="1346" d="M18 1475h244l426 -719l414 719h225l-551 -893v-582h-196v582zM418 1669v209h182v-209h-182zM748 1669v209h182v-209h-182z" />
<glyph unicode="&#x2c6;" horiz-adv-x="1024" d="M217 1163l197 348h196l197 -348h-123l-172 230l-174 -230h-121z" />
<glyph unicode="&#x2dc;" horiz-adv-x="1024" d="M219 1210q18 99 68 152t125 53q17 0 32 -2t27 -6l99 -29q19 -5 32 -7.5t21 -2.5q33 0 56.5 18.5t37.5 55.5h88q-20 -102 -70.5 -155.5t-126.5 -53.5q-14 0 -30.5 2.5t-34.5 7.5l-97 27q-13 4 -25.5 6t-23.5 2q-31 0 -53.5 -17t-36.5 -51h-88z" />
<glyph unicode="&#x2000;" horiz-adv-x="986" />
<glyph unicode="&#x2001;" horiz-adv-x="1972" />
<glyph unicode="&#x2002;" horiz-adv-x="986" />
<glyph unicode="&#x2003;" horiz-adv-x="1972" />
<glyph unicode="&#x2004;" horiz-adv-x="657" />
<glyph unicode="&#x2005;" horiz-adv-x="493" />
<glyph unicode="&#x2006;" horiz-adv-x="328" />
<glyph unicode="&#x2007;" horiz-adv-x="328" />
<glyph unicode="&#x2008;" horiz-adv-x="246" />
<glyph unicode="&#x2009;" horiz-adv-x="394" />
<glyph unicode="&#x200a;" horiz-adv-x="109" />
<glyph unicode="&#x2010;" horiz-adv-x="678" d="M96 428v172h486v-172h-486z" />
<glyph unicode="&#x2011;" horiz-adv-x="678" d="M96 428v172h486v-172h-486z" />
<glyph unicode="&#x2012;" horiz-adv-x="678" d="M96 428v172h486v-172h-486z" />
<glyph unicode="&#x2013;" horiz-adv-x="1024" d="M0 451v127h1024v-127h-1024z" />
<glyph unicode="&#x2014;" horiz-adv-x="2048" d="M0 451v127h2048v-127h-2048z" />
<glyph unicode="&#x2018;" horiz-adv-x="522" d="M76 971l229 504h141l-137 -504h-233z" />
<glyph unicode="&#x2019;" horiz-adv-x="522" d="M76 971l135 504h235l-229 -504h-141z" />
<glyph unicode="&#x201a;" horiz-adv-x="522" d="M76 -252l135 504h235l-229 -504h-141z" />
<glyph unicode="&#x201c;" horiz-adv-x="897" d="M76 971l229 504h141l-137 -504h-233zM451 971l229 504h141l-137 -504h-233z" />
<glyph unicode="&#x201d;" horiz-adv-x="897" d="M76 971l135 504h235l-229 -504h-141zM451 971l137 504h233l-229 -504h-141z" />
<glyph unicode="&#x201e;" horiz-adv-x="897" d="M76 -248l135 502h235l-229 -502h-141zM451 -248l137 502h233l-229 -502h-141z" />
<glyph unicode="&#x2022;" horiz-adv-x="1208" d="M307 762q0 123 87 209t210 86q122 0 208.5 -86.5t86.5 -208.5t-87.5 -209.5t-209.5 -87.5q-123 0 -209 87t-86 210z" />
<glyph unicode="&#x2026;" horiz-adv-x="2048" d="M229 0v252h223v-252h-223zM911 0v252h223v-252h-223zM1595 0v252h223v-252h-223z" />
<glyph unicode="&#x202f;" horiz-adv-x="394" />
<glyph unicode="&#x2039;" horiz-adv-x="616" d="M115 522l213 393h164l-183 -393l193 -409h-162z" />
<glyph unicode="&#x203a;" horiz-adv-x="616" d="M115 113l192 409l-182 393h164l213 -393l-228 -409h-159z" />
<glyph unicode="&#x205f;" horiz-adv-x="493" />
<glyph unicode="&#x2122;" horiz-adv-x="1706" d="M242 1378v80h452v-80h-172v-458h-108v458h-172zM813 920v538h150l151 -385l141 385h150v-538h-98v444l-166 -444h-56l-174 444v-444h-98z" />
<glyph unicode="&#xe000;" horiz-adv-x="1030" d="M0 0v1030h1030v-1030h-1030z" />
</font>
</defs>
</svg>
